<?xml version="1.0" encoding="utf-8"?>
<!-- Generator: Adobe Illustrator 16.0.0, SVG Export Plug-In . SVG Version: 6.00 Build 0)  -->
<!DOCTYPE svg PUBLIC "-//W3C//DTD SVG 1.1//EN" "http://www.w3.org/Graphics/SVG/1.1/DTD/svg11.dtd">
<svg version="1.1" id="Layer_1" xmlns="http://www.w3.org/2000/svg" xmlns:xlink="http://www.w3.org/1999/xlink" x="0px" y="0px"
	 width="190.513px" height="108.333px" viewBox="0 0 190.513 108.333" enable-background="new 0 0 190.513 108.333"
	 xml:space="preserve">
<g>
	<path fill-rule="evenodd" clip-rule="evenodd" fill="#C1D9D1" d="M174.636,52.007c-0.25-3.312-3.944-1.463-3.944-2.387
		c-2.771-5.542-0.924-10.161-9.238-11.085c-2.771-0.922-1.846-8.314-4.039-11.559c-0.693-0.854-1.734-1.374-3.35-1.374
		c-4.619-0.922-2.771,7.39-6.467,8.314s-2.771-5.542-3.695-4.618c-6.465,1.847-3.695-6.467-8.312-5.543
		c-1.849,0-2.771,7.39-6.164,3.589c-0.482-0.168-1.038,0.062-1.58,0.437c-0.342-2.145,1.961-3.917,2.719-5.573
		c1.541-3.362,1.094-5.561-1.762-7.375c-2.653-1.691-7.273-3.601-9.658-0.194c-1.404,2.002-1.295,4.191-4.365,3.071
		c-1.708-0.625-2.52-3.028-3.795-4.355c-1.997-2.076-5.275-2.385-7.525-0.975c-1.692,1.06-2.125,3.004-4.195,3.026
		c-1.625,0.018-3.08-0.886-4.639-1.677c-1.557-0.791-9.361-4.254-11.192-3.241c-9.085,5.027,0.348,12.5-7.965,12.5
		c-5.543,0-11.931-1.079-16.549-2.003c-1.849,0-4.62,0-6.466,0c-6.467,2.771,0.923,8.314,0.923,12.932
		c0,0.924-0.923,2.771-1.848,2.771c-4.618,0.924-7.39,0-7.39-4.618c-0.924,0-1.848,0-2.588,0.111
		c-1.809,0.643-2.67,2.919-4.034,4.284c-1.417,1.422-1.079,1.363-2.771,0.261c-0.744-0.487-0.045-0.643-0.986-0.85
		c-0.729-0.16-1.595,0.144-2.394,0.546c-1.368-0.297-2.647,0.164-3.612,2.257c-0.738,1.606,0,4.521-0.621,5.83
		c-0.822,1.729-2.77-0.684-3.904-0.71c-2.506-0.057-4.496,3.012-2.389,6.947c0.354,0.661,0.795,1.072,1.178,1.574
		c-1.1,0.518-2.968-1.074-4.564,0.22c-1.584,1.285-2.531,2.86-1.539,4.89c0.414,0.854,1.535,2.638,2.354,2.986
		c0.762,0.325,2.1-0.379,3.264-0.692c0.092,1.378,1.07,1.794,1.822,2.542c-0.518,0.902-1.453,1.714-1.857,2.492
		c-1.152,2.216-0.941,3.729,0.885,4.984c0.184,1.234,0.816,2.837,1.27,3.154c1.025,0.725,2.215-0.568,3.312-1.369
		c0.764,0.082,1.514,0.021,2.186-0.254c1.041,0.646,2.088,2.224,2.492,3.787c0.727,2.801-0.141,3.834,1.264,6.385
		c1.816,3.317,4.025,5.34,6.498,3.016c1.529-1.438,3.982-10.605,6.396-7.577c1.14,1.431,0.754,4.263,2.268,5.069
		c1.488,0.797,2.506-1.499,3.842-0.92c2.268,0.98,0.004,8.58,3.91,6.326c1.461-0.839,2.141-3.782,3.232-5.555
		c1.135-1.846,0.862-1.766,2.242-0.354c0.609,0.623,0.043,0.83,0.811,1.09c0.363,0.128,0.768,0.023,1.174-0.197
		c-0.209,1.816-2.094,3.355-2.772,4.812c-1.567,3.35-1.136,5.551,1.704,7.387c2.643,1.712,7.246,3.656,9.657,0.268
		c1.421-1.99,1.327-4.182,4.39-3.037c1.702,0.638,2.495,3.047,3.762,4.385c1.981,2.089,5.254,2.425,7.518,1.031
		c1.699-1.046,2.148-2.988,4.217-2.994c3.251-0.01,5.791,3.664,9.878,2.752c1.844-0.409,3.12-1.836,4.531-3.172
		c2.192-2.076,3.85-1.729,6.868-0.919c4.219,1.128,11.648,7.743,15.713,1.703c1.168-1.733,0.055-4.899,1.035-6.312
		c1.297-1.869,4.289,0.765,6.053,0.801c3.89,0.084,7.016-3.227,3.789-7.506c-1.035-1.377-2.576-1.763-3.013-3.721
		c-0.094-2.338,0.831-5.109,2.677-6.957c2.771,1.848,5.543,4.157,8.199,4.965c1.327,0.404,2.629,0.431,3.887-0.162
		c3.619-3.878,6.39-3.878,11.008-2.955c0.924-6.466,3.695-8.314,9.238-10.162c-0.924-1.846-2.771-3.695-1.848-6.465
		c0.924-0.924,2.771,1.848,3.604-0.097C174.715,54.954,175.513,53.664,174.636,52.007z"/>
	<path fill="#FFFFFF" d="M77.217,49.723c0.571-0.673,4.682,6.833,5.13,6.047c0.447-0.786,0.225-1.324,0.785-2.325
		c0.562-1.002,0.562-1.49,1.122-2.051c0.561-0.561-0.446-3.127,1.009-2.02c1.455,1.109,1.344,1.824,1.907,2.929
		c0.563,1.101,1.683,2.345,2.132,2.906s1.233,1.169,1.57,1.708c0.338,0.537,1.122,1.211,2.02,1.211s2.245-2.918,2.131-3.256
		c-0.112-0.335,0.147-1.053,0.148-1.747c0-0.692,0.638-1.843,0.638-1.843V50.05l0.896-0.95l0.699-2.666h2.382
		c0,0,0.83,0.473,1.351,0.773c0.522,0.3,0.8,0.267,1.383,0.826c0.581,0.557,1.142,0.333,2.264,0.108s2.469-0.934,2.469-0.934
		s0.448-1.159,0.897,0c0.448,1.159,1.35,0.771,1.235,1.808c-0.112,1.036-0.112,1.036-0.112,1.036s2.018-0.788,2.355-1.124
		c0.336-0.337,1.571-1.72,1.571-1.72s0.69-2.184,1.86-1.972c1.168,0.213,3.299-1.58,3.635-1.917
		c0.338-0.336,2.023-2.255,2.023-2.255s0.484-1.672,2.036-1.334c1.551,0.335,2.784-1.122,2.784-1.122l2.729,51.76
		c0,0-42.574,1.667-52.002-0.714C75.486,71.825,77.217,49.723,77.217,49.723z"/>
	<path fill="#757F92" d="M130.167,88.067c-2.663-0.006-5.419-0.009-8.07-0.006c-0.379,0-0.754,0-1.13,0c-0.366,0-0.737,0-1.11-0.003
		c-3.613,0-7.208-0.002-10.819,0.005c-0.401,0.002-0.804,0.002-1.205,0.004c-3.602-0.011-6.867-0.011-10.427-0.006
		c-0.328,0-0.659,0-0.99,0c-1.655,0-3.326,0.002-5.034,0.006c-1.032,0-2.03,0-2.982,0c-0.269,0-0.532,0-0.792,0
		c-3.331-0.011-6.959,0.717-9.499-0.371c-1.088-0.363,0-2.904-0.132-4.726c0.016-0.411,0.027-0.819,0.039-1.228
		c0.093-3.264,0.091-6.462,0.08-9.676c-0.01-0.348-0.02-0.694-0.029-1.043c-0.045-1.733-0.063-3.477,0.12-5.169
		c0.003-0.423,0.003-0.842,0.001-1.265c-0.035-7.156-0.951-14.218-0.219-21.458c-0.006-0.385-0.014-0.769-0.019-1.155
		c-0.023-1.54-0.023-3.083,0.158-4.715h1.452c0.226,1.815,0.17,3.771,0.051,5.728c-0.023,0.392-0.051,0.782-0.076,1.173
		c-0.541,6.723-0.231,13.668-0.146,20.531c0.006,0.402,0.01,0.807,0.014,1.211c0.092,2.34,0.13,4.797,0.111,7.219
		c-0.004,0.348-0.009,0.692-0.012,1.038c0.035,2.243,0.049,4.575,0.015,6.841c-0.005,0.377-0.012,0.755-0.021,1.128
		c0.427,1.571-0.661,3.747,0.064,4.11c1.814,1.09,5.078,0.365,7.755,0.371c0.237,0,0.48,0,0.726,0c0.906,0,1.864,0,2.865,0
		c1.582-0.004,3.19-0.006,4.829-0.006c0.327,0,0.656,0,0.985,0c3.884,0,7.511,0,11.605,0.006c0.39,0,0.775-0.004,1.158-0.013
		c3.457-0.062,6.744-0.333,10.221-0.116c0.348,0.027,0.697,0.066,1.044,0.116s0.693,0.11,1.037,0.188
		c0.344-0.007,0.69-0.023,1.038-0.049c2.434-0.168,4.934-0.676,7.346,0.601C130.167,87.704,130.167,88.067,130.167,88.067z"/>
	<path fill="#E88C24" d="M126.284,43.359l-0.314,0.035c-0.163,0-0.303-0.042-0.416-0.125l-0.189-0.141l-14.307,10.574l-1.055-3.586
		l-0.334,0.147l-0.217,0.108c-0.585,0.471-1.276,0.797-1.875,1.054c-0.417,0.18-0.818,0.388-1.221,0.597
		c-0.494,0.258-0.962,0.5-1.46,0.693l-0.08,0.031l-0.054,0.066c-0.148,0.184-0.365,0.302-0.553,0.302
		c-0.058,0-0.111-0.01-0.163-0.031c-1.083-0.437-1.997-0.953-2.718-1.532l-0.051-0.042l-0.062-0.018
		c-0.591-0.167-1.18-0.523-1.572-0.778c-0.183-0.118-0.357-0.241-0.527-0.366l-0.3-0.221l-5.851,11.13l-7.229-9.346l-4.965,10.812
		l0.984,0.454l0.989-1.388c0.384-0.729,0.78-1.518,1.085-2.359c0.467-1.291,0.949-2.625,1.584-3.908
		c0.027-0.056,0.06-0.105,0.15-0.247c0.117-0.321,0.453-0.573,0.766-0.573c0.213,0,0.373,0.12,0.477,0.355
		c0.839,1.905,2.207,3.617,3.304,4.896c0.276,0.322,0.56,0.633,0.843,0.943c0.666,0.73,1.295,1.42,1.812,2.219l0.281,0.433
		l0.705-1.198c0.316-0.799,0.782-1.52,1.373-2.402c0.437-0.797,0.867-1.6,1.295-2.396l0.913-1.703l0.053-0.061l0.124-0.273
		c0.265-0.581,0.529-1.162,0.808-1.734c0.021-0.042,0.046-0.076,0.099-0.163l0.354-0.798c0.069-0.151,0.164-0.257,0.283-0.312
		l0.08-0.038l0.051-0.075c0.154-0.231,0.396-0.266,0.527-0.266c0.255,0,0.511,0.123,0.652,0.312l0.146,0.112l0.075,0.034
		c0.402,0.241,0.809,0.471,1.214,0.7c0.596,0.336,1.188,0.671,1.764,1.04l0.167,0.106l0.17-0.101
		c0.808-0.482,1.737-0.831,2.637-1.167c0.482-0.181,0.961-0.361,1.423-0.561c0.083-0.037,0.173-0.058,0.278-0.064l0.135-0.009
		l0.088-0.104c0.123-0.145,0.295-0.219,0.515-0.219c0.209,0,0.376,0.067,0.497,0.198c0.135,0.146,0.204,0.37,0.186,0.598
		l-0.006,0.07l0.023,0.066c0.293,0.802,0.546,1.651,0.752,2.521l0.111,0.472l0.656-0.483l0.033-0.059
		c0.829-1.447,2.492-2.433,4.1-3.385c1.102-0.653,2.241-1.328,3.094-2.148c1.107-1.062,2.477-1.932,3.799-2.774
		c1.502-0.954,3.053-1.941,4.26-3.224l0.184-0.195L126.284,43.359z"/>
	<path fill="#505763" d="M85.457,59.473c-4.177,0-7.571-0.321-10.53-1.003c6.621,0,13.902,0,20.714-0.011
		c1.829-0.004,3.664-0.01,5.492-0.019c4.011-0.022,7.521-0.059,10.728-0.11c1.57,0.035,3.143,0.062,4.701,0.079
		c1.557,0.019,3.099,0.024,4.623,0.024c2.955,0,5.857-0.031,8.639-0.098v0.942c-2.781,0.067-5.684,0.101-8.639,0.101
		c-1.521,0-3.061-0.011-4.615-0.027c-1.556-0.02-3.126-0.044-4.706-0.08c-0.885,0.016-1.766,0.021-2.654,0.021
		c-2.143,0-4.385-0.035-6.552-0.068l-1.521-0.023c-1.764-0.027-3.536-0.048-5.303-0.048H95.64c-0.957,0.033-1.911,0.073-2.868,0.112
		C90.375,59.369,87.897,59.473,85.457,59.473z"/>
	<g>
		<g>
			<path fill="#FFFFFF" d="M50.711,20.543c-0.702,1.115-2.158,1.826-4.335,2.113l-0.472,0.062l0.378,2.037l0.407-0.036
				c0.684-0.063,1.418-0.202,2.184-0.413c0.431-0.118,0.812-0.249,1.142-0.385V36.29h2.851V20.336h-2.021L50.711,20.543z"/>
			<path fill="#FFFFFF" d="M65.813,23.022c-0.178-0.441-0.395-0.838-0.648-1.177c-0.261-0.359-0.568-0.673-0.909-0.928
				c-0.697-0.534-1.538-0.803-2.505-0.803c-0.966,0-1.808,0.27-2.501,0.803c-0.688,0.524-1.212,1.236-1.557,2.108
				c-0.164,0.418-0.308,0.836-0.436,1.328c-0.446,3.46-0.525,8.104,1.62,10.566c0.963,1.107,2.283,1.668,3.923,1.668
				c1.823,0,3.296-3.303,3.718-5.543c0.072-0.43,0.124-0.872,0.147-1.485c-0.367-1.34-0.498-2.958-0.614-4.387
				C65.988,24.371,65.929,23.653,65.813,23.022z M61.75,22.203c0.462,0,0.838,0.184,1.119,0.525c1.79,2.704,2.1,7.334,1.1,9.226
				c-0.307,0.575-0.687,0.856-1.278,0.868c-0.557,0.142-1.053,0.213-1.479,0.213c-0.739,0-1.266-0.208-1.613-0.631
				c-1.038-1.275-0.426-4.426,0.068-6.957l0.136-0.7c0.185-0.893,0.457-1.559,0.804-1.983C60.916,22.387,61.289,22.203,61.75,22.203
				z"/>
			<g>
				<path fill="#FFFFFF" d="M50.141,20.179c-0.589,0.937-1.886,1.542-3.853,1.799l-1.178,0.157l0.623,3.353l1.017-0.088
					c0.731-0.065,1.506-0.214,2.299-0.436c0.098-0.024,0.195-0.054,0.289-0.081c0,0,0,0.356,0,0.919
					c1.628,2.105-5.127,11.2,3.88,11.2c0-4.548,0-6.821,0.305-10.263c0.003-0.537,0.012-1.085,0.019-1.607c0-3.044,0-5.479,0-5.479
					h-3.066L50.141,20.179z"/>
				<path fill="#FFFFFF" d="M66.44,22.811c-0.201-0.527-0.447-0.993-0.731-1.375c-0.303-0.413-0.656-0.771-1.046-1.061
					c-0.816-0.625-1.795-0.943-2.912-0.943c-1.115,0-2.096,0.317-2.91,0.943c-0.786,0.599-1.382,1.408-1.773,2.398
					c-0.175,0.441-0.326,0.883-0.479,1.491c-0.077,0.602-0.145,1.236-0.191,1.892c-0.044,0.652-0.086,1.346-0.065,1.998
					c-0.859,4.301,1.394,6.572,3.628,8.849c0.815,0.281,1.599,0.388,2.248,0.347c4.525-0.281,4.524-7.767,4.517-11.958
					C66.659,24.478,66.597,23.662,66.44,22.811z"/>
				<path fill="#FFFFFF" d="M78.625,25.471c-0.149-0.922-0.401-1.829-0.75-2.698c-0.395-0.996-0.991-1.802-1.772-2.398
					c-0.818-0.625-1.799-0.943-2.913-0.943c-1.113,0-2.094,0.317-2.909,0.943c-0.391,0.295-0.734,0.648-1.033,1.049
					c-4.768,4.209-0.264,11.03-0.264,15.578c2.25,0,6.758,2.271,8.892-3.148c0.347-0.872,0.601-1.779,0.75-2.698
					c0.146-0.898,0.22-1.855,0.22-2.846S78.772,26.363,78.625,25.471z"/>
			</g>
			<path fill="#FFFFFF" d="M77.958,25.581c-0.142-0.869-0.382-1.731-0.71-2.556c-0.347-0.878-0.87-1.586-1.553-2.108
				c-0.697-0.534-1.54-0.803-2.506-0.803c-0.965,0-1.807,0.27-2.503,0.803c-0.683,0.522-1.207,1.23-1.555,2.108
				c-0.331,0.842-0.571,1.701-0.71,2.556c-0.071,0.432-0.123,0.874-0.157,1.316c-0.235,2.086-0.234,3.575,0.443,5.442
				c0.119,0.423,0.26,0.845,0.425,1.26c0.347,0.877,0.871,1.586,1.554,2.105c0.699,0.536,1.539,0.806,2.503,0.806
				s1.806-0.27,2.502-0.803c0.687-0.522,1.21-1.231,1.557-2.108c0.328-0.824,0.568-1.687,0.71-2.555
				c0.139-0.857,0.214-1.776,0.214-2.733S78.097,26.434,77.958,25.581z M73.19,34.286c-1.483,0-2.235-2.016-2.235-5.997
				c0-2.778,0.388-6.086,2.235-6.086c1.483,0,2.236,2.049,2.236,6.086C75.426,32.271,74.673,34.286,73.19,34.286z"/>
		</g>
		<g>
			<path fill="#6F7B8C" d="M51.254,35.167V23.534c-0.374,0.229-0.908,0.436-1.588,0.624c-0.687,0.189-1.335,0.311-1.953,0.367
				l-0.199-1.07c2.158-0.282,3.603-0.997,4.322-2.131h1.229v13.843H51.254z"/>
			<path fill="#6F7B8C" d="M65.751,30.69c-0.401,2.111-1.721,4.749-3.041,4.749c-5.276,0-5.276-6.593-4.734-10.784
				c0.105-0.379,0.233-0.75,0.379-1.121c0.296-0.738,0.733-1.322,1.31-1.76c0.574-0.436,1.266-0.652,2.071-0.652
				c0.805,0,1.496,0.217,2.074,0.652c0.288,0.216,0.543,0.474,0.761,0.768c0.218,0.291,0.399,0.622,0.55,0.993
				c0.229,1.352,0.229,3.99,0.777,5.967C65.863,29.911,65.815,30.305,65.751,30.69z M61.736,22.207
				c-0.552,0-1.016,0.222-1.385,0.669c-0.369,0.445-0.646,1.115-0.833,2.004c-0.763,3.966-2.084,9.243,3.192,7.921
				c2.64,0,2.64-6.596,0.414-9.925C62.753,22.429,62.291,22.207,61.736,22.207z"/>
			<path fill="#6F7B8C" d="M76.375,30.69c-0.128,0.771-0.337,1.524-0.635,2.265c-0.295,0.738-0.729,1.321-1.307,1.757
				c-0.579,0.436-1.269,0.655-2.073,0.655c-0.806,0-1.496-0.219-2.071-0.655c-0.578-0.436-1.014-1.019-1.31-1.757
				c-0.147-0.371-0.273-0.745-0.381-1.121c-0.61-1.669-0.61-2.988-0.397-4.844c0.033-0.41,0.081-0.807,0.144-1.191
				c0.127-0.771,0.342-1.524,0.635-2.266c0.296-0.738,0.731-1.322,1.31-1.76c0.575-0.436,1.266-0.652,2.071-0.652
				c0.805,0,1.494,0.217,2.073,0.652c0.578,0.438,1.012,1.022,1.307,1.76c0.298,0.742,0.507,1.495,0.635,2.266
				c0.13,0.771,0.193,1.585,0.193,2.445C76.568,29.102,76.504,29.917,76.375,30.69z M72.36,22.207c-1.664,0-2.494,2.003-2.494,6.017
				c0,3.957,0.83,5.938,2.494,5.938s2.494-1.98,2.494-5.938C74.854,24.21,74.024,22.207,72.36,22.207z"/>
		</g>
	</g>
	<path fill="#FFFFFF" d="M54.891,63.164c2.66,0.384,3.188-1.409,4.613-2.745c-1.425,0-1.953-0.877-3.378-2.211
		c-2.849-2.671-1.424-4.005,0-6.676c2.849-2.67,5.696-1.335,7.122,0c4.272,6.676-1.426,12.016-7.316,14.26L54.891,63.164z"/>
	<path fill="#FFFFFF" d="M69.006,65.455c-4.718-2.134-6.031-4.761-4.718-10.015c0-2.626,2.628-5.254,5.254-5.254
		c5.255,1.313,6.567,10.508,1.871,14.502C70.743,65.204,69.931,65.463,69.006,65.455z"/>
	<path fill="#F79B83" d="M63.583,31.605c-5.8,3.069-3.628-4.041-3.628-6.412c4.342-2.368,4.342,2.372,3.997,4.1
		C63.962,30.27,63.84,31.083,63.583,31.605z"/>
	<path fill="#F79B83" d="M73.438,30.82c-3.685,2.508-2.305-3.301-2.305-5.238c2.76-1.935,2.76,1.937,2.541,3.349
		C73.68,29.729,73.602,30.394,73.438,30.82z"/>
	<path fill="#F79B83" d="M67.567,53.557c5.583-3.8,3.492,5.002,3.492,7.938c-4.181,2.933-4.181-2.936-3.85-5.074
		C67.199,55.211,67.317,54.204,67.567,53.557z"/>
	<ellipse fill="#F79B83" cx="60.192" cy="53.18" rx="1.778" ry="2.3"/>
	<path fill="#757F92" d="M62.784,59.292c-0.319,0.896-0.712,1.627-1.176,2.193c-0.464,0.565-0.986,1.064-1.571,1.498
		c-0.583,0.434-1.104,0.754-1.554,0.948c-0.451,0.198-0.871,0.349-1.255,0.444l-0.416-1.051c2.312-0.778,3.849-2.244,4.606-4.387
		c-0.555,0.217-1.125,0.324-1.718,0.324c-1.155,0-2.104-0.324-2.844-0.967s-1.112-1.58-1.112-2.811c0-1.069,0.33-1.977,0.985-2.719
		c0.656-0.742,1.576-1.109,2.757-1.109c1.238,0,2.18,0.419,2.816,1.253c0.64,0.842,0.96,1.987,0.96,3.446
		C63.263,57.415,63.102,58.391,62.784,59.292z M61.182,53.652c-0.383-0.643-0.968-0.967-1.751-0.967
		c-0.734,0-1.282,0.275-1.645,0.823c-0.36,0.548-0.54,1.212-0.54,1.995c0,1.892,0.902,2.837,2.709,2.837
		c0.615,0,1.169-0.111,1.661-0.324c0.097-0.492,0.146-1.072,0.146-1.733C61.762,55.173,61.568,54.295,61.182,53.652z"/>
	<path fill="#757F92" d="M72.687,60.176c-0.116,0.691-0.304,1.366-0.568,2.031c-0.265,0.662-0.656,1.191-1.176,1.58
		c-0.517,0.393-1.139,0.588-1.861,0.588c-0.724,0-1.343-0.195-1.862-0.588c-0.516-0.389-0.907-0.918-1.174-1.58
		c-0.265-0.665-0.453-1.34-0.566-2.031c-0.117-0.694-0.173-1.426-0.173-2.196c0-0.771,0.056-1.503,0.173-2.193
		c0.113-0.695,0.302-1.371,0.566-2.035c0.267-0.662,0.658-1.19,1.174-1.58c0.52-0.394,1.139-0.588,1.862-0.588
		c0.723,0,1.345,0.194,1.861,0.588c0.52,0.39,0.911,0.918,1.176,1.58c0.265,0.665,0.452,1.34,0.568,2.035
		c0.115,0.69,0.172,1.422,0.172,2.193C72.859,58.75,72.802,59.482,72.687,60.176z M69.082,52.561c-1.493,0-2.241,1.8-2.241,5.4
		c0,3.553,0.748,5.33,2.241,5.33c1.495,0,2.241-1.777,2.241-5.33C71.323,54.361,70.577,52.561,69.082,52.561z"/>
</g>
</svg>
