<?xml version="1.0" encoding="utf-8"?>
<!-- Generator: Adobe Illustrator 16.0.0, SVG Export Plug-In . SVG Version: 6.00 Build 0)  -->
<!DOCTYPE svg PUBLIC "-//W3C//DTD SVG 1.1//EN" "http://www.w3.org/Graphics/SVG/1.1/DTD/svg11.dtd">
<svg version="1.1" id="Layer_1" xmlns="http://www.w3.org/2000/svg" xmlns:xlink="http://www.w3.org/1999/xlink" x="0px" y="0px"
	 width="190.513px" height="108.333px" viewBox="0 0 190.513 108.333" enable-background="new 0 0 190.513 108.333"
	 xml:space="preserve">
<g>
	<path fill-rule="evenodd" clip-rule="evenodd" fill="#C1D9D1" d="M153.996,53.552c-6.117-1.99-0.148-12.668-5.205-14.762
		c-2.384-0.988-3.649,2.736-5.474,1.824c-4.562-0.914-1.825-6.387-2.737-10.035c0-1.826-0.912-2.738-2.736-1.826
		c-0.913-2.736,3.648-1.824,2.731-4.561c-1.593-2.281-3.474-4.105-5.555-5.588c-2.082-1.482-4.361-2.623-6.757-3.535
		c-5.018-0.912-7.825-9.01-15.054-3.65c-2.317,1.719,2.737,6.387-0.915,8.211c-2.285,0.912-4.104-0.684-5.927-2.279
		c-1.824-1.598-3.649-3.193-5.931-2.281c-0.912,0.912-0.912,2.736-1.825,3.648c-1.823-2.281-4.048-3.535-6.485-4.049
		c-7.312-1.539-16.985,3.006-22.708,7.697c-0.998,0.818,0.617,3.568-0.912,4.562c-3.768,2.449-6.158,0.684-8.082,3.992
		c-1.925,3.307-3.722,7.412-7.313,8.781c-2.167,1.596-3.299-2.891-7.412,2.736c-1.077,1.473,0,5.473-2.738,7.299
		c-0.911,0.912-2.736,0.912-3.648,1.824c-0.912,1.824,1.824,3.65,1.824,5.475c-0.912,0.912-2.736,0.912-3.649,0.912
		c-1.824,2.736-1.596,4.561-0.341,5.93c1.254,1.367,3.535,2.281,5.814,3.193c-1.824,1.824-2.736,3.65-1.824,5.475
		c1.824,3.191,3.649,5.473,4.904,7.867c1.255,2.396-3.271,3.801,1.482,8.553c3.799,3.799,6.387,1.826,9.123,4.562
		c1.824,1.824,3.648,0.912,5.475,0.912c3.649,0,10.864,5.297,17.484-2.248c4.213-7.365,3.094,10.342,18.604,5.779
		c7.38-5.26,23.212-6.268,24.125-9.916c-1.411,6.738,7.493,1.996,8.406,1.996c5.521-4.221-9.319-10.209-2.933-14.77
		c3.649-1.824,5.474,3.648,8.211,3.648c0.912,0,0.912-2.736,1.825-3.648c4.561-1.824,8.21-3.65,8.21-9.123
		c1.825,0.912,2.737,0.912,4.562,0c4.562-3.65-4.562-4.562,2.276-7.936C154.112,56.97,154.821,55.456,153.996,53.552z"/>
	<path fill="#FFFFFF" d="M114.249,32.405c-0.153,0-0.304,0.023-0.448,0.061c0.019-0.098,0.029-0.197,0.029-0.299
		c0-0.857-0.634-1.561-1.459-1.678c0-0.008,0.002-0.012,0.002-0.02c0-1.068-0.867-1.936-1.937-1.936
		c-0.822,0-1.523,0.514-1.805,1.238c-0.168-0.061-0.349-0.096-0.538-0.096c-0.584,0-1.093,0.314-1.368,0.785
		c-0.329-0.246-0.736-0.393-1.179-0.393c-0.928,0-1.704,0.639-1.92,1.5c-0.02-0.002-0.041-0.004-0.062-0.004
		c-1,0-1.812,0.811-1.812,1.812c0,1,0.812,1.811,1.812,1.811c0.059,0,0.116-0.002,0.174-0.008c-0.011,0.074-0.016,0.148-0.016,0.227
		c0,1.02,0.826,1.846,1.845,1.846c0.678,0,1.271-0.369,1.59-0.914c0.113,0.021,0.229,0.033,0.348,0.033
		c0.581,0,1.103-0.252,1.466-0.65c0.163,0.039,0.334,0.064,0.51,0.064c0.155,0,0.31-0.018,0.456-0.049
		c0.256,0.617,0.864,1.053,1.576,1.053c0.783,0,1.442-0.529,1.643-1.248c0.301,0.238,0.68,0.383,1.093,0.383
		c0.972,0,1.76-0.789,1.76-1.76S115.22,32.405,114.249,32.405z"/>
	<path fill="#FFFFFF" d="M78.672,29.737c-0.211-1.529-2.105-2.725-4.411-2.725c-0.525,0-1.028,0.064-1.497,0.178
		c-0.693-0.812-1.984-1.359-3.469-1.359c-1.287,0-2.43,0.414-3.164,1.053c-0.538-0.23-1.174-0.367-1.857-0.367
		c-1.826,0-3.321,0.957-3.464,2.172c-2.022,0.004-3.661,1.119-3.661,2.492c0,1.115,1.077,2.059,2.562,2.377
		c0.354,1.018,1.694,1.775,3.301,1.775c0.119,0,0.236-0.004,0.353-0.012c0.528,0.799,1.708,1.357,3.083,1.357
		c0.907,0,1.728-0.244,2.334-0.639c0.347,0.082,0.718,0.127,1.104,0.127c0.807,0,1.548-0.191,2.134-0.508
		c0.68,0.379,1.549,0.607,2.496,0.607c1.487,0,2.781-0.562,3.448-1.387c0.038,0,0.076,0.004,0.114,0.004
		c2.108,0,3.817-1.16,3.817-2.592C81.895,30.999,80.498,29.931,78.672,29.737z"/>
	<path fill="#FFFFFF" d="M119.867,30.835c-0.155,0-0.305,0.023-0.448,0.061c0.018-0.098,0.028-0.197,0.028-0.299
		c0-0.855-0.636-1.562-1.459-1.68c0-0.004,0.001-0.01,0.001-0.018c0-1.068-0.866-1.936-1.936-1.936
		c-0.823,0-1.523,0.514-1.805,1.236c-0.168-0.061-0.349-0.094-0.538-0.094c-0.583,0-1.093,0.314-1.368,0.785
		c-0.329-0.246-0.736-0.393-1.179-0.393c-0.928,0-1.704,0.639-1.92,1.5c-0.021-0.002-0.041-0.004-0.062-0.004
		c-1,0-1.812,0.811-1.812,1.811c0,1.002,0.812,1.812,1.812,1.812c0.059,0,0.116-0.002,0.172-0.01
		c-0.008,0.076-0.015,0.15-0.015,0.227c0,1.02,0.826,1.846,1.846,1.846c0.678,0,1.27-0.367,1.59-0.912
		c0.113,0.02,0.229,0.033,0.349,0.033c0.581,0,1.102-0.25,1.465-0.65c0.164,0.039,0.334,0.062,0.51,0.062
		c0.155,0,0.31-0.018,0.456-0.049c0.256,0.619,0.865,1.055,1.576,1.055c0.784,0,1.442-0.529,1.643-1.248
		c0.301,0.238,0.68,0.381,1.094,0.381c0.971,0,1.759-0.787,1.759-1.758S120.837,30.835,119.867,30.835z"/>
	<path fill="#FFFFFF" d="M115.442,28.046c-0.156,0-0.305,0.023-0.448,0.062c0.018-0.1,0.027-0.197,0.027-0.301
		c0-0.855-0.634-1.562-1.457-1.678c0-0.006,0.001-0.014,0.001-0.018c0-1.07-0.867-1.938-1.937-1.938
		c-0.822,0-1.523,0.514-1.804,1.238c-0.168-0.061-0.349-0.096-0.539-0.096c-0.583,0-1.092,0.314-1.367,0.785
		c-0.331-0.244-0.737-0.391-1.179-0.391c-0.929,0-1.704,0.639-1.921,1.498c-0.021,0-0.041-0.004-0.062-0.004
		c-1.001,0-1.811,0.812-1.811,1.812s0.81,1.811,1.811,1.811c0.058,0,0.116-0.004,0.173-0.008c-0.01,0.074-0.015,0.148-0.015,0.227
		c0,1.02,0.825,1.846,1.846,1.846c0.678,0,1.269-0.367,1.59-0.912c0.112,0.02,0.229,0.031,0.347,0.031
		c0.581,0,1.104-0.25,1.466-0.648c0.163,0.039,0.334,0.062,0.51,0.062c0.156,0,0.308-0.018,0.456-0.049
		c0.256,0.617,0.865,1.055,1.576,1.055c0.784,0,1.442-0.531,1.643-1.25c0.3,0.238,0.681,0.381,1.094,0.381
		c0.971,0,1.759-0.785,1.759-1.758C117.201,28.835,116.413,28.046,115.442,28.046z"/>
	<path fill="#FFFFFF" d="M88.736,31.112c0,0,1.994-0.383,2.49-0.357c0.494,0.027,1.59,0.586,3.158,0.357
		c1.569-0.229,2.678-0.221,3.009-0.217c0.332,0,1.441-0.064,2.402,0.271s3.256-0.791,3.242,0.271c-0.012,1.061-0.281,4.152,0,5.242
		c0.282,1.088-0.036,3.135-0.03,3.867c0.007,0.736,1.273,10.975,0.873,11.967c-0.401,0.994-0.35,9.396-0.776,10.086
		c-0.425,0.689,0.017,3.525,0.017,3.525s-3.477,1.016-4.692,0.979c-1.214-0.037-2.702,0.463-5.032-0.186
		c-2.329-0.65-4.455-0.291-4.793,0.027c-0.338,0.316,0.409-2.303,0-2.676c-0.41-0.377-0.243-3.408-0.092-4.029
		c0.153-0.619-1.224-2.24-0.456-3.301c0.77-1.062,1.57-1.945,1.65-2.801c0.081-0.859-0.083-3.055-0.721-3.826
		c-0.638-0.768-0.871-2.051-0.718-3.107s-0.194-2.102,0.262-2.676c0.456-0.572,0.696-2.455,0.536-3.424
		c-0.161-0.969-0.684-0.371-0.752-1.799c-0.069-1.428-0.792-0.949-0.492-2.695s-0.314-1.137,0.306-2.168
		C88.745,33.415,88.736,31.112,88.736,31.112z"/>
	<path fill-rule="evenodd" clip-rule="evenodd" fill="#FFFFFF" d="M82.185,71.269c0,0,0.547-0.279,0.709-0.184
		c0.163,0.094,1.277,0.164,1.597,0.082s0.509-0.32,1.077-0.32s2.068-0.285,2.367,0c0.298,0.285,0.671,0.367,0.997,0.422
		c0.326,0.053,1.137-0.316,1.421-0.275c0.285,0.043,0.914-0.395,1.167-0.273c0.253,0.119,1.323-0.064,1.76,0.125
		c0.437,0.191,2.034-0.004,2.034,0.141c0,0.146,0.781-0.139,1.486-0.139c0.706,0,0.755-0.053,1.726,0.139
		c0.97,0.193,0.805,0.193,1.812,0.289c1.005,0.094,1.563-0.049,1.812,0c0.247,0.047,0.854-0.4,1.563-0.271s0.189-0.129,1.23,0
		c1.042,0.129,1.326,0.242,2.559,0.303c1.232,0.062,1.407-0.316,2.18,0.441c0.771,0.758,0.202,2.18,0,3.316
		c-0.204,1.137-0.617,0.711-0.522,2.18c0.096,1.469,0.928,3.553,0.914,3.695c-0.014,0.141-3.377,0.805-4.703,0.662
		s-3.223-0.168-3.838-0.227c-0.615-0.057-1.373,0.01-2.321,0c-0.946-0.012-2.591-0.035-4.469,0c-1.878,0.037-3.157,0.105-4.957,0
		c-1.801-0.105-3.316-0.465-4.454-0.465c-1.136,0-1.985,0-2.408,0s-1.522-0.256-1.475-0.541c0.046-0.283-0.284-1.93-0.236-2.838
		c0.047-0.906,0.226-1.377,0.587-2.324c0.359-0.947,0.407-2.322,0.359-2.605C82.11,72.315,82.185,71.269,82.185,71.269z"/>
	<path fill="#A4D2EB" d="M95.327,39.817v-2.131c0,0,0.568-0.426,0.948-0.426c0.379,0,1.657-0.143,1.941-0.049
		c0.284,0.096,1.232,0.096,1.422,0.475c0.189,0.381,1.138,1.043,1.138,1.043s0.377,0.662,0.283,1.516s-0.473,1.895-0.379,2.795
		c0.096,0.898,0.189,6.824,0.189,6.824s-0.672,0.793-1.574,0.893c-0.901,0.1-1.779,0.684-2.495,0.652
		c-0.716-0.033-1.037,0.631-1.161,0.488c-0.123-0.141,0.238-2.273,1.267-2.652c1.026-0.379,1.278-0.539,1.295-1.359
		c0.016-0.818,0.016-1.01-0.221-1.15c-0.237-0.143,0.236,0.141-0.237-0.143s-0.558-0.736-0.942-0.889
		c-0.384-0.154-0.938-1.385-0.78-1.859c0.159-0.473,0.032-1.086,0-1.324c-0.03-0.238-0.233-0.461-0.369-1.037
		c-0.135-0.576-0.561-1.002-0.324-1.381C95.565,39.724,95.327,39.817,95.327,39.817z"/>
	<path fill-rule="evenodd" clip-rule="evenodd" fill="#A4D2EB" d="M74.992,49.218c0,0,0.719-0.562,0.961-0.354
		c0.33,0.287,0.964,0.209,1.523,0.105c0.561-0.104,1.143-0.094,1.446-0.18c0.305-0.086,0.535-0.213,1.104,0.074
		s1.143,0.088,1.756,0.354c0.612,0.266,1.37,0.217,1.608,0.217c0.236,0,1.704-0.465,1.704-0.465s0.237-0.039,0.616,0
		s0.426-0.086,0.853,0s0.852-0.135,1.138,0.092s0.616,0.658,0.899,1.369c0.285,0.711-0.439,1.896-0.427,2.463
		s0.011,0.406,0.026,1.268c0.015,0.861,0.019,0.34,0.025,1.479c0.008,1.139,0.008,0.982,0.008,1.605s0,0.119,0,0.986
		s-0.248-1.027-0.343,1.484c-0.096,2.51-0.154,3.748,0.094,3.98c0.249,0.234-0.071-0.129,0.249,0.953
		c0.319,1.082,0.225,2.029,0.225,2.029s-6.629,0.521-7.743,0.426c-1.115-0.094-3.217-0.332-3.374,0.379s-0.197,1.66-0.086,2.322
		c0.109,0.662,0.975,2.795,0.975,3.363c0.001,0.568,0.091,7.863-0.24,8.1c-0.331,0.238-2.463,0-2.463,0s0.806-3.174,0.852-3.6
		c0.048-0.426,0.237-3.6,0.048-4.404c-0.188-0.807-1.137-3.223-1.137-3.791s-0.453-0.475-0.25-1.801s-0.082-1.09,0.25-2.416
		s0.568-0.047,0.379-2.225c-0.189-2.182-0.236-2.607-0.284-3.27c-0.047-0.664-0.392-0.996-0.356-1.967
		c0.033-0.973-0.012-0.781-0.04-1.492c-0.03-0.711-0.113-2.084,0-2.605c0.112-0.521,0.118-0.6,0.234-2.289"/>
	<path fill="#505763" d="M131.977,37.755c-1.445,0.068-1.952,0.996-2.76,2.094c-1.374-0.781-2.311-1.5-4.151-1.094
		c-1.064,0.238-2.924,1.203-3.034,2.406c1.901-2.219,5.549-2.311,7.337-0.09l0.019,0.068c0.003-0.012,0.007-0.021,0.011-0.035
		c0.009,0.01,0.018,0.02,0.026,0.031l-0.001-0.109c0.77-2.557,3.442-3.367,5.38-1.713C134.42,38.183,132.82,37.718,131.977,37.755"
		/>
	<path fill="#505763" d="M134.821,46.966c-0.981,0.047-1.327,0.678-1.875,1.422c-0.933-0.529-1.569-1.02-2.82-0.742
		c-0.724,0.162-1.987,0.818-2.062,1.635c1.292-1.508,3.771-1.57,4.984-0.061l0.013,0.045c0.003-0.008,0.006-0.014,0.007-0.021
		c0.007,0.006,0.013,0.012,0.019,0.02v-0.074c0.521-1.736,2.339-2.287,3.655-1.164C136.48,47.257,135.393,46.94,134.821,46.966"/>
	<path fill="#FFFFFF" d="M103.893,78.587l1.8,0.689l1.537,0.891l0.604,1.064l-3.941,0.629
		C103.893,81.86,102.371,79.993,103.893,78.587z"/>
	<path fill="#FFFFFF" d="M118.446,42.235c-2.171-0.35-4.002-0.35-5.669,0c-1.575-0.252-2.688-0.244-3.02-0.24
		c-0.334,0.004-1.446-0.07-2.411,0.299c-0.964,0.369-3.268-0.867-3.254,0.297c0.013,1.166,0.282,4.561,0,5.758
		c-0.283,1.195,0.036,3.443,0.03,4.25c-0.006,0.809-1.277,12.053-0.875,13.145s0.351,10.32,0.778,11.076
		c0.427,0.756-0.017,3.875-0.017,3.875s3.489,1.113,4.709,1.07c1.217-0.041,2.712,0.51,5.05-0.203
		c1.592-0.305,3.423-0.305,5.254-0.305c-0.915-11.902-0.915-23.805,0.036-35.363C118.437,44.763,118.446,42.235,118.446,42.235z"/>
	<path fill="#B8B2D8" d="M117.232,43.653c0,0-1.756-0.354-2.192-0.33c-0.435,0.023-1.397,0.543-2.777,0.33
		c-1.381-0.213-2.356-0.205-2.647-0.201c-0.292,0.002-1.268-0.061-2.114,0.252c-0.845,0.312-2.863-0.734-2.852,0.252
		c0.011,0.986,0.247,3.861,0,4.875c-0.248,1.014,0.032,2.916,0.027,3.6c-0.006,0.684-1.12,10.205-0.768,11.129
		s0.308,8.738,0.682,9.379c0.374,0.639-0.015,3.279-0.015,3.279s3.06,0.941,4.128,0.908c1.067-0.035,2.378,0.432,4.428-0.174
		c2.049-0.604,3.919-0.268,4.218,0.027c0.297,0.293-0.361-2.141,0-2.49c0.359-0.348,0.213-3.168,0.079-3.746
		c-0.134-0.576,1.077-2.082,0.401-3.07c-0.677-0.986-1.381-1.807-1.452-2.605c-0.07-0.797,0.073-2.84,0.635-3.555
		c0.561-0.717,0.766-1.91,0.632-2.893c-0.135-0.982,0.17-1.955-0.23-2.486c-0.401-0.533-0.613-2.285-0.473-3.186
		c0.142-0.902,0.602-0.346,0.662-1.674c0.062-1.328,0.696-0.883,0.433-2.506c-0.264-1.625,0.276-1.059-0.268-2.016
		C117.223,45.794,117.232,43.653,117.232,43.653z"/>
	<g>
		<path fill="#D89F5B" d="M96.984,81.345c0.074-0.02,0.147-0.035,0.22-0.047c0.98-0.152,1.902,0.266,2.866-1.396
			c1.036-1.787,0.958-2.201,1.535-2.445c0.578-0.246,3.27-0.477,3.81-0.275c0.54,0.203,2.18,1.275,2.18,1.275
			s0.026,1.002,0.565,1.445c0.539,0.445,1.229,0.344,2.029,0.688c0.802,0.342,0.925-0.17,1.501,0.652
			c0.575,0.822,0.965,1.582,0.965,1.582s-0.355,1.205-1.078,1.598c-0.723,0.391-0.654,1.529-1.452,1.453
			c-0.797-0.076-4.202-0.324-4.701-0.4c-0.499-0.078-0.642,0.115-1.493-0.096c-0.852-0.213,1.101-0.557-0.852-0.213
			c-1.951,0.344-1.951,0.344-1.951,0.344s-0.063,0.732-1.167,0.369s-1.102-0.713-1.102-0.713s-0.344-0.229-0.572-0.686"/>
		<g id="BLpNvC.tif_5_">
			<g>
				<path fill="#757F92" d="M99.988,86.886c-0.799,0-1.467-0.33-1.931-0.955c-0.066-0.09-0.13-0.186-0.188-0.289
					c-1.647-0.432-1.619-2.016-1.597-3.295c0.006-0.34,0.012-0.674-0.01-0.982c-0.001-0.209,0.083-0.387,0.248-0.551
					c0.389-0.324,0.802-0.447,1.241-0.58c0.208-0.064,0.397-0.125,0.579-0.188c0.328-0.277,0.606-0.686,0.901-1.117
					c0.208-0.303,0.422-0.619,0.688-0.906l0.256-0.33c0.207-0.26,0.574-0.449,0.895-0.463c0.321-0.014,0.674-0.02,1.112-0.02
					l0.854,0.004l0.26-0.025l1.298,0.008c0.28,0,0.51-0.004,0.723-0.014l0.097-0.002c0.564,0,1.057,0.209,1.508,0.637l0.672,0.639
					c0.458,0.488,0.938,0.988,1.461,1.41c0.127,0.104,0.258,0.203,0.392,0.295c0.623,0.389,1.386,0.797,2.245,0.805l0.634,0.16
					c0.244,0.066,0.457,0.189,0.598,0.346c0.118,0.133,0.317,0.398,0.337,0.713c0.014,0.219,0.01,0.438,0.005,0.652
					c-0.006,0.246-0.011,0.471,0.014,0.695c0.083,0.752-0.307,1.232-0.699,1.604c-0.094,0.09-0.177,0.199-0.233,0.314
					c-0.463,0.916-1.212,1.414-2.166,1.436h-0.003c-0.849,0-1.508-0.326-1.972-0.941c-0.093-0.123-0.178-0.26-0.255-0.408
					l-0.456,0.002c-0.167,0.021-0.371,0.029-0.582,0.029c-0.479,0-0.993-0.047-1.489-0.094c-0.497-0.049-1.012-0.096-1.493-0.096
					c-1.099,0-1.8,0.264-2.273,0.854c-0.136,0.131-0.253,0.223-0.376,0.299c-0.371,0.234-0.803,0.354-1.283,0.355H99.988z
					 M97.871,84.659c0.336,0.002,0.566,0.15,0.725,0.467c0.075,0.146,0.164,0.277,0.262,0.389c0.289,0.328,0.659,0.488,1.131,0.488
					c0.481-0.002,0.853-0.164,1.14-0.494c0.099-0.113,0.188-0.248,0.265-0.396l0.04-0.078l0.077-0.041
					c0.613-0.32,1.35-0.471,2.319-0.471c0.509,0,1.03,0.039,1.551,0.08c0.503,0.037,1.003,0.076,1.485,0.076
					c0.205,0,0.406-0.008,0.604-0.023c0.077-0.031,0.2-0.051,0.32-0.051c0.047,0,0.092,0.002,0.136,0.01
					c0.444,0.059,0.706,0.398,0.938,0.699c0.148,0.193,0.289,0.377,0.465,0.484c0.117,0.07,0.244,0.123,0.378,0.156
					c0.127,0.031,0.267,0.047,0.414,0.047c0.511-0.01,0.878-0.184,1.165-0.527c0.099-0.119,0.19-0.262,0.271-0.422
					c0.103-0.205,0.246-0.398,0.415-0.559c0.178-0.168,0.287-0.301,0.353-0.426c0.069-0.135,0.094-0.273,0.076-0.438
					c-0.016-0.139-0.021-0.279-0.023-0.418c-0.001-0.133,0.002-0.266,0.004-0.395c0.005-0.191,0.009-0.387-0.004-0.576
					c-0.003-0.021-0.035-0.094-0.111-0.178c-0.011-0.014-0.066-0.055-0.172-0.084l-0.119-0.027c-1.053-0.25-2.046-0.486-2.994-1.072
					c-0.156-0.102-0.304-0.205-0.447-0.314c-0.145-0.109-0.285-0.223-0.423-0.342c0.109,0.193,0.199,0.391,0.265,0.586
					c0.051,0.094,0.035,0.254-0.056,0.402c-0.11,0.18-0.3,0.295-0.484,0.295c-0.093-0.008-0.154-0.012-0.216-0.012
					c-0.164,0-0.323,0.02-0.479,0.037c-0.173,0.021-0.343,0.041-0.514,0.041c-0.079,0-0.159-0.004-0.239-0.014
					c-0.138,0.014-0.335,0.027-0.54,0.035c-0.134,0.004-0.274,0.016-0.418,0.025c-0.214,0.016-0.434,0.031-0.64,0.031
					c-0.361,0-0.812-0.041-1.078-0.354c-0.296-0.293-0.226-0.801-0.158-1.291c0.033-0.246,0.069-0.502,0.058-0.725
					c0.007-0.408,0.007-0.695,0.007-0.695v-0.275l0.922-0.002c0.115-0.023,0.271-0.035,0.427-0.035c0.58,0,1.132,0.168,1.62,0.441
					l-0.257-0.242c-0.303-0.287-0.58-0.406-0.915-0.406c-0.284,0.01-0.525,0.014-0.819,0.014l-0.713-0.004l-0.252,0.023
					l-1.447-0.006c-0.424,0-0.766,0.006-1.077,0.02c-0.058,0.002-0.187,0.066-0.236,0.129c-0.312,0.312-0.548,0.67-0.799,1.049
					c-0.377,0.572-0.768,1.164-1.389,1.564l-0.429,0.148l-0.206,0.066c-0.109,0.064-0.281,0.109-0.435,0.148
					c-0.245,0.062-0.349,0.1-0.357,0.164c-0.015,0.152-0.038,0.334-0.062,0.527C97.021,83.247,96.953,84.38,97.871,84.659z
					 M104.411,80.683c0.197,0.012,0.394,0.018,0.589,0.018H105c0.487,0,0.968-0.033,1.448-0.066
					c0.271-0.018,0.542-0.037,0.814-0.049c-0.064-0.062-0.128-0.127-0.193-0.191c-0.634-0.623-1.291-1.268-1.953-1.268
					c-0.22,0-0.436,0.07-0.657,0.213c-0.081,0.102-0.065,0.594-0.056,0.859c0.005,0.148,0.01,0.295,0.008,0.428L104.411,80.683z
					 M99.96,85.878c-0.368-0.002-0.731-0.16-1.006-0.443c-0.137-0.141-0.243-0.301-0.314-0.475c-0.15-0.389-0.134-0.822,0.042-1.197
					c0.16-0.336,0.432-0.584,0.767-0.695c0.153-0.066,0.343-0.105,0.539-0.105c0.599,0.002,1.138,0.367,1.344,0.906
					c0.071,0.174,0.108,0.365,0.107,0.561c-0.005,0.801-0.654,1.451-1.446,1.451L99.96,85.878z M99.99,83.845
					c-0.149,0-0.291,0.061-0.398,0.166c-0.108,0.109-0.17,0.254-0.171,0.406c-0.002,0.146,0.057,0.289,0.167,0.4
					c0.109,0.113,0.25,0.176,0.399,0.178c0.303,0,0.565-0.268,0.567-0.57c0.001-0.154-0.058-0.299-0.164-0.41
					c-0.105-0.107-0.247-0.168-0.397-0.17l-0.003-0.273V83.845z M110.125,85.874c-0.479-0.002-0.937-0.25-1.225-0.66
					c-0.291-0.416-0.367-0.936-0.205-1.389c0.064-0.268,0.217-0.486,0.485-0.688c0.128-0.133,0.361-0.223,0.612-0.223
					c0,0,0.294-0.014,0.364-0.014c0.124,0,0.309,0.01,0.485,0.098c0.568,0.283,0.935,0.842,0.935,1.422
					c0,0.369-0.158,0.629-0.312,0.877l-0.062,0.102c-0.143,0.154-0.264,0.217-0.36,0.268c-0.041,0.021-0.083,0.043-0.117,0.066
					c-0.225,0.102-0.411,0.141-0.599,0.141H110.125z M109.996,83.774c-0.205,0-0.328,0.121-0.395,0.225
					c-0.114,0.176-0.14,0.414-0.061,0.59c0.142,0.232,0.254,0.365,0.465,0.398c0.059,0.014,0.092,0.02,0.124,0.02
					c0.074,0,0.145-0.027,0.237-0.088l0.253-0.26c0.088-0.246,0.029-0.504-0.162-0.693c-0.119-0.119-0.275-0.188-0.429-0.191
					l-0.033-0.275V83.774z M100.453,81.632c-0.295,0-0.499-0.031-0.66-0.105c-0.257-0.117-0.398-0.342-0.398-0.631
					c0.058-0.869,0.704-1.502,1.273-2.061l0.205-0.201c0.281-0.324,0.674-0.365,0.983-0.365c0.119,0,0.243,0.006,0.365,0.014
					c0.112,0.008,0.224,0.014,0.333,0.014l0.58-0.004l-0.002,0.957c0,0.164,0.014,0.334,0.028,0.5
					c0.02,0.211,0.033,0.371,0.04,0.525c0.02,0.197,0.034,0.725-0.272,1.062c-0.155,0.17-0.366,0.26-0.611,0.26h-0.365
					c-0.108,0-0.216,0.002-0.311,0.014c-0.138,0.01-0.259,0.016-0.378,0.018c-0.096-0.008-0.158-0.01-0.226-0.01
					C100.954,81.618,100.557,81.632,100.453,81.632z M100.35,80.731c0.159,0.025,0.332,0.037,0.528,0.037
					c0.27,0,0.541-0.021,0.811-0.045c0.19-0.016,0.379-0.031,0.566-0.039c0.007-0.123,0.017-0.252,0.027-0.383
					c0.027-0.322,0.077-0.924-0.027-1.023c-0.154-0.113-0.286-0.166-0.412-0.166c-0.434,0-0.854,0.646-1.226,1.217
					C100.527,80.468,100.438,80.604,100.35,80.731z"/>
				<g>
					<path fill="#757F92" d="M99.988,83.237c-0.153,0-0.308,0.029-0.452,0.092c-0.594,0.195-0.874,0.924-0.641,1.527
						c0.058,0.141,0.145,0.273,0.256,0.387c0.224,0.23,0.519,0.357,0.829,0.361h0.013c0.642,0,1.167-0.527,1.172-1.178
						c0.001-0.162-0.031-0.318-0.09-0.461C100.901,83.511,100.449,83.237,99.988,83.237z M99.993,85.269h-0.01
						c-0.221-0.002-0.432-0.094-0.593-0.26c-0.16-0.164-0.247-0.375-0.244-0.596c0.002-0.232,0.099-0.443,0.252-0.596
						c0.151-0.152,0.362-0.246,0.592-0.246h0.006c0.231,0.002,0.44,0.098,0.591,0.252c0.15,0.156,0.244,0.367,0.242,0.602
						C100.826,84.882,100.443,85.269,99.993,85.269z"/>
					<path fill="#757F92" d="M112.991,82.831c0.004-0.207,0.009-0.418-0.005-0.629c-0.015-0.242-0.192-0.463-0.267-0.547
						c-0.104-0.115-0.274-0.213-0.467-0.264c-0.187-0.051-0.375-0.102-0.562-0.15c-0.891-0.01-1.674-0.4-2.399-0.854
						c-0.14-0.098-0.275-0.201-0.407-0.309c-0.532-0.428-1.016-0.932-1.478-1.424c-0.222-0.211-0.439-0.418-0.655-0.623
						l-0.019-0.016c-0.396-0.377-0.827-0.561-1.317-0.561c-0.028,0-0.056,0-0.085,0.002c-0.217,0.008-0.45,0.014-0.734,0.014
						c-0.188,0-0.376-0.002-0.564-0.004c-0.189-0.002-0.378-0.004-0.567-0.004h-0.166v0.027c-0.157-0.002-0.315-0.002-0.474-0.004
						c-0.213-0.002-0.427-0.002-0.641-0.002c-0.434,0-0.783,0.006-1.101,0.02c-0.239,0.01-0.536,0.164-0.69,0.357
						c-0.091,0.115-0.18,0.23-0.27,0.346c-0.622,0.674-0.957,1.514-1.701,2.098c-0.185,0.062-0.376,0.123-0.562,0.184
						c-0.429,0.127-0.82,0.24-1.155,0.52c-0.112,0.111-0.168,0.223-0.168,0.336c0.111,1.51-0.448,3.635,1.518,4.059
						c0.065,0.131,0.141,0.252,0.224,0.363c0.412,0.555,0.995,0.846,1.71,0.846h0.009c0.431-0.002,0.812-0.109,1.139-0.314
						c0.108-0.068,0.211-0.146,0.307-0.238c1.359-1.695,4.1-0.576,6.053-0.795c0.158,0,0.315-0.002,0.472-0.002
						c0.124,0,0.163,0.023,0.228,0.146c0.07,0.135,0.147,0.258,0.232,0.371c0.422,0.561,1.019,0.848,1.748,0.83
						c0.858-0.02,1.506-0.451,1.927-1.285c0.071-0.141,0.174-0.279,0.289-0.389c0.36-0.342,0.686-0.744,0.615-1.375
						C112.98,83.323,112.985,83.085,112.991,82.831z M112.568,84.192c-0.091,0.176-0.23,0.334-0.408,0.5
						c-0.145,0.137-0.269,0.303-0.358,0.482c-0.091,0.182-0.193,0.34-0.306,0.475c-0.34,0.408-0.778,0.613-1.33,0.627
						c-0.187,0.002-0.361-0.016-0.525-0.057c-0.164-0.039-0.315-0.104-0.456-0.188c-0.519-0.318-0.722-1.07-1.297-1.146
						c-0.116-0.018-0.245-0.004-0.396,0.043c-1.894,0.162-4.188-0.564-5.855,0.309c-0.088,0.172-0.189,0.322-0.302,0.451
						c-0.338,0.389-0.787,0.586-1.339,0.588h-0.008c-0.55,0-0.998-0.195-1.337-0.58c-0.112-0.129-0.214-0.277-0.301-0.447
						c-0.114-0.229-0.257-0.318-0.499-0.316h-0.019c-1.464-0.4-0.961-2.414-0.849-3.588c0.056-0.393,0.615-0.336,0.979-0.535
						c0.188-0.061,0.382-0.121,0.57-0.184c0.968-0.625,1.359-1.799,2.122-2.555c0.096-0.119,0.297-0.227,0.44-0.232
						c0.314-0.012,0.659-0.018,1.088-0.018c0.213,0,0.426,0,0.64,0.002c0.213,0.002,0.427,0.002,0.641,0.002h0.167V77.8
						c0.133,0,0.265,0.002,0.397,0.002c0.189,0.002,0.378,0.004,0.567,0.004c0.289,0,0.526-0.004,0.749-0.014
						c0.438-0.018,0.802,0.129,1.157,0.467l0.019,0.018c0.107,0.104,0.216,0.205,0.325,0.309c0.485,0.354,0.821,0.969,1.314,1.316
						c0.174,0.156,0.354,0.305,0.539,0.445c0.139,0.105,0.28,0.205,0.426,0.299c0.947,0.586,1.954,0.811,3.04,1.068
						c0.13,0.035,0.244,0.098,0.306,0.166c0.105,0.117,0.175,0.25,0.181,0.344c0.013,0.197,0.009,0.4,0.004,0.6
						c-0.002,0.127-0.005,0.256-0.004,0.385c0.002,0.131,0.007,0.262,0.021,0.391C112.698,83.829,112.658,84.019,112.568,84.192z"/>
					<path fill="#757F92" d="M110.519,83.245c-0.224-0.111-0.503-0.055-0.727-0.055c-0.168,0-0.336,0.055-0.447,0.166
						c-0.225,0.168-0.336,0.336-0.392,0.561c-0.28,0.783,0.335,1.678,1.173,1.684c0.152,0,0.304-0.033,0.444-0.096
						c0.116-0.078,0.283-0.135,0.396-0.246c0.167-0.279,0.335-0.504,0.335-0.838C111.302,83.917,110.967,83.47,110.519,83.245z
						 M110.854,84.812c-0.111,0.111-0.223,0.225-0.335,0.336c-0.168,0.111-0.335,0.168-0.559,0.111
						c-0.336-0.055-0.504-0.279-0.672-0.559c-0.224-0.504,0.112-1.23,0.746-1.199c0.232,0.004,0.452,0.107,0.617,0.27
						C110.911,84.028,111.023,84.421,110.854,84.812z"/>
					<path fill="#757F92" d="M104.542,78.583c-0.16,0.002-0.321,0.004-0.481,0.004h-0.168c0,0,0,0.289-0.008,0.682
						c0.034,0.678-0.301,1.516,0.034,1.852c0.335,0.391,1.23,0.225,1.917,0.199c0.202-0.008,0.397-0.02,0.585-0.031
						c0.462,0.057,0.909-0.111,1.413-0.057c0.168,0,0.336-0.223,0.279-0.336C107.667,79.554,106.101,78.323,104.542,78.583z
						 M104.125,80.935c0,0,0.004-0.123,0.012-0.312c0.006-0.564-0.106-1.404,0.174-1.516c1.398-0.895,2.517,0.783,3.636,1.734
						C106.66,80.841,105.429,81.065,104.125,80.935z"/>
					<path fill="#757F92" d="M102.886,79.772c-0.015-0.174-0.028-0.35-0.028-0.523c0.002-0.393,0.002-0.682,0.002-0.682h-0.168
						c-0.562,0.035-1.233-0.188-1.625,0.26c-0.615,0.615-1.342,1.23-1.398,2.068c0,0.672,1.062,0.393,1.588,0.459
						c0.116-0.004,0.233-0.01,0.352-0.016c0.205-0.025,0.462-0.01,0.68-0.018c0.568,0.023,0.682-0.592,0.639-1.035
						C102.919,80.12,102.903,79.946,102.886,79.772z M102.521,80.952c-0.839,0-1.733,0.225-2.566-0.029
						c-0.001-0.047,0.028-0.15,0.076-0.219c0.645-0.869,1.315-2.436,2.379-1.652C102.745,79.274,102.521,80.28,102.521,80.952z"/>
				</g>
			</g>
		</g>
	</g>
	<path fill-rule="evenodd" clip-rule="evenodd" fill="#FFFFFF" d="M62.024,48.685c3.388-0.381,5.463-0.561,9.315-0.561
		c0,10.336,1.778,22.574,0.09,33.77c-4.686,0.787-11.65,2.494-11.65-2.762c0.836-10.697,0.797-18.762,1.048-27.496
		C60.258,51.054,62.024,48.685,62.024,48.685z"/>
	<path fill-rule="evenodd" clip-rule="evenodd" fill="#DCCDC0" d="M62.129,50.308c0,0,1.032-0.629,1.6-0.443
		c0.568,0.188,2.607,0,2.607,0l2.32,0.443h0.758c0,0,1.518-0.697,1.08-0.238c-0.437,0.459,0.158,2.16,0.079,3.203
		c-0.078,1.043-0.481,3.709-0.5,3.973c-0.016,0.262,0.221,1.4-0.016,3.354c-0.236,1.955,0.002,3.072,0.002,3.463
		s0.824,1.842,1.321,2.775c0.497,0.932-1.422,6.209-1.338,6.812c0.084,0.605-0.25,2.041-0.819,2.865
		c-0.567,0.822-0.666,4.043-0.666,4.043s-3.799,0.184-4.923,0c-1.126-0.184-1.905-2.084-1.506-3.031
		c0.399-0.945,0.844-4.736,1.223-5.59c0.377-0.852-0.003-2.379-0.475-3.6c-0.472-1.223-0.314-4.346-0.394-5.395
		c-0.08-1.049-0.425-4.594,0.868-4.648c1.291-0.057,1.076-1.09,1.23-1.895c0.153-0.807-1.633-2.799-2.037-3.316
		C62.14,52.565,62.129,50.308,62.129,50.308z"/>
	<path fill-rule="evenodd" clip-rule="evenodd" fill="#757F92" d="M72.976,81.937c-0.534-0.002-1.035-0.021-1.547-0.043l-0.57-0.023
		c-2.264-0.008-4.594-0.01-7.001-0.01c0,0-3.842,0-4.053,0v-1.324c0.267,0.395,0.517,0.76,0.819,0.76
		c0.506,0,0.581-0.895,0.587-1.859c-0.008-1.17-0.008-4.189-0.008-5.367v-1.572c0-5.516,0-12.047-0.005-17.424
		c0-0.354,0.039-0.514,0.158-0.633c0.08-0.08,0.151-0.186,0.217-0.287c0.058-0.086,0.108-0.16,0.158-0.211
		c0.379-0.373,0.419-0.904,0.408-1.377c-0.017-0.746-0.014-1.48-0.011-2.258l0.003-0.709h3.575v-1.438h1.314v-0.039h1.298v0.006
		h1.287v1.455h0.888l0.001,2.979c0,2.902,0,5.803-0.004,8.705c-0.001,0.334,0.058,0.568,0.196,0.779
		c0.097,0.148,0.188,0.307,0.279,0.463c0.103,0.176,0.205,0.352,0.312,0.516c0.063,0.096,0.104,0.205,0.104,0.459
		c-0.002,1.045-0.004,8.355-0.004,8.355c0.189,1.389,0.225,5.619,0.118,8.041l-0.081-0.002l-0.014,1.334l0.34,0.023
		c0.03-0.234,0.056-0.562,0.08-1.002c0.296,0.01,0.583,0.02,0.878,0.025c0,0.422-0.001,1.479-0.001,1.479h2.247v0.199H72.976z
		 M62.535,73.819c0,0.994-0.012,5.631-0.025,6.555l-0.003,0.301l2.178-0.102l0.004-0.27c0.009-0.5,0.016-2.227,0.022-3.764
		c0.005-0.984,0.01-1.891,0.013-2.35c0.12-0.244,0.136-0.498,0.045-0.723c-0.096-0.234-0.08-0.549-0.058-0.883h0.013l0.013-0.17
		v-0.25l0.006-0.1c0.218-0.25,0.293-0.572,0.212-0.918c-0.078-0.334-0.148-0.699-0.22-1.15l0.002-2.117h-0.222
		c-0.02-0.35-0.034-0.699-0.04-1.051h0.261v-3.398h-0.193l0.037-0.887h0.155V59.11h-0.069c-0.004-0.293-0.011-0.582-0.021-0.873
		h0.095v-1.604c0.066-0.145,0.091-0.293,0.073-0.439l-0.075-0.602l0.002-0.75h-0.073c-0.023-0.33-0.027-0.635-0.01-0.92h0.087
		v-3.389h-2.196v3.389h0.003c-0.016,0.305-0.012,0.623,0.013,0.971l-0.022,0.119v0.947c-0.101,0.168-0.139,0.369-0.115,0.594
		c0.083,0.779,0.131,1.621,0.144,2.566l-0.023,0.16v1.982c-0.016,0.557-0.037,1.117-0.06,1.68c-0.083,2.123-0.168,4.32,0.058,6.451
		v3.191h0.068c-0.019,0.312-0.034,0.633,0.008,0.951h-0.083V73.819z M67.869,76.474c0.005,1.559,0.01,3.271,0.016,3.787l0.003,0.275
		l0.23,0.006c0.588,0.02,1.155,0.043,1.735,0.07l0.255,0.012l-0.005-0.303c0.123-1.1,0.139-4.914,0.024-6.066
		c0.003-0.061-0.005-0.141-0.021-0.223l-0.013-0.074c-0.014-0.113-0.031-0.217-0.05-0.309l-0.018-0.088
		c-0.052-0.318-0.095-0.645-0.129-0.977h0.156l0.002-4.697h-0.206l0.04-1.055h0.171v-3.398h-0.179
		c-0.01-0.162-0.021-0.322-0.033-0.482c-0.011-0.133-0.021-0.266-0.026-0.398h0.236v-3.439h-0.123l0.071-0.891h0.013l0.039-0.17
		v-0.547c0.071-1.061,0.119-2.314-0.054-3.572h0.054v-3.406h-2.205v1.85c-0.173,0.242-0.22,0.541-0.134,0.85
		c0.137,0.492,0.233,1.02,0.295,1.609h-0.159v3.387h0.17c-0.02,0.297-0.04,0.594-0.062,0.891h-0.11v1.516
		c-0.066,1.002-0.123,2.191-0.027,3.324c0.011,0.131,0.019,0.262,0.027,0.391l0.002,2.488h0.03
		c-0.013,0.514-0.034,1.027-0.055,1.541c-0.068,1.672-0.137,3.4,0.07,5.104h-0.044C67.857,73.478,67.866,75.272,67.869,76.474z
		 M65.221,60.942c-0.016,0.045-0.025,0.125-0.027,0.209c-0.009,0.582-0.021,1.166-0.032,1.75c-0.037,1.924-0.075,3.91-0.039,5.859
		c0.01,0.512,0.003,1.049-0.004,1.598c-0.016,1.162-0.03,2.363,0.103,3.498c-0.004,0.414-0.008,1.541-0.013,2.742
		c-0.005,1.525-0.011,3.168-0.017,3.662l-0.004,0.295l0.249-0.006c0.596-0.016,1.174-0.025,1.76-0.025h0.24l-0.004-5.07
		c0.125-0.225,0.152-0.486,0.076-0.76c-0.022-0.086-0.041-0.178-0.059-0.27l-0.023-0.113l0.003-0.846h-0.132
		c-0.03-0.287-0.051-0.586-0.062-0.889h0.196V67.88h-0.228c-0.01-0.346-0.019-0.695-0.021-1.043h0.251v-3.406h-0.191l0.022-0.885
		h0.162v-1.768c0.045-0.127,0.061-0.268,0.049-0.418c-0.09-1.143-0.04-2.305,0.009-3.432c0.057-1.309,0.114-2.662-0.045-4.002
		l-0.006-2.398h-2.212v3.395h0.19c0.016,0.291,0.022,0.59,0.023,0.908H65.22v3.398h0.113c-0.008,0.299-0.011,0.596-0.009,0.895
		h-0.104V60.942z M57.726,81.858v-0.566c0.627,0.008,1.165,0.076,1.7,0.516l0.062,0.051C58.917,81.858,58.335,81.858,57.726,81.858z
		"/>
	<path fill="#F79B83" d="M72.765,47.444c4.859-1.566,13.061-1.367,15.025-0.084c2.526,1.648-0.391,5.043-0.214,9.33
		c0.044,1.09,0.058,2.225,0.062,3.391c0.522,5.156-0.478,10.156-0.377,14.949c-0.055,0.838-0.123,1.445-0.218,1.605
		c-0.377,0.641,0.015,3.279,0.015,3.279s-3.085,0.943-4.163,0.91c-0.539-0.018-1.139,0.09-1.861,0.127
		c-0.724,0.035-1.57,0.002-2.604-0.301c-1.269-0.414-4.102,1.264-5.102,1.264c0-10.426-0.821-21.768-0.229-31.555
		C73.648,49.403,72.765,47.444,72.765,47.444z"/>
	<g>
		<path fill="#757F92" d="M74.021,47.804c0.998-0.002,2.026-0.006,3.085-0.045l0.287-0.012l-0.001-0.289
			c-0.002-0.547-0.003-1.043-0.003-1.541v-1.252c0.399,0.004,0.875,0.01,1.192,0.047l0.018,0.002h3.142
			c0.701-0.021,1.458-0.035,2.323-0.043c0.387-0.002,0.771-0.004,1.153-0.004c0.335,0.029,0.545,0.035,0.821,0.037v3.1h2.17
			l-0.025-0.322c-0.092-1.197,0.014-2.385,0.117-3.535c0.142-1.58,0.286-3.211-0.067-4.922c0-0.6-0.015-1.207-0.027-1.795
			l-0.015-0.613c-0.029-1.467-0.035-3.023,0.216-4.564c0.408,0,0.904,0.006,1.192,0.033l0.032,0.002
			c0.508-0.008,1.016-0.02,1.542-0.037l0.282-0.008l0.008-0.281c0.013-0.512,0.025-1.014,0.027-1.537l0.001-1.289h1.68
			c0.646,0,1.285,0.01,1.93,0.02l0.309,0.004l-0.006-0.309c-0.008-0.455-0.04-0.857-0.075-1.281l-0.02-0.232
			c-0.037-0.461-0.064-0.861-0.086-1.238c0.327-0.004,0.687-0.004,0.995-0.004v3.1h3.983c0.003,0.408,0.011,0.896,0.05,1.248
			c-0.001,0.475-0.002,1.811-0.002,1.811h3.1c0.002,0.422,0.007,0.846,0.014,1.271c-0.022,0.975,0.021,1.969,0.065,2.93
			c0.074,1.646,0.152,3.35-0.124,5.006l-0.058,0.348h2.642v-3.098c0.363,0,0.755-0.002,1.149-0.006h0.041
			c0.847,0,1.716-0.049,2.557-0.096c0.833-0.047,1.695-0.096,2.527-0.096c0.831,0,1.553,0.049,2.202,0.15
			c0.001,1.004,0.007,1.834,0.077,2.842l0.02,0.283l0.284-0.006c0.526-0.014,1.02-0.014,1.515-0.014h1.251v1.455
			c-0.008,0.285-0.015,0.572-0.021,0.854c-0.034,1.494-0.062,2.785-0.247,4.256l-0.003,0.027l0.002,0.027
			c0.33,5.633,0.275,11.422,0.221,17.02c-0.053,5.504-0.108,11.191,0.203,16.744c-1.17,0-2.222-0.006-3.495-0.09h-8.608
			c-2.938,0-5.936,0.002-8.847,0.01l-1.943,0.004l-1.301-0.006c-1.023-0.002-2.022-0.004-3.015-0.004
			c-1.013,0-2.018,0.002-3.032,0.006c-0.504,0.002-1.005,0.006-1.513,0.01c-1.251-0.01-2.576-0.014-3.894-0.014
			c-0.786,0-1.569,0.002-2.334,0.004c-0.41,0-0.812,0.004-1.194,0.01c-1.363,0.066-2.993,0.07-4.47,0.07V47.804z M114.365,80.999
			h2.146V80.7c0-12.074,0-24.561,0.277-36.643l0.001-0.02l-0.002-0.02c-0.051-0.457-0.128-0.875-0.239-1.279l-0.06-0.219
			l-1.459-0.002c-0.329,0-0.658,0.002-0.983,0.008c-0.849,0.018-1.644,0.025-2.432,0.025c-0.669,0-1.34-0.006-2.061-0.016
			l-0.245-0.014c-0.365-0.016-0.729-0.033-1.104-0.037c-0.103,0.006-0.182,0.008-0.263,0.008c-0.369,0-0.768-0.051-1.189-0.104
			c-0.444-0.057-0.901-0.115-1.349-0.115c-0.28,0-0.527,0.023-0.758,0.07l-0.144,0.027l-0.064,0.131
			c-0.048,0.096-0.093,0.111-0.175,0.111c-0.064,0-0.14-0.014-0.212-0.027c-0.08-0.014-0.155-0.027-0.232-0.027h-0.297v0.299
			c0,0.324-0.066,0.617-0.138,0.93c-0.104,0.465-0.212,0.945-0.07,1.504c-0.015,0.359-0.021,0.744-0.021,1.178
			c0,0.611,0.015,1.232,0.027,1.832c0.014,0.596,0.027,1.213,0.027,1.82v0.025l0.005,0.027c0.241,1.322,0.214,2.67,0.188,3.975
			c-0.02,1.047-0.043,2.129,0.077,3.176c-0.019,0.586-0.04,1.172-0.062,1.758c-0.061,1.76-0.123,3.578-0.073,5.41v2.268l0.296,0.002
			c2.718,0.025,5.485,0.029,7.331,0.031l1.809,0.002c0.531,0.033,0.931,0.037,1.446,0.039V80.999z M74.976,49.091
			c0.229,1.83,0.435,3.758,0.222,5.459c-0.256,3.188-0.22,6.34-0.184,9.387c0.026,2.287,0.054,4.648-0.04,7.014l-0.001,0.018
			l0.001,0.014c0.046,0.697,0.103,1.385,0.158,2.066c0.212,2.582,0.41,5.021,0.065,7.613l-0.045,0.338h2.188V80.7
			c0-4.135,0-8.408,0.044-12.602c0-0.434-0.002-0.867-0.004-1.307c0.512,0.02,1.023,0.027,1.522,0.027
			c0.716,0,1.411-0.018,2.067-0.055c0.704,0.016,1.399,0.023,2.108,0.027c0.309,0,0.62,0,0.938,0c0.41,0,0.831,0,1.268-0.002
			c0.44,0.002,0.879,0.004,1.322,0.004l1.627,0.002V55.997c-0.01-0.428-0.017-0.854-0.023-1.283
			c-0.032-1.902-0.066-3.871-0.248-5.689l-0.026-0.27h-0.271c-0.886,0-1.987,0-2.803-0.018c-0.712,0.012-1.331,0.033-1.907,0.061
			c-0.242,0.014-0.486,0.02-0.749,0.02c-0.167,0-0.332-0.002-0.499-0.006c-0.528-0.016-1.055-0.051-1.562-0.084
			c-0.386-0.002-0.771-0.018-1.162-0.035c-0.296-0.037-0.624-0.057-0.984-0.057c-0.443,0-0.868,0.027-1.317,0.059
			c-0.451,0.029-0.918,0.061-1.408,0.061h-0.338L74.976,49.091z M107.947,80.841c0.467,0,0.847,0.021,1.195,0.064l0.335,0.043
			V70.847h-0.298c-1.329,0-2.657,0-4.057,0.008c-0.271-0.004-1.684-0.041-1.684-0.041l-0.032,0.27
			c-0.055,0.463-0.059,7.832-0.059,9.305v0.232l0.227,0.059c0.595,0.148,1.243,0.215,2.103,0.215c0.383,0,0.769-0.014,1.153-0.027
			C107.205,80.854,107.579,80.841,107.947,80.841z M96.487,71.146c0,0.426-0.024,0.572-0.047,0.619l-0.068,0.084l0.014,0.086
			c0,0.127,0.003,8.98,0.003,8.98l0.299-0.002c1.87-0.004,3.641-0.004,5.41-0.004h0.299V70.847h-5.909V71.146z M87.935,70.847
			c-1.106,0-2.214,0-3.357,0.002c-0.689,0-2.336,0.002-2.336,0.002l-0.047,0.24c-0.016,0.08-0.415,9.098,0.218,9.729l0.087,0.09
			h5.733V70.847H87.935z M110.475,70.079c0.038,0.285,0.019,0.605-0.003,0.939l-0.014,0.221c-0.005,0.08-0.061,8.934,0.225,9.504
			l0.082,0.166h2.741l-0.048-0.342c-0.09-0.625-0.065-2.703-0.04-4.906c0.039-3.32,0.079-6.756-0.191-7.695l-0.061-0.219h-3.08
			c-2.603-0.002-5.662-0.012-8.604-0.064c-0.626,0.002-1.246,0.004-1.867,0.004c-1.018,0.021-2.048,0.033-3.068,0.041
			c-0.514,0.004-1.028,0.006-1.538,0.008c-0.663,0.002-1.324,0.004-1.983,0.006c-0.99,0.002-1.981,0.004-2.969,0.004
			c-0.777,0-1.554,0-2.326-0.002l-1.309-0.006c-0.786,0.004-1.567,0.006-2.342,0.006c-0.445,0-0.887,0-1.328-0.004
			c-0.402-0.002-0.803-0.004-1.201-0.006c-0.355,0.023-0.713,0.037-1.056,0.037c-0.452,0-0.87-0.021-1.208-0.062l-0.021-0.004
			l-0.823,0.02l-0.021,0.268c-0.273,3.357-0.196,6.691-0.124,9.914c0.021,0.906,0.042,1.809,0.055,2.707l0.005,0.293h0.292
			c0.323,0.004,0.71,0.004,1.098,0.004h1.488l-0.093-0.371c-0.073-0.295,0.01-1.885,0.09-3.42l0.026-0.494
			c0.02-0.387,0.04-0.781,0.059-1.176l0.001-0.023l-0.003-0.025c-0.089-0.754-0.061-1.477-0.033-2.176
			c0.035-0.908,0.071-1.848-0.152-2.848c0.12-0.162,0.167-0.328,0.196-0.482l12.183,0.004h2.597l2.57,0.008
			c0.55,0.029,1.141,0.043,1.792,0.043c1.023,0,2.053-0.035,3.049-0.068c0.979-0.033,1.993-0.068,2.982-0.068
			C108.035,69.812,109.306,69.897,110.475,70.079z M91.867,80.628c0.679,0,1.235,0.066,1.704,0.203l0.028,0.01l0.03,0.002
			c0.568,0.045,0.996,0.066,1.387,0.066h0.298V70.847l-2.034-0.002c-1.196,0-2.567-0.004-3.705-0.064l-0.306-0.016l-0.009,0.307
			c-0.005,0.193-0.01,1.576-0.018,3.326c-0.01,2.555-0.022,5.732-0.037,6.043l-0.017,0.328l0.329-0.016
			c0.252-0.014,0.515-0.031,0.781-0.051C90.814,80.665,91.345,80.628,91.867,80.628z M89.411,33.474
			c-0.224,1.336-0.295,2.779-0.225,4.543c0.018,0.453,0.044,0.943,0.083,1.502c0.023,0.779,0.075,1.578,0.124,2.35
			c0.132,2.066,0.267,4.201-0.104,6.324l-0.005,0.023l-0.024,1.711l0.011,0.039c0.34,1.287,0.179,2.67,0.022,4.008
			c-0.086,0.73-0.166,1.422-0.171,2.1c-0.016,0.443-0.022,0.92-0.02,1.449c0.004,0.877,0.036,1.77,0.064,2.631
			c0.052,1.508,0.105,3.068,0.019,4.557l-0.008,0.133l0.094,0.096c0.222,0.221,0.208,0.523,0.161,0.961
			c-0.014,0.137-0.026,0.262-0.026,0.377v0.197l0.181,0.076c0.433,0.186,0.898,0.275,1.428,0.275l0,0
			c0.497,0,0.99-0.078,1.466-0.154c0.471-0.076,0.916-0.146,1.359-0.146c0.161,0,0.309,0.01,0.453,0.027l0.024,0.004h0.026
			c0.161-0.006,0.32-0.01,0.479-0.01c0.35,0,0.657,0.018,0.942,0.055l1.464,0.062c0.574,0.021,1.256,0.045,1.951,0.045
			c0.322,0,0.644-0.006,0.968-0.018l1.418,0.008c0.249,0,0.511-0.025,0.694-0.209c0.186-0.186,0.211-0.459,0.209-0.701l-0.002-1.986
			c-0.005-0.607-0.011-1.213-0.017-1.818c-0.004-0.49-0.001-0.977,0.002-1.465l0.002-0.34c-0.062-3.363-0.057-6.875-0.046-9.561
			c-0.002-0.635-0.004-1.27-0.006-1.904l-0.003-2.656c-0.001-0.381-0.001-0.764-0.003-1.143c-0.05-3.84-0.05-7.564-0.001-11.387
			l0.003-0.26l-0.255-0.039c-0.466-0.072-0.95-0.123-1.481-0.158c-0.455-0.029-0.944-0.047-1.495-0.053
			c-0.145-0.002-0.289-0.002-0.435-0.002c-0.352,0-0.703,0.004-1.051,0.008l-0.641-0.004c-2.183-0.018-4.438-0.037-6.646-0.236
			l-0.14-0.014l-0.098,0.1c-0.135,0.133-0.356,0.355-0.453,0.355h-0.254L89.411,33.474z M81.678,45.624
			c-0.937,0-1.875,0.004-2.812,0.012c-0.247,0.002-0.588,0.252-0.607,0.516c-0.025,0.334-0.021,0.668-0.019,0.99
			c0.001,0.115,0.001,0.23,0.001,0.346v0.297l0.299,0.002c0.538,0,1.073,0.004,1.603,0.01l0.349,0.002
			c0.414,0.006,0.824,0.01,1.237,0.01l3.704,0.002l-0.271-0.451c-0.059-0.1-0.037-0.242,0.005-0.465
			c0.065-0.342,0.162-0.857-0.388-1.225l-0.074-0.051h-0.344c-0.418,0-0.923,0.002-1.219,0.012
			c-0.462-0.004-0.938-0.006-1.415-0.006H81.678z M106.62,41.606h0.298c1.521,0,3.095,0,4.676,0.045
			c0.617-0.033,1.209-0.084,1.765-0.133l0.268-0.023l0.004-0.27c0.004-0.357,0.004-1.021,0.004-1.467v-0.297h-7.014V41.606z
			 M99.296,32.052v-0.299c0-0.443,0-1.107-0.003-1.537l-0.002-0.291l-0.642-0.01c-0.319-0.004-0.632-0.008-0.943-0.01
			c-0.42,0-0.832,0-1.242-0.004c-0.412,0.002-0.806,0.002-1.202,0.002c-0.793,0-1.594-0.004-2.521-0.016l-0.3-0.006l-0.003,0.301
			c-0.004,0.439-0.015,0.842-0.025,1.258l-0.015,0.533l0.295,0.012c1.724,0.061,3.176,0.064,4.761,0.064h0.385L99.296,32.052z"/>
		<path fill-rule="evenodd" clip-rule="evenodd" fill="#757F92" d="M93.993,48.97c-0.161,0-0.32-0.002-0.477-0.01l-0.089,0.002
			c-0.689,0-1.472-0.205-1.962-0.359c-0.036-0.26-0.008-0.451,0.087-0.568c0.134-0.166,0.432-0.244,0.941-0.244
			c0.206,0,0.422,0.012,0.634,0.023c0.213,0.012,0.422,0.023,0.615,0.023c0.207,0,0.371-0.012,0.513-0.041l0.488,0.018
			c0.345,0.012,0.69,0.023,1.035,0.029c0.113,0.002,0.226,0.002,0.338,0.002c0.465,0,0.877-0.016,1.263-0.051
			c0.263-0.008,0.546-0.014,0.829-0.014c0.232,0,0.468,0.004,0.704,0.016c0.482,0.02,0.928,0.066,1.352,0.141
			c0.005,0.041,0.008,0.084,0.014,0.127c0.04,0.383,0.056,0.662-0.089,0.875c-1.188,0-2.537,0-3.766-0.01v-0.008l-0.337,0.002
			c-0.329,0.004-0.661,0.014-0.992,0.023l-0.318,0.01C94.513,48.964,94.25,48.97,93.993,48.97z"/>
		<path fill-rule="evenodd" clip-rule="evenodd" fill="#757F92" d="M91.396,64.649c-0.058-0.098-0.065-0.232-0.065-0.561
			c0.081-0.441,0.324-0.59,0.95-0.59c0.14,0,0.283,0.008,0.424,0.016c0.146,0.006,0.29,0.014,0.426,0.014
			c0.204,0,0.365-0.016,0.505-0.051h0.098c0.684,0,1.379,0.002,2.05,0.008c0.471,0.002,0.944,0.006,1.416,0.012
			c0.944,0.01,1.884,0.023,2.81,0.045c0.122,0.002,0.25,0.002,0.323,0.008c0.006,0.076,0.006,0.207,0.004,0.338
			c-0.001,0.289-0.002,0.586-0.042,0.648c-0.057,0.033-0.356,0.033-0.648,0.035c-0.668,0.039-1.267,0.059-1.849,0.059
			c-0.595,0-1.21-0.02-1.881-0.062l-0.315-0.02v0.037c-0.454,0.02-0.93,0.035-1.448,0.045C93.29,64.649,92.256,64.649,91.396,64.649
			z"/>
		<path fill-rule="evenodd" clip-rule="evenodd" fill="#757F92" d="M91.667,52.081c0.025-0.186,0.019-0.424-0.147-0.615
			c0.151-0.236,0.297-0.396,0.446-0.555c0.26-0.012,0.525-0.023,0.796-0.023c0.241,0,0.463,0.01,0.682,0.027
			c0.579,0.055,1.071,0.152,1.496,0.299v0.625c-0.072,0.176-0.189,0.236-0.443,0.236c-0.077,0-0.152-0.004-0.225-0.01
			c-0.077-0.006-0.148-0.01-0.215-0.01c-0.025,0-0.049,0-0.071,0.002c-0.22-0.002-0.438-0.008-0.658-0.014l-0.188-0.006
			c-0.594,0.004-0.976,0.021-1.42,0.041L91.667,52.081z"/>
		<path fill-rule="evenodd" clip-rule="evenodd" fill="#757F92" d="M97.616,52.06c-0.321,0-0.538-0.062-0.693-0.203
			c0.159-0.273,0.317-0.439,0.484-0.605c0.106-0.055,0.2-0.109,0.287-0.16c0.248-0.143,0.397-0.229,0.642-0.229h0.029l0.029-0.006
			c0.323-0.064,0.636-0.1,0.901-0.1c0.326,0,0.751,0.051,0.933,0.291c0.116,0.156,0.132,0.402,0.041,0.732
			c-0.085,0.158-0.217,0.223-0.445,0.223c-0.079,0-0.169-0.01-0.276-0.027l-0.025-0.004l-0.938,0.004
			c-0.127,0.012-0.232,0.021-0.341,0.035C98.034,52.034,97.818,52.06,97.616,52.06z"/>
		<path fill-rule="evenodd" clip-rule="evenodd" fill="#757F92" d="M98.708,48.864c-0.34-0.023-0.913-0.025-1.346-0.025
			c-0.21-0.27-0.261-0.627-0.272-0.953h3.159v0.953c-0.271,0.002-0.475,0.004-0.783,0.02c-0.158,0.002-0.318,0.004-0.476,0.004
			L98.708,48.864z"/>
		<path fill-rule="evenodd" clip-rule="evenodd" fill="#757F92" d="M93.089,55.169c-0.46-0.031-1.013-0.035-1.497-0.035H91.55
			c-0.14-0.082-0.242-0.197-0.283-0.32c-0.025-0.076-0.026-0.156-0.005-0.236c0.672-0.219,1.309-0.352,1.896-0.396
			c0.162-0.012,0.325-0.02,0.486-0.02c0.472,0,0.914,0.057,1.316,0.17c-0.004,0.111-0.04,0.207-0.106,0.295
			c-0.239,0.303-0.896,0.506-1.759,0.543H93.089z"/>
		<path fill-rule="evenodd" clip-rule="evenodd" fill="#757F92" d="M97.266,55.134c-0.33-0.082-0.325-0.102-0.251-0.473
			c0.022-0.113,0.05-0.248,0.062-0.396c0.508-0.127,1.05-0.193,1.59-0.193c0.561,0,1.123,0.072,1.646,0.209
			c-0.076,0.229-0.044,0.447-0.02,0.625c0.014,0.092,0.022,0.164,0.022,0.229c-0.583,0-1.164-0.002-1.71-0.008l-0.302-0.004v0.008
			C97.944,55.134,97.605,55.134,97.266,55.134z"/>
		<path fill-rule="evenodd" clip-rule="evenodd" fill="#757F92" d="M93.127,36.394c-0.632-0.002-1.145-0.072-1.636-0.221
			c-0.027-0.084-0.065-0.162-0.102-0.234c-0.035-0.072-0.079-0.158-0.08-0.201v-0.035l-0.009-0.035
			c-0.047-0.186-0.032-0.33,0.042-0.424c0.079-0.104,0.244-0.164,0.438-0.164c0.116,0,0.235,0.021,0.339,0.062l0.046,0.018
			l0.05,0.004c0.298,0.014,0.595,0.029,0.892,0.045h0.031c0.189-0.008,0.373-0.029,0.551-0.047c0.201-0.021,0.393-0.041,0.561-0.041
			c0.219,0,0.372,0.033,0.492,0.111c-0.002,0.318-0.009,1.111-0.009,1.111c-0.218,0.006-0.432,0.016-0.642,0.023
			c-0.314,0.016-0.61,0.027-0.909,0.027H93.127z"/>
		<path fill-rule="evenodd" clip-rule="evenodd" fill="#757F92" d="M97.124,36.323c-0.043-0.168-0.158-0.283-0.223-0.35
			c-0.021-0.02-0.051-0.049-0.063-0.066c0.002-0.004,0.007-0.016,0.013-0.027c0.252-0.586,0.699-0.84,1.459-0.842
			c0.299,0,0.637,0.037,1.097,0.121c0.172,0.031,0.341,0.064,0.504,0.096c0.121,0.023,0.24,0.049,0.354,0.07
			c0.004,0.039,0.007,0.078,0.013,0.119c0.039,0.383,0.054,0.664-0.093,0.877h-0.058c-0.385,0-0.948-0.008-1.411-0.076l-0.343-0.053
			v0.086C97.988,36.313,97.556,36.321,97.124,36.323z"/>
		<path fill-rule="evenodd" clip-rule="evenodd" fill="#757F92" d="M93.541,39.456c-0.04,0-0.077-0.002-0.113-0.008l0.011-0.125
			l-0.36,0.037c-0.467,0.057-1.052,0.062-1.479,0.062l-0.266-0.266c0.032-0.635,0.331-0.754,0.887-0.754
			c0.232,0,0.493,0.025,0.768,0.053c0.299,0.031,0.609,0.062,0.915,0.062c0.313,0,0.581-0.033,0.814-0.105v0.811
			c-0.187,0.025-0.367,0.072-0.543,0.117C93.946,39.401,93.731,39.456,93.541,39.456z"/>
		<path fill-rule="evenodd" clip-rule="evenodd" fill="#757F92" d="M98.542,39.397c-0.465,0-0.927-0.027-1.457-0.086
			c-0.114-0.012-0.146-0.037-0.146-0.037c-0.013-0.035,0.014-0.178,0.029-0.264c0.031-0.172,0.066-0.367,0.007-0.557
			c-0.017-0.049-0.022-0.088-0.023-0.109c0.013-0.002,0.031-0.004,0.056-0.004l0.036,0.002c0.231,0.012,0.473,0.018,0.784,0.018
			c0.144,0,0.653-0.004,0.768-0.006c0.165,0.084,0.349,0.125,0.557,0.125c0.203,0,0.397-0.039,0.586-0.074
			c0.157-0.031,0.306-0.061,0.435-0.061c0.018,0,0.034,0,0.049,0c0.154,0.236,0.154,0.635-0.121,1.039h-0.122
			c-0.281,0-0.567,0.004-0.854,0.008L98.542,39.397z"/>
		<path fill-rule="evenodd" clip-rule="evenodd" fill="#757F92" d="M93.135,42.521c-0.489-0.002-0.971-0.01-1.481-0.02l-0.164-0.004
			c-0.139-0.439-0.166-0.721-0.081-0.842c0.052-0.072,0.184-0.088,0.286-0.088c0.435,0,0.881,0,1.336-0.084
			c0.564,0.07,1.133,0.082,1.687,0.084v0.953H93.135z"/>
		<path fill-rule="evenodd" clip-rule="evenodd" fill="#757F92" d="M92.201,45.704c-0.35,0-0.604-0.086-0.715-0.24
			c-0.125-0.172-0.085-0.447-0.021-0.672c0.141-0.119,0.297-0.17,0.513-0.17c0.161,0,0.33,0.027,0.509,0.059
			c0.183,0.031,0.371,0.062,0.556,0.062c0.142,0,0.266-0.02,0.38-0.055c0.13-0.006,0.262-0.01,0.393-0.01
			c0.44,0,0.802,0.043,1.146,0.137c0.005,0.352-0.169,0.594-0.531,0.738c-0.208,0.084-0.462,0.127-0.735,0.127
			c-0.211,0-0.42-0.025-0.604-0.076l-0.326-0.09l-0.02,0.133C92.551,45.685,92.366,45.704,92.201,45.704z"/>
		<path fill-rule="evenodd" clip-rule="evenodd" fill="#757F92" d="M98.626,61.438c-0.226-0.033-0.44-0.035-0.641-0.035h-0.15
			c-0.375,0-0.676-0.014-0.972-0.166c0.003-0.285,0.017-0.562,0.108-0.83c0.214,0.023,0.438,0.037,0.688,0.037
			c0.259,0,0.513-0.014,0.765-0.025c0.24-0.014,0.479-0.025,0.72-0.025c0.422,0,0.772,0.039,1.104,0.129v0.811
			c-0.274,0.004-0.489,0.025-0.786,0.109L98.626,61.438z"/>
		<path fill-rule="evenodd" clip-rule="evenodd" fill="#757F92" d="M93.162,61.425c-0.153-0.023-0.32-0.027-0.464-0.027
			l-0.371,0.002c-0.322,0-0.688-0.014-0.996-0.164v-0.461c0.018-0.012,0.041-0.027,0.06-0.039c0.056-0.035,0.127-0.078,0.202-0.141
			c0.272-0.014,0.606-0.07,0.959-0.131c0.465-0.082,0.99-0.172,1.433-0.172c0.412,0,0.691,0.08,0.831,0.236
			c0.107,0.119,0.151,0.311,0.131,0.568c-0.12,0.193-0.329,0.232-0.758,0.299c-0.069,0.01-0.142,0.021-0.217,0.033
			C93.75,61.429,93.162,61.425,93.162,61.425z"/>
		<path fill-rule="evenodd" clip-rule="evenodd" fill="#757F92" d="M98.61,45.687c-0.581-0.055-0.979-0.066-1.463-0.068
			c-0.009-0.223-0.091-0.43-0.162-0.609c-0.03-0.072-0.059-0.143-0.079-0.211c0.474-0.129,0.994-0.188,1.65-0.188
			c0.327,0,0.661,0.014,0.983,0.027c0.232,0.01,0.472,0.02,0.71,0.023v0.957C99.693,45.62,99.128,45.628,98.61,45.687z"/>
		<path fill-rule="evenodd" clip-rule="evenodd" fill="#757F92" d="M98.605,58.284c-0.63-0.047-1.052-0.051-1.613-0.053
			c-0.025-0.041-0.051-0.078-0.077-0.115c-0.119-0.17-0.142-0.221-0.082-0.338l0.031-0.062v-0.07c0-0.074,0.126-0.221,0.247-0.344
			c0.201,0.029,0.421,0.045,0.679,0.045c0.242,0,0.49-0.014,0.74-0.027c0.241-0.012,0.483-0.025,0.724-0.025
			c0.404,0,0.721,0.037,0.996,0.121v0.816C99.699,58.233,99.139,58.241,98.605,58.284z"/>
		<path fill-rule="evenodd" clip-rule="evenodd" fill="#757F92" d="M92.102,58.294c-0.246,0-0.509-0.021-0.771-0.156v-0.525
			c0.732-0.322,1.465-0.367,2.092-0.367c0.263,0,0.523,0.008,0.786,0.018c0.17,0.006,0.339,0.01,0.509,0.014v0.955
			c-0.544,0.002-1.096,0.008-1.601,0.049h-0.008c-0.084-0.006-0.17-0.008-0.254-0.008c-0.134,0-0.268,0.006-0.398,0.012
			C92.337,58.288,92.219,58.294,92.102,58.294z"/>
		<path fill-rule="evenodd" clip-rule="evenodd" fill="#757F92" d="M105.716,57.28h0.169c0.372,0,0.725,0,1.074,0.004
			c0.492,0.004,0.979,0.01,1.511,0.023c0.516-0.008,1.024-0.012,1.531-0.012h0.06c0.527,0,1.053,0.006,1.573,0.014
			c0.519,0.008,1.03,0.021,1.529,0.039c0,0,0.996-0.006,1.214-0.006c0.018,0.271,0.021,0.607,0.023,0.887l-1.435,0.002h-0.854
			c-0.854,0-1.7-0.004-2.559-0.008l-1.296-0.006c-0.759,0.014-1.717,0.014-2.543,0.014L105.716,57.28z"/>
		<path fill-rule="evenodd" clip-rule="evenodd" fill="#757F92" d="M105.692,51.894c0.018-0.287,0.021-0.555,0.023-0.811h3.165
			v0.732c-0.519,0.002-0.938,0.012-1.588,0.082C106.769,51.897,106.237,51.896,105.692,51.894z"/>
		<path fill-rule="evenodd" clip-rule="evenodd" fill="#757F92" d="M111.026,52.036v-0.953c0.613-0.002,1.349-0.004,1.871-0.037
			c0.544-0.014,1.055-0.021,1.536-0.025c-0.02,0.338-0.025,0.705-0.025,1.014l-1.688,0.002H111.026z"/>
		<path fill-rule="evenodd" clip-rule="evenodd" fill="#757F92" d="M105.718,54.181c0.509,0.002,0.925,0.002,1.575,0.014
			l1.587-0.004c0,0.299,0,0.643,0,0.943h-3.162V54.181z"/>
		<path fill-rule="evenodd" clip-rule="evenodd" fill="#757F92" d="M114.406,55.132c-0.497,0-0.904-0.01-1.539-0.08l-0.033-0.002
			h-0.236c-0.455,0-0.917-0.002-1.382-0.004c0.023-0.268,0.03-0.578,0.032-0.863l3.16-0.002L114.406,55.132z"/>
		<path fill-rule="evenodd" clip-rule="evenodd" fill="#757F92" d="M105.747,60.552l0.143-0.004
			c0.482-0.018,0.949-0.037,1.419-0.043c0.506-0.008,1.02-0.016,1.544-0.023c-0.005,0.248-0.013,0.488-0.021,0.732l-0.003,0.123
			c-0.569,0.014-1.068,0.02-1.554,0.02c-0.5,0.002-0.975,0.021-1.476,0.043l-0.084,0.002
			C105.726,61.122,105.737,60.845,105.747,60.552z"/>
		<path fill-rule="evenodd" clip-rule="evenodd" fill="#757F92" d="M114.35,61.345c-0.525-0.008-1.024-0.01-1.526-0.012
			c-0.51-0.002-1.026-0.002-1.576-0.002v-0.99c0.157-0.018,0.32-0.025,0.492-0.025c0.371,0,0.735,0.039,1.047,0.076l0.187,0.023
			c0.415,0.051,0.844,0.102,1.286,0.102c0.024,0,0.049,0,0.072,0C114.336,60.739,114.35,61.345,114.35,61.345z"/>
		<path fill-rule="evenodd" clip-rule="evenodd" fill="#757F92" d="M108.796,64.524c-0.575-0.012-1.054-0.018-1.519-0.018h-1.612
			v-0.859c0,0,2.818-0.002,3.12-0.002C108.788,63.942,108.791,64.231,108.796,64.524z"/>
		<path fill-rule="evenodd" clip-rule="evenodd" fill="#757F92" d="M111.718,64.712c-0.162,0-0.318-0.008-0.471-0.025v-0.99
			c0.563,0,1.133-0.008,1.654-0.051c0.54,0.004,1.064,0.006,1.572,0.01c0.1,0.568-0.138,0.668-0.286,0.732
			c-0.213,0.09-0.512,0.123-0.829,0.158c-0.194,0.021-0.395,0.043-0.588,0.08C112.455,64.669,112.094,64.712,111.718,64.712z"/>
		<path fill-rule="evenodd" clip-rule="evenodd" fill="#757F92" d="M86.086,55.11c-0.767-0.055-1.59-0.078-2.617-0.078
			c-0.564,0-1.131,0.006-1.698,0.014l-0.719,0.008c-0.243,0.004-0.486,0.006-0.729,0.006c-0.202,0-0.402-0.002-0.604-0.004
			c-0.454-0.006-0.884-0.018-1.312-0.035c-0.308-0.006-0.617-0.008-0.93-0.008c0.061-0.279,0.078-0.541,0.084-0.793
			c0.998,0,2.021-0.004,2.991-0.053c0.371,0.004,0.759,0.006,1.144,0.006c1.156,0.006,2.304,0.008,3.49,0.008l0.901,0.002V55.11z"/>
		<path fill-rule="evenodd" clip-rule="evenodd" fill="#757F92" d="M79.641,52.081c-0.216,0-0.453-0.031-0.685-0.09
			c-0.688-0.121-1.119-0.135-1.68-0.137c-0.035-0.197-0.04-0.4,0.049-0.525c0.161-0.229,0.666-0.258,1.155-0.283
			c0.172-0.012,0.343-0.021,0.51-0.039c0.572,0.004,1.146,0.01,1.713,0.016c0.073,0.684-0.269,0.859-0.39,0.922
			C80.14,52.034,79.908,52.081,79.641,52.081z"/>
		<path fill-rule="evenodd" clip-rule="evenodd" fill="#757F92" d="M86.078,51.886c-0.547-0.035-1.059-0.055-1.556-0.072
			c-0.51-0.018-1.036-0.033-1.598-0.043c-0.001-0.225-0.001-0.455-0.002-0.688c0.552,0,1.068-0.002,1.587-0.006
			c0.513-0.006,1.018-0.016,1.54-0.027c0.003,0.109,0.008,0.219,0.012,0.328C86.067,51.546,86.074,51.714,86.078,51.886z"/>
		<path fill-rule="evenodd" clip-rule="evenodd" fill="#757F92" d="M80.506,61.37c-1.083,0-2.058-0.002-3.126-0.012l-0.007-0.955
			c0.174-0.021,0.351-0.033,0.539-0.033c0.448,0,0.887,0.061,1.35,0.127c0.398,0.057,0.81,0.115,1.244,0.135V61.37z"/>
		<path fill-rule="evenodd" clip-rule="evenodd" fill="#757F92" d="M82.898,61.368c0.016-0.266,0.021-0.52,0.023-0.77h3.165v0.732
			c-0.561,0-1.123,0.004-1.601,0.031C83.971,61.364,83.44,61.368,82.898,61.368z"/>
		<path fill-rule="evenodd" clip-rule="evenodd" fill="#757F92" d="M77.34,64.468v-0.73c0.568-0.002,1.158-0.012,1.812-0.072
			c0.459-0.006,0.921-0.008,1.396-0.01c-0.03,0.289-0.04,0.557-0.041,0.812H77.34z"/>
		<path fill-rule="evenodd" clip-rule="evenodd" fill="#757F92" d="M82.894,64.503c0.02-0.285,0.025-0.549,0.027-0.807h3.165v0.734
			c-0.558,0-1.119,0.01-1.605,0.072C84.01,64.503,82.894,64.503,82.894,64.503z"/>
		<path fill-rule="evenodd" clip-rule="evenodd" fill="#757F92" d="M82.921,57.28c1.086,0,2.065,0.004,3.167,0.055v0.883
			c-1.102,0.014-2.082,0.014-3.167,0.014V57.28z"/>
		<path fill-rule="evenodd" clip-rule="evenodd" fill="#757F92" d="M80.506,58.271c-0.498-0.002-0.882-0.012-1.381-0.086
			l-0.031-0.002c-0.578-0.021-1.164-0.035-1.747-0.041c-0.006-0.293-0.007-0.561-0.007-0.822h3.166V58.271z"/>
	</g>
</g>
</svg>
