<?xml version="1.0" encoding="utf-8"?>
<!-- Generator: Adobe Illustrator 16.0.0, SVG Export Plug-In . SVG Version: 6.00 Build 0)  -->
<!DOCTYPE svg PUBLIC "-//W3C//DTD SVG 1.1//EN" "http://www.w3.org/Graphics/SVG/1.1/DTD/svg11.dtd">
<svg version="1.1" id="Layer_1" xmlns="http://www.w3.org/2000/svg" xmlns:xlink="http://www.w3.org/1999/xlink" x="0px" y="0px"
	 width="190.513px" height="108.333px" viewBox="0 0 190.513 108.333" enable-background="new 0 0 190.513 108.333"
	 xml:space="preserve">
<g>
	<path fill-rule="evenodd" clip-rule="evenodd" fill="#C1D9D1" d="M68.667,25.285c-1.821,5.873,2.395,4.018-3.684,5.175
		c-4.114,0.798-2.725,5.316-0.416,6.766c-3.258,1.47-1.889,4.101-1.628,6.282c-1.489-0.524-2.454-0.003-2.896,1.566
		c-1.771-0.596-3.338-0.02-4.699,1.73c-8.271-4.158-3.314,7.002-6.534,5.649c-5.355-2.253,1.05,8.668,0.73,9.865
		c-2.296-0.15-4.035-1.743-6.314-1.915c-4.822-0.361-0.752,7.424-2.731,7.392c-3.198-0.049-6.275,1.141-2.889,5.081
		c1.726,2.018,1.188,6.5,2.778,7.66c2.949,2.152,1.204,2.885,1.508,5.773c0.616,5.835,4.054-0.528,6.411,1.262
		c2.648,2.012,2.823,9.457,7.503,8.97c3.404-0.354,1.739-6.432,3.913-8.018c-1.114,0.813,7.757,3.934,7.546,3.468
		c3.754,8.255,2.097-1.867,4.96-2.901c1.644-0.593,1.109,2.84,3.036,0.659c0.688-0.779,1.048-1.515,1.202-2.232
		c-1.771-6.392,8.195,9.207,13.195,6.207c2-2,8.13-3.099,10.13-2.099c21.479-4.32,14.904-20.5,19.178-16.481
		c0.689,0.046,1.319-0.167,1.912-0.537c2.37-1.481,4.147-5.481,6.814-5.481c1-1,2,2,4.31,1.333c0.757-0.391,1.558-1.093,2.585-1.034
		c1.875,0.108,1.254,2.781,2.676,3.375c3.06,1.282,3.08-4.825,4.797-5.354c1.477-0.454,5.127,2.091,5.734-2.153
		c0.207-1.44-1.767-4.092-0.29-5.464c0.752-0.698,3.609,0.308,3.496-1.689c-0.038-0.647-2.581-3.822-0.623-4.325
		c1.843-0.476,3.582,0.113,3.951-2.673c0.809-6.114-7.772-1.221-7.127-4.25c1.245-0.912,1.087-4.753,0.483-5.334
		c4.051,0.164,2.93-6.661-2.443-5.246c-2.145,0.564-0.117-5.597-0.508-6.413c-2.896-6.058-6.854,1.989-8.729,1.705
		c-1.575-1.011-2.433-1.484-4.148-2.432c-2.277-0.047-2.541,2.226-3.101,3.125c-6.235,2.604-2.048-5.966-7.755-7.908
		c-1.42,0.426-1.979,1.326-3.398,1.752c0.451-3.89,0.613-8.566-1.524-11.813c-2.197-3.333-10.99-4.125-9.662,2.011
		c-3.312-0.07-6.075-1.912-9.335-1.98c-5.203-0.108-4.588,6.389-10,3.401c-3.192,1.445-5.271,4.82-8.602,5.946
		C75.365,24.763,70.364,19.823,68.667,25.285C68.21,26.76,69.466,22.714,68.667,25.285z"/>
	<g id="_x36_Q8aSg.tif_15_">
		<g>
			<path fill="#FFFFFF" d="M73.541,62.244c0.152-2.119,2.152-3.119,2.486-5.25c0.34-1.6,0.293-3.263,0.164-4.951
				c-0.258-3.376-0.842-6.854,0.69-10.135c0.286-0.646,0.611-1.262,0.979-1.851c2.196-3.536,5.785-6.097,10.101-7.772
				c0.721-0.282,1.459-0.534,2.216-0.766c6.666-2.691,13.458-0.411,19.722,2.743c0.7,0.353,1.395,0.719,2.093,1.113
				c5.035,3.649,9.356,10.998,7.646,17.077c-0.119,0.598-0.288,1.175-0.498,1.748c-0.212,0.566-0.471,1.128-0.771,1.687
				c-1.197,2.23-2.569,4.342-4.062,6.387c-1.921,2.625-3.131,5.481-2.872,8.774c0.06,0.763,0.253,1.518,0.392,2.291
				c-1.595,0.408-3.045,1.054-4.391,1.87c-0.448,0.272-0.888,0.562-1.312,0.87c-3.14,2.831-7.461,7.029-9.618,11.227
				c-2.7-2.623-3.154-6.706-5.468-9.192c-0.461-0.498-0.997-0.933-1.643-1.275c-2.672,0.69-4.934,0.917-6.742,0.609
				c-6.959-1.322-3.959-9.322-7.088-13.881C74.651,63.476,73.922,63.107,73.541,62.244z"/>
		</g>
	</g>
	<g id="_x36_Q8aSg.tif_14_">
		<g>
			<path fill="#EBE5D0" d="M97.796,83.176c-0.742-1.812-1.512-3.688-2.895-5.301c-0.697-0.811-1.496-1.48-2.377-1.992l-1.088-0.633
				l-1.203,0.336c-1.568,0.439-2.92,0.664-4.018,0.664c-1.2,0-2.045-0.266-2.511-0.785c-0.685-0.768-1.009-2.438-0.914-4.722
				c0.297-1.385-0.078-2.695-0.99-3.592c0.014-0.391,0.015-0.76,0.019-1.088c0.014-1.639-0.632-2.93-1.767-3.67
				c1.929-3.725,1.604-7.699,1.331-11.023c-0.225-2.736-0.434-5.318,0.503-7.496c0.237-0.58,0.487-1.092,0.768-1.582
				c1.641-2.867,4.384-5.125,8.155-6.713c0.608-0.254,1.246-0.492,1.895-0.709l0.136-0.043l0.128-0.057
				c1.515-0.662,3.072-0.986,4.761-0.986c3.237,0,6.776,1.145,11.483,3.713c0.571,0.312,1.141,0.641,1.711,0.984
				c3.887,3.135,7.271,9.365,6.039,14.119l-0.029,0.117l-0.022,0.121c-0.082,0.438-0.197,0.871-0.353,1.328
				c-0.15,0.432-0.343,0.893-0.567,1.344c-1.016,2.049-2.214,4.09-3.663,6.24c-2.5,3.703-3.582,7.367-3.315,11.199
				c-0.799,0.375-1.585,0.82-2.371,1.334c-0.48,0.318-0.972,0.668-1.455,1.045l-0.142,0.109l-0.127,0.125
				c-2.094,2.049-4.774,4.807-7.012,7.881C97.869,83.354,97.832,83.266,97.796,83.176z"/>
		</g>
	</g>
	<g id="_x36_Q8aSg.tif_13_">
		<g>
			<path fill="#757F92" d="M116.745,50.571c-0.143-0.527-0.254-0.953-0.459-1.512l-0.58-1.471c-0.455-0.955-0.912-1.908-1.502-2.791
				c-0.264-0.461-0.586-0.883-0.912-1.301c-0.316-0.426-0.639-0.848-1.014-1.223c-0.697-0.803-1.502-1.494-2.32-2.174l-1.309-0.939
				c-0.441-0.285-0.883-0.521-1.324-0.785l-0.33-0.193c-0.16-0.098-0.256-0.119-0.387-0.186l-0.736-0.322
				c-0.246-0.104-0.488-0.225-0.738-0.312l-0.762-0.232c-0.506-0.162-1.016-0.312-1.541-0.402c-0.516-0.098-1.049-0.232-1.549-0.283
				l-1.535-0.199l-1.512-0.17c-8.01-1.1-14.678,2.73-18.205,9.16c-0.502,0.918-0.943,1.891-1.312,2.908
				c0,1.48-0.185,3.146-0.093,4.72c0.093,1.573,0.463,3.054,1.573,4.165c0,0.74-1.48,1.48-0.74,2.221
				c1.11-1.852,0.925-3.518,0.554-5.185c-0.371-1.667-0.928-3.335-0.562-5.192c0.377-1.006,0.828-1.979,1.354-2.895
				c3.664-6.422,10.889-10.178,18.801-8.482l1.502,0.207c0.518,0.057,0.977,0.186,1.461,0.279c0.486,0.084,0.953,0.23,1.42,0.383
				l0.703,0.217c0.229,0.084,0.445,0.197,0.668,0.293l0.666,0.297c0.098,0.047,0.25,0.102,0.305,0.145l0.328,0.195
				c0.434,0.264,0.893,0.514,1.307,0.787l1.172,0.857c0.744,0.633,1.492,1.281,2.129,2.029c0.348,0.35,0.643,0.744,0.932,1.141
				c0.299,0.391,0.596,0.783,0.838,1.213c0.541,0.824,0.961,1.719,1.381,2.611l0.533,1.385c0.148,0.396,0.299,0.963,0.418,1.42
				c0.367,1.631,0.367,3.854-0.326,5.604c-0.379,0.941-0.836,1.85-1.336,2.74c-2.494,4.455-5.99,8.465-5.373,14.017
				c-0.742,0-0.742,0.74-1.277,0.395c-0.713,0.35-1.416,0.758-2.08,1.219c-0.672,0.451-1.295,0.959-1.906,1.479
				c-0.301,0.275-0.578,0.516-0.896,0.826l-0.812,0.838l-0.814,0.838c-0.266,0.295-0.518,0.609-0.775,0.914l-0.766,0.922
				c-0.889,0.355-1.148,1.09-1.371,1.828c-0.223,0.732-0.512,1.232-1.283,1.619c0,0-0.613-0.529-0.562-0.662
				c0,0-0.721-1.322-1.42-2.74c-0.701-1.418-1.402-2.838-1.402-2.838l-0.178-0.359l-0.014-0.031l-0.037-0.062l-0.006-0.008
				l-0.01-0.014l-0.039-0.055l-0.154-0.217c-0.072-0.08-0.158-0.164-0.238-0.244c-0.057-0.053-0.047-0.053-0.158-0.146l-0.109-0.078
				l-0.219-0.154l-0.221-0.154l-0.291-0.137c-0.391-0.205-0.783-0.27-1.176-0.336l-0.598-0.02c-0.195,0.004-0.359,0.029-0.541,0.043
				l-2.129,0.195c-6.153,1.951-5.153-7.049-7.153-11.049c1,5,0,13,7.192,11.812l2.133-0.146c0.174-0.01,0.367-0.031,0.523-0.029
				l0.475,0.027c0.303,0.059,0.623,0.123,0.861,0.26c0.574,0.295,1.047,0.674,1.262,1.295c0,0,0.451,0.969,0.898,1.939
				c0.244,0.957,0.92,1.807,1.535,2.785c0.432,0.611,0.432,2.09,0.432,2.83c2.221-0.74,2.961-2.219,4.395-3.867
				c0.385-0.516,0.807-0.99,1.307-1.375c0.246-0.285,0.482-0.578,0.738-0.863l0.822-0.83l0.82-0.832
				c0.24-0.23,0.553-0.502,0.826-0.748c0.582-0.486,1.17-0.959,1.795-1.371c0.402-1.217,2.623-1.217,4.104-1.957
				c-0.646-5.83,2.104-10.527,5.258-15.074c0.449-0.648,0.906-1.295,1.357-1.938c0.361-1.02,0.529-2.113,0.594-3.209
				C117.084,52.735,116.981,51.668,116.745,50.571z"/>
		</g>
	</g>
	<path fill-rule="evenodd" clip-rule="evenodd" fill="#FFFFFF" d="M106.481,49.993c-0.229-1.08-0.633-2.109-1.188-3.035
		c-1.666-2.775-4.703-4.586-8.09-4.586c-0.777,0-1.559,0.098-2.32,0.291c-2.445,0.623-4.576,2.244-5.846,4.447
		c-1.273,2.209-1.582,4.818-0.865,7.346c0.684,2.418,1.891,4.713,3.871,7.379l-0.002,1.34c-0.004,0.592-0.008,1.172,0.008,1.754
		c0.064,2.533,2.123,4.762,4.588,4.967c0.166,0.014,0.332,0.021,0.494,0.021c1.285,0,2.453-0.424,3.359-1.15
		c0.904-0.727,1.543-1.75,1.766-2.898c-1.066-4.811,3.867-7.77,4.42-13.127C106.752,51.788,106.682,50.885,106.481,49.993z"/>
	<path fill-rule="evenodd" clip-rule="evenodd" fill="#F79B83" d="M99.354,58.46c-0.351-0.036-0.745-0.036-1.142-0.036
		c-0.023,0-2.111,0-2.111,0c-0.407,0-0.815,0-1.222-0.004c-0.508-0.815-1.176-1.489-1.844-2.165
		c-1.335-3.37-0.668-7.413,2.902-8.927c0.389-0.09,0.779-0.12,1.191-0.12c2.385,0,4.445,1.717,4.896,4.083
		c0.191,1.007,0.063,2.039-0.402,3.243C101.121,55.833,100.38,57.118,99.354,58.46z"/>
	<path fill-rule="evenodd" clip-rule="evenodd" fill="#CFCECD" d="M97.03,66.151c-0.09,0-0.184-0.006-0.277-0.014
		c-1.23-0.102-2.299-1.275-2.332-2.559c-0.01-0.482-0.008-0.965-0.004-1.457l0.002-0.195h5.369c0,0.082,0,0.164-0.004,0.246
		c-0.006,0.199-0.006,0.4-0.006,0.602c0.002,0.453,0.002,0.877-0.07,1.277C99.475,65.307,98.399,66.151,97.03,66.151z"/>
	<path fill="#757F92" d="M97.168,60.557c0,0-0.725-0.01-1.994,0.027c-0.158,0.004-0.326,0.01-0.5,0.014
		c-0.178,0-0.348,0.045-0.582-0.002c-0.113-0.014-0.258-0.152-0.295-0.217c-0.062-0.078-0.125-0.158-0.189-0.238
		c-0.129-0.162-0.264-0.328-0.4-0.502c-0.283-0.34-0.574-0.709-0.852-1.133c-0.271-0.422-0.625-0.832-0.861-1.336
		c-0.562-0.959-1.018-2.078-1.342-3.334c-0.293-1.262-0.18-2.717,0.332-4.02c0.529-1.307,1.436-2.475,2.607-3.336
		c0.58-0.441,1.244-0.775,1.941-1.016c0.348-0.137,0.721-0.219,1.064-0.297c0.363-0.053,0.75-0.125,1.121-0.119
		c1.502-0.072,3.033,0.4,4.258,1.266c1.238,0.861,2.162,2.119,2.641,3.48c0.07,0.168,0.121,0.342,0.162,0.518
		c0.045,0.189,0.092,0.309,0.129,0.555c0.035,0.332,0.07,0.66,0.104,0.986c0.004,0.699-0.049,1.428-0.225,2.045
		c-0.059,0.324-0.162,0.627-0.271,0.922l-0.152,0.441l-0.039,0.109l-0.029,0.07l-0.021,0.051l-0.096,0.199
		c-0.258,0.529-0.467,1.045-0.779,1.523c-0.283,0.484-0.564,0.941-0.871,1.338c-0.293,0.408-0.568,0.795-0.857,1.135
		c-0.141,0.174-0.275,0.342-0.406,0.502c-0.068,0.08-0.131,0.16-0.195,0.236c-0.137,0.113-0.146,0.133-0.312,0.176
		c-0.15,0.037-0.232,0.02-0.322,0.018c-0.094-0.006-0.184-0.01-0.27-0.016c-0.178-0.006-0.344-0.01-0.504-0.014
		C97.893,60.549,97.168,60.557,97.168,60.557z M97.168,60.471c0,0,0.725,0.002,1.992-0.043c0.297-0.016,0.717-0.01,1.002-0.062
		c0.033,0.029,0.172-0.104,0.184-0.111c0.051-0.084,0.107-0.168,0.164-0.256c0.109-0.172,0.229-0.35,0.346-0.535
		c0.473-0.734,0.957-1.609,1.396-2.564c0.242-0.457,0.432-1.008,0.66-1.545l0.084-0.203l0.021-0.051l0.006-0.014
		c-0.014,0.029-0.002,0.002-0.004,0.004l0.008-0.025l0.033-0.102l0.133-0.412c0.092-0.277,0.182-0.559,0.225-0.85
		c0.145-0.592,0.168-1.148,0.188-1.754c-0.033-0.326-0.066-0.654-0.102-0.986c-0.062-0.23-0.113-0.598-0.225-0.879
		c-0.381-1.213-1.17-2.346-2.246-3.16c-0.527-0.424-1.139-0.75-1.785-0.984c-0.641-0.248-1.332-0.4-2.031-0.42
		c-0.354-0.031-0.688,0.012-1.043,0.035c-0.367,0.059-0.707,0.107-1.041,0.215c-0.672,0.213-1.318,0.516-1.885,0.926
		c-0.564,0.412-1.061,0.912-1.461,1.467c-0.393,0.562-0.67,1.184-0.869,1.809c-0.188,0.631-0.266,1.273-0.277,1.896
		c0.033,0.643,0.072,1.189,0.242,1.805c0.328,1.148,0.752,2.229,1.213,3.188c0.201,0.496,0.477,0.926,0.699,1.361
		c0.221,0.436,0.467,0.838,0.711,1.205c0.121,0.188,0.236,0.367,0.346,0.543c0.121,0.162,0.211,0.385,0.311,0.398
		c0.309,0.068,0.711,0.051,1.014,0.068C96.444,60.479,97.168,60.471,97.168,60.471z"/>
	<path fill="#757F92" d="M94.004,61.28c1.064-0.191,2.129-0.281,3.195-0.32c0.531-0.014,1.064-0.033,1.598-0.012
		c0.531,0.018,1.064,0.088,1.598,0.133l0.264,0.023l-0.023,0.217c-0.061,0.598-0.113,1.182-0.119,1.771
		c-0.021,0.301-0.049,0.602-0.057,0.904c-0.012,0.18-0.062,0.297-0.086,0.451c-0.021,0.145-0.059,0.289-0.131,0.439
		c-0.109,0.314-0.283,0.584-0.471,0.848c-0.211,0.238-0.432,0.496-0.717,0.66c-0.268,0.199-0.574,0.309-0.883,0.428
		c-0.32,0.066-0.643,0.168-0.971,0.156c-0.18-0.002-0.291,0.025-0.531-0.004l-0.438-0.066c-0.312-0.098-0.703-0.232-0.961-0.424
		c-0.295-0.168-0.523-0.422-0.756-0.656c-0.207-0.266-0.398-0.537-0.521-0.848c-0.154-0.291-0.213-0.629-0.268-0.947
		c-0.033-0.334-0.025-0.656,0.016-0.939c0.053-0.592,0.121-1.182,0.219-1.773l0.006-0.035L94.004,61.28z M94.053,61.37
		c0.096,0.572,0.164,1.145,0.217,1.717c0.018,0.307,0.076,0.57,0.131,0.822c0.016,0.129,0.094,0.246,0.135,0.367
		c0.041,0.125,0.092,0.242,0.17,0.35c0.117,0.232,0.297,0.42,0.459,0.619c0.189,0.168,0.373,0.352,0.598,0.469
		c0.219,0.16,0.402,0.207,0.639,0.305l0.432,0.098c0.053,0.012,0.238,0.01,0.352,0.018c0.266,0.031,0.52-0.041,0.779-0.068
		c0.246-0.084,0.506-0.139,0.732-0.275c0.248-0.098,0.443-0.277,0.66-0.438l0.281-0.291c0.09-0.1,0.143-0.217,0.221-0.328
		c0.08-0.104,0.139-0.238,0.184-0.381c0.045-0.133,0.119-0.291,0.129-0.406c0.037-0.283,0.061-0.57,0.088-0.859
		c0.006-0.588-0.043-1.184-0.104-1.766l0.24,0.24c-0.533,0.045-1.066,0.117-1.598,0.133c-0.533,0.021-1.066,0.004-1.598-0.01
		C96.151,61.645,95.102,61.557,94.053,61.37z"/>
	<g>
		<path fill-rule="evenodd" clip-rule="evenodd" fill="#757F92" d="M93.911,44.194c-0.229-0.01-0.488-0.184-0.6-0.514
			c-0.346-1.018-0.684-2.043-1.004-3.07c-0.129-0.416,0.139-0.861,0.539-0.986c0.414-0.131,0.873,0.066,1.012,0.48
			c0.352,1.031,0.691,2.066,1.004,3.107C95.016,43.721,94.583,44.209,93.911,44.194z"/>
		<path fill-rule="evenodd" clip-rule="evenodd" fill="#757F92" d="M100.602,44.211c-0.283-0.184-1.152-1.055-1.152-1.055
			c0.869-1.738,0-3.482,2.609-3.482c0,1.744-0.869,2.613-0.725,4.014C101.223,44.036,100.942,44.215,100.602,44.211z"/>
		<path fill-rule="evenodd" clip-rule="evenodd" fill="#757F92" d="M88.616,47.979c-0.162-0.068-0.336-0.113-0.475-0.205
			c-0.801-0.521-1.572-1.035-2.373-1.623c-0.441-0.324-0.541-0.797-0.264-1.186c0.281-0.4,0.787-0.457,1.23-0.137
			c-0.344,1.809,3.141,0.939,2.734,2.592C89.338,47.749,89.016,47.95,88.616,47.979z"/>
		<path fill-rule="evenodd" clip-rule="evenodd" fill="#757F92" d="M108.411,62.508c-1.131-1.074-2.002-1.074-2.871-1.945
			c0-0.871,0-0.871,0-1.74c1.74,0.002,2.609,0.871,3.48,1.74c0,0,0,0.871,0.197,1.324C109.083,62.247,108.799,62.458,108.411,62.508
			z"/>
		<path fill-rule="evenodd" clip-rule="evenodd" fill="#757F92" d="M106.114,48.229c-1.445,0.15,0.295-0.721-0.574-1.592
			c1.74,0,1.74-1.74,3.48-1.74c0,0.434-0.012,1.068-0.342,1.67c-0.332,0.604-0.967,1.189-2.201,1.514
			C106.346,48.17,106.18,48.206,106.114,48.229z"/>
		<path fill-rule="evenodd" clip-rule="evenodd" fill="#757F92" d="M86.389,62.331c-1.734-0.027,0.002-0.896-0.867-1.768
			c1.742,0.871,2.611-1.74,4.354-0.871c-0.869,0.871-1.742,2.611-3.148,2.539C86.614,62.309,86.448,62.315,86.389,62.331z"/>
		<path fill-rule="evenodd" clip-rule="evenodd" fill="#757F92" d="M84.891,54.417c-1.107,0.055-1.979,0.055-1.979,0.055
			s0-0.871,0-1.74c1.742,0,2.609,0,4.352,0c0,0.869,0,0.869,0,1.74c-0.873,0-1.742,0-2.373-0.059
			C84.891,54.415,84.891,54.415,84.891,54.417z"/>
		<path fill-rule="evenodd" clip-rule="evenodd" fill="#757F92" d="M109.417,54.506c-1.264-0.035-2.137-0.035-2.137-0.035
			s0-0.871,0-1.74c1.74,0,2.611,0,4.352,0c-0.869,0.869,0.871,1.74-0.664,1.816C110.436,54.542,109.92,54.522,109.417,54.506z"/>
	</g>
</g>
</svg>
