<?xml version="1.0" encoding="utf-8"?>
<!-- Generator: Adobe Illustrator 16.0.0, SVG Export Plug-In . SVG Version: 6.00 Build 0)  -->
<!DOCTYPE svg PUBLIC "-//W3C//DTD SVG 1.1//EN" "http://www.w3.org/Graphics/SVG/1.1/DTD/svg11.dtd">
<svg version="1.1" id="Layer_1" xmlns="http://www.w3.org/2000/svg" xmlns:xlink="http://www.w3.org/1999/xlink" x="0px" y="0px"
	 width="190.514px" height="108.333px" viewBox="0 0 190.514 108.333" enable-background="new 0 0 190.514 108.333"
	 xml:space="preserve">
<path fill-rule="evenodd" clip-rule="evenodd" fill="#BFD8D0" d="M170.757,60.891c-0.026-4.824-5.026-2.824-7.026-5.824c4-1,7-4,4-6
	c-2-3-8-1-12.005-0.998c-4.995-3.002,2.005-8.002-1.995-10.002c-1,0-2,1-3,1c-3-3,1-9-2-11c-3-3-5,4-8,4c-6-1,2-7-2-11
	c-4-3-10,2-12,0c-8-5-21-4-29-1c-3,1-5-4-8-5c-5-3-8,2-9,6c-2-3-6-3-6-2c-5,7-10,10-18,9c-2-1-4-2-2-5c-7-1-13,3-17.438,8.578
	c-1.749,1.422-3.562,2.672-5.562,3.422c0,6-5,4-7,8c0,1-1,4,1,5c1,0,2,0,3,0c-1,4-6,9,0,12c3,2,3-5,6-3c3,3-1,7,0,11c1-1,3-2,4-2
	c3,3,1,8,2,12c1.5,4.5,3.5,4,5.5,2.375s4-4.375,5.5-4.375c4.998,0,0,6,1,10c1.5,3.5,4,4.25,6.75,3.875s5.75-1.875,8.25-2.875
	c1,0,2,3,3,4c3,3,7-1,10-2c2.5,2,5.25,1.75,8,1.125s5.5-1.625,8-1.125c2,1,4,3,6,4c6,4,6-5,10-6c2,0,4,3,6,2c4-1,5-4,3-7
	c5,1,7-5,11-7c0,5,8,5,7,11c4,0,5-3,7-6c1,1,2,2,3,3c7,1,6-8,9-11c2-2,8-1,7-8c-1-1,1,1,3.455,1.412
	C170.417,64.493,171.256,63.108,170.757,60.891z"/>
<path fill="#FFFFFF" d="M87.856,63.711c4.326-2.803,6.697-1.559,9.576-1.131c5.283,0.785,3.758,1.184,6.629,1.131
	s3.828-1.428,7.504,0.01c3.678,1.438,7.771-1.941,7.771-1.941s8.072-2.688,9.465,0.441s-2.82,5.025-6.82,7.281
	s-8.896,7.088-18.453,7.92c-3.621,0.316-16.121,1.652-18.712-1.07C80.499,71.813,87.254,62.25,87.856,63.711z"/>
<path fill="#FFFFFF" d="M87.856,63.711c4.326-2.803,6.697-1.758,9.576-1.33c5.283,0.785,3.758,1.383,6.629,1.33"/>
<path fill="#6F7B8B" d="M87.244,77.084c-0.299,0-0.71-0.055-0.971-0.32C86.09,76.577,86,76.299,86.006,75.94
	c0.037-1.945,0.027-3.92,0.017-5.832c-0.007-1.35-0.014-2.699-0.005-4.049c0.003-0.332-0.101-0.605-0.307-0.812
	c-0.283-0.287-0.748-0.426-1.421-0.426c-0.346,0-0.701,0.037-0.998,0.066c-0.196,0.02-0.364,0.039-0.483,0.039
	c-1.391-0.014-1.917-0.436-1.927-0.543c0.015-0.051,0.328-0.326,1.465-0.326h0.001c0.302,0,0.662-0.035,1.069-0.076
	c0.515-0.051,1.097-0.107,1.647-0.107c0.876,0,1.446,0.152,1.696,0.455c0.159,0.191,0.203,0.463,0.133,0.828l-0.117,0.615
	l0.553-0.295c2.23-1.186,4.387-1.762,6.593-1.762c3.121,0,6.158,1.141,9.254,2.41c0.614,0.252,1.269,0.375,1.998,0.375
	c1.079,0,2.149-0.27,3.186-0.529c0.976-0.246,1.896-0.477,2.766-0.477c0.668,0,1.236,0.141,1.74,0.43
	c0.241,0.139,0.547,0.209,0.908,0.209c1.522,0,3.907-1.209,6.011-2.275c1.099-0.557,2.047-1.037,2.62-1.211l0.059-0.016
	c0.354-0.1,0.772-0.15,1.211-0.15c1.459,0,3.117,0.58,3.534,1.875c0.417,1.299-3.307,2.896-5.096,3.664
	c-0.495,0.211-0.898,0.385-1.134,0.51c-1.151,0.607-2.312,1.283-3.54,1.998c-3.846,2.24-7.823,4.555-11.909,5.02
	c-0.729,0.082-1.514,0.123-2.4,0.123c-1.08,0-2.188-0.061-3.258-0.117c-1.074-0.059-2.186-0.119-3.273-0.119
	c0,0-0.36,0.002-0.365,0.002c-0.433,0-0.863-0.023-1.34-0.049c-0.608-0.031-1.288-0.068-1.962-0.068
	c-1.942,0-3.116,0.318-3.695,1.004C88.923,76.69,88.049,77.084,87.244,77.084z M94.595,64.903c-1.638,0-3.263,0.309-4.83,0.916
	c-3.125,1.211-3.083,2.646-3.013,5.025c0.014,0.461,0.028,0.965,0.022,1.521c-0.017,1.488,0.167,2.316,0.612,2.766
	c0.382,0.387,0.908,0.432,1.27,0.432c0.407,0,0.885-0.064,1.438-0.139c0.514-0.068,1.102-0.148,1.77-0.195
	c1.648-0.111,3.283-0.168,4.858-0.168c0.925,0,1.85,0.018,2.778,0.059c0.477,0.02,0.941,0.029,1.394,0.029
	c5.479,0,9.293-1.463,14.413-4.166c3.28-1.729,6.56-3.459,9.833-5.197c0.18-0.094,0.728-0.383,0.705-0.848
	c-0.016-0.311-0.274-0.508-0.488-0.623l0.003-0.014l-0.259-0.102c-0.453-0.178-0.523-0.205-0.577-0.205l-0.099,0.008
	c-0.277-0.055-0.568-0.082-0.87-0.082c-1.878,0-3.914,1.023-5.71,1.926c-0.634,0.318-1.233,0.621-1.763,0.842
	c-1.038,0.436-1.292,0.99-1.537,1.527c-0.166,0.363-0.323,0.705-0.752,1.051c-0.777,0.629-7.086,3.914-10.105,3.914
	c-1.244,0-1.291-0.578-1.31-0.797c0.191-0.197,1.981-0.506,3.419-0.754c3.015-0.521,6.432-1.111,7.271-2.502
	c0.212-0.352,0.254-0.732,0.124-1.131c-0.225-0.695-0.82-1.047-1.77-1.047c-1.036,0-2.361,0.422-3.427,0.762
	c-0.657,0.209-1.279,0.406-1.584,0.42c-0.102,0.004-0.201,0.006-0.3,0.006c-1.805,0-3.271-0.703-4.823-1.449
	c-0.602-0.289-1.214-0.582-1.859-0.842C97.883,65.221,96.256,64.903,94.595,64.903z"/>
<path fill-rule="evenodd" clip-rule="evenodd" fill="#FFFFFF" d="M70.634,64.5c0,0,9.85-1.135,12.175,0.426
	s4.569,9.287,3.197,11.014c-1.372,1.729-2.538,4.229-11.538,2.895c-5.667,0-5.167-1.309-5.167-1.309S67.8,68.167,70.634,64.5z"/>
<path fill-rule="evenodd" clip-rule="evenodd" fill="#FFFFFF" d="M67.342,38.943c0,0,0.146-0.906,1.553,0
	c1.407,0.906,1.671,1.156,2.55,1.469c0.88,0.312,1.568,0.781,1.957,0.938c0.388,0.156,2.117,0.688,3.671,1.344
	s2.96,1.312,2.931,2.594s0.874,1.781-0.854,2.75c-1.726,0.969-1.989,0.469-3.543,1.469s-2.228,0.75-3.106,1.375
	c-0.88,0.625-1.173,0.781-1.817,1.25s-2.579,1.531-2.579,1.531s-2.462-0.531-2.169-2.562s1.935-3.188,2.491-3.156
	s4.976-2.406,4.976-2.406s-4.331-2.479-5.796-2.193C66.139,43.631,67.342,38.943,67.342,38.943z"/>
<path fill-rule="evenodd" clip-rule="evenodd" fill="#FFFFFF" d="M81.517,37.008c0,0,3.058-2.971,6.224-1.721
	c3.165,1.25,5.149,2.896,4.391,5.572c-0.757,2.678-1.51,5.312-3.102,5.645c2.228,1.533,3.752,2.639,3.752,5.148
	s-0.684,7.028-6.496,6.893c-5.814-0.133-7.986-4.133-6.842-8.383c1.146-4.25,3.279-3.658,3.279-3.658S77.405,42.729,81.517,37.008z"
	/>
<path fill="#FFFFFF" d="M112.815,37.697c-4.037,4.695-2.512,18.436,1.738,20.5c4.248,2.064,12.413-2.977,10.55-14.518
	C124.089,37.404,119.124,30.357,112.815,37.697z"/>
<path fill="#FFFFFF" d="M96.354,36.943c-4.332,5.039-2.694,19.782,1.865,21.995c4.558,2.215,13.317-3.193,11.319-15.577
	C108.449,36.629,103.123,29.07,96.354,36.943z"/>
<path fill="#A2D1EB" d="M83.949,38.93c0.825-1.086,4.396-2.857,4.862,1.543C89.548,47.408,79.268,45.076,83.949,38.93z"/>
<path fill="#A2D1EB" d="M88.927,51.744c0.053,1.281-1.4,4.922-4.254,2.395C80.175,50.152,88.63,44.492,88.927,51.744z"/>
<path fill="#A2D1EB" d="M99.935,38.854c2.602-1.582,5.188-1.521,6.825,6.541s-3.366,11.887-5.638,10.409
	c-2.271-1.481-2.949-10.62-0.93-16.42"/>
<path fill="#A2D1EB" d="M114.762,38.779c2.603-1.682,5.189-1.617,6.825,6.957c1.638,8.576-3.367,12.645-5.639,11.071
	S113,45.514,115.02,39.342"/>
<path fill="#6F7B8B" d="M86.125,57.573c-1.152,0-2.271-0.223-3.152-0.629c-0.293-0.16-0.598-0.363-0.881-0.592
	c-0.558-0.447-0.979-0.982-1.254-1.59c-0.091-0.2-0.168-0.415-0.23-0.637c-0.331-1.766-0.178-3.195,0.477-4.342
	c0.209-0.367,0.477-0.709,0.793-1.02c0.845-0.186,1.301-0.689,1.671-1.1c0.377-0.416,0.648-0.717,1.234-0.717l0.163-0.734
	c-1.397-0.746-2.1-1.492-3.088-2.633c-0.152-0.225-0.305-0.502-0.422-0.789c-0.24-0.576-0.361-1.227-0.361-1.93
	c0-1.416,0.484-2.545,1.48-3.449c0.998-0.906,2.252-1.367,3.723-1.367c1.451,0,2.698,0.461,3.707,1.367
	c1.004,0.906,1.493,2.023,1.493,3.418c0,0.312-0.025,0.619-0.075,0.912c-0.327,0.467-0.563,0.988-0.795,1.494
	c-0.371,0.818-0.722,1.592-1.436,2.18c-0.422,0.348-0.935,0.6-1.566,0.768l-0.623,0.168l0.454,0.484
	c0.306,0.324,0.696,0.52,1.037,0.666c0.134,0.057,0.27,0.111,0.405,0.166c0.574,0.229,1.119,0.445,1.465,0.902
	c0.352,0.354,0.619,0.67,0.834,0.977c0.634,0.912,0.954,1.949,0.954,3.084c0,0.496-0.061,0.967-0.18,1.402
	c-0.119,0.432-0.299,0.84-0.536,1.211c-0.231,0.363-0.522,0.705-0.869,1.014c-0.423,0.223-0.778,0.408-1.126,0.58
	C88.532,57.315,87.367,57.573,86.125,57.573z M86.185,47.268c-0.78,0-1.332,0.533-1.817,1.004c-0.295,0.285-0.573,0.555-0.848,0.652
	l-0.085,0.027l-0.06,0.068c-0.401,0.432-0.728,0.908-0.97,1.416c-0.54,1.137-0.613,2.316-0.212,3.41
	c0.218,0.6,0.58,1.165,1.075,1.682c0.713,0.779,1.522,1.178,2.399,1.178c1.464,0,2.896-1.111,4.104-2.2l0.044-0.041l0.029-0.053
	c0.262-0.451,0.429-0.955,0.494-1.496c0.07-0.574,0.029-1.197-0.124-1.85c-0.146-0.512-0.361-0.969-0.642-1.377
	c-0.185-0.27-0.432-0.555-0.732-0.844c-0.299-0.283-0.654-0.58-1.059-0.881C87.227,47.5,86.698,47.268,86.185,47.268z
	 M86.306,36.951c-1.088,0-1.984,0.363-2.665,1.08c-0.686,0.717-1.032,1.648-1.032,2.766c0,0.523,0.066,1.01,0.196,1.445
	c0.132,0.445,0.335,0.848,0.601,1.197c1.311,1.25,2.875,1.959,4.444,2.041l0.125,0.008l0.103-0.078
	c0.483-0.363,0.718-0.932,0.854-1.328c0.106-0.314,0.194-0.656,0.282-1.01c0.18-0.709,0.362-1.441,0.751-2.018l0.067-0.1V40.83
	c0-0.557-0.088-1.072-0.26-1.533c-0.174-0.465-0.439-0.887-0.786-1.25C88.294,37.32,87.392,36.951,86.306,36.951z"/>
<path fill="#6F7B8B" d="M102.251,57.93c-0.899,0-1.819-0.318-2.728-0.947c-0.363-0.25-0.729-0.553-1.09-0.9
	c-0.123-0.248-0.253-0.5-0.385-0.758c-0.92-1.795-1.964-3.831-1.849-6.387c-0.034-0.574-0.055-1.107-0.059-1.635
	c-0.002-0.266,0-0.529,0.004-0.787c-0.083-3.025,0.655-5.35,1.422-7.473c0.082-0.301,0.177-0.559,0.295-0.793
	c0.925-1.863,2.987-2.18,4.136-2.205c0.18,0,0.361,0.01,0.539,0.027c0.873,0.088,1.646,0.4,2.299,0.926
	c0.529,0.428,0.979,0.961,1.337,1.584c0.173,0.301,0.328,0.631,0.462,0.98c0.048,0.426,0.117,0.879,0.213,1.379
	c0.877,2.643,0.856,5.775,0.842,7.852c-0.015,0.457-0.029,0.902-0.051,1.312c-0.015,0.111-0.031,0.232-0.05,0.357
	c-0.969,0.488-0.86,1.551-0.78,2.34c0.033,0.324,0.064,0.631,0.029,0.865c-0.048,0.121-0.115,0.312-0.187,0.502
	c-0.138,0.365-0.299,0.711-0.479,1.026l-0.023,0.041l-0.013,0.045c-0.102,0.344-0.313,0.713-0.614,1.07
	c-0.308,0.367-0.699,0.709-1.132,0.986C103.694,57.727,102.969,57.93,102.251,57.93z M101.877,36.986
	c-0.756,0-1.41,0.258-1.941,0.768c-0.168,0.162-0.326,0.352-0.471,0.564c-1.7,1.676-1.464,3.629-1.232,5.521
	c0.133,1.1,0.271,2.236,0.003,3.32l-0.015,0.055c0,0,0.052,1.879,0.068,2.357c-0.044,2.361-0.073,4.082,1.155,5.545
	c0.627,0.625,1.165,0.994,1.671,1.154c0.213,0.068,0.42,0.102,0.634,0.102c0.473,0,0.876-0.16,1.303-0.332
	c0.176-0.068,0.357-0.143,0.551-0.205c0.535-0.277,0.905-0.641,1.186-1.139c0.128-0.229,0.247-0.463,0.355-0.702
	c0.106-0.238,0.203-0.479,0.289-0.723c0.539-1.826,0.706-3.428,0.79-4.623c0.035-0.473,0.059-0.939,0.078-1.398l-0.013-0.438
	c-0.042-1.207-0.069-2.004-0.352-3.445l-0.138-0.586c-0.076-0.334-0.153-0.66-0.221-0.979c-0.117-0.557-0.186-0.99-0.213-1.365
	l-0.004-0.043l-0.011-0.043c-0.079-0.27-0.165-0.523-0.257-0.758c-0.314-1.691-1.088-2.584-2.276-2.584
	c-0.101,0-0.204,0.006-0.31,0.02c-0.163-0.029-0.334-0.043-0.506-0.043L101.877,36.986z"/>
<path fill="#6F7B8B" d="M117.266,57.961c-0.613,0-1.092-0.188-1.462-0.576l-0.047-0.049l-0.061-0.027
	c-0.295-0.141-0.577-0.318-0.838-0.529c-0.795-0.641-1.406-1.518-1.815-2.61c-0.425-1.135-0.732-2.309-0.915-3.488
	c-0.031-0.199-0.061-0.4-0.085-0.602c0.029-0.441,0.026-1.227-0.042-1.822c0.013-0.344,0.023-0.746,0.04-1.15
	c0.01-0.27,0.022-0.539,0.035-0.809c0.015-0.27,0.031-0.541,0.05-0.811c-0.057-2.879,0.718-5.855,2.025-7.807
	c0.086-0.098,0.202-0.225,0.324-0.344c0.123-0.119,0.251-0.232,0.383-0.34c0.784-0.633,1.742-0.953,2.846-0.953
	c1.104,0,2.061,0.32,2.846,0.953c0.165,0.133,0.323,0.277,0.473,0.43c0.15,0.154,0.292,0.316,0.424,0.49
	c0.743,1.348,1.289,2.756,1.64,4.256c0.065,0.281,0.122,0.559,0.174,0.836l0.013,0.068l0.033,0.061
	c0.641,1.117,0.419,2.639,0.203,4.109c-0.152,1.043-0.295,2.029-0.15,2.895c-0.023,0.18-0.088,0.615-0.088,0.615l0.015,0.074
	c0.04,0.18,0.055,0.357,0.048,0.539c-0.361,0.711-0.598,1.439-0.826,2.145c-0.441,1.35-0.822,2.516-1.929,3.245
	c-0.453,0.281-0.905,0.521-1.341,0.713C118.496,57.797,117.833,57.961,117.266,57.961z M113.557,44.549
	c0,0.281,0.005,0.564,0.018,0.85c0.056,1.328,0.229,2.68,0.397,3.986c0.098,0.764,0.194,1.512,0.263,2.227
	c0.057,0.59,0.086,1.1,0.093,1.555c0.233,1.271,0.943,2.196,2.014,2.676c0.467,0.211,0.987,0.32,1.504,0.32l0.099,0.002
	c3.422,0.002,3.581-4.586,3.658-6.79l0.011-0.316c-0.055-0.607-0.104-1.195-0.111-1.783c0.01-0.396,0.011-0.82,0.01-1.264
	c-0.002-0.441-0.01-0.9-0.019-1.385c-0.01-0.566-0.029-1.129-0.061-1.684c-0.029-0.557-0.073-1.104-0.13-1.639
	c-0.102-0.523-0.229-0.984-0.387-1.406c-0.354-0.945-0.863-1.723-1.558-2.383c-0.195-0.143-0.364-0.236-0.538-0.311
	s-0.355-0.131-0.542-0.168c-0.182-0.035-0.374-0.055-0.573-0.055h-0.081l-0.073,0.037c-0.612,0.305-1.158,0.67-1.623,1.084
	c-0.224,0.201-0.436,0.416-0.63,0.646l-0.07,0.082l-0.018,0.111c-0.062,0.373-0.336,0.811-0.652,1.314
	C113.88,41.344,113.037,42.689,113.557,44.549z"/>
<g>
	<path fill="none" d="M70.584,48.104c0.559-0.311,1.075-0.58,1.604-0.84c1.025-0.506,2.05-0.941,3.202-1.359
		c-0.422-0.619-1.14-0.814-1.895-1.018c-0.929-0.25-1.883-0.51-2.435-1.541c-0.151-0.146-0.295-0.248-0.452-0.334
		c-0.511-0.277-1.159-0.379-1.847-0.486c-0.26-0.039-0.527-0.082-0.797-0.133v6.678c0.123-0.031,0.245-0.066,0.366-0.098
		C69.17,48.752,70.009,48.531,70.584,48.104z"/>
	<path fill="#6F7B8B" d="M68.302,51.664c-0.117-0.967-0.127-1.842-0.017-2.182c0.065-0.006,0.113-0.014,0.157-0.023
		c0.87-0.23,1.763-0.465,2.408-0.945c0.501-0.273,1.011-0.539,1.534-0.797c1.012-0.5,2.016-0.926,3.156-1.34l0.602-0.219
		l-0.374-0.549c-0.521-0.766-1.354-0.99-2.158-1.207c-0.869-0.234-1.688-0.457-2.142-1.305l-0.038-0.068l-0.056-0.055
		c-0.173-0.166-0.349-0.297-0.554-0.408c-0.583-0.316-1.299-0.428-1.992-0.535c-0.156-0.023-0.315-0.049-0.476-0.076
		c-0.183-0.932-0.235-1.871-0.106-2.072c0.157,0.014,0.413,0.205,0.618,0.357c0.225,0.168,0.457,0.342,0.709,0.424
		c0.618,0.199,1.107,0.359,1.364,0.621l0.06,0.061l1.99,0.934l0.06,0.012c0.941,0.16,1.824,0.713,2.68,1.246
		c0.793,0.496,1.535,0.961,2.236,1.084l0.585,0.268c0.128,0.287,0.381,1.039-0.035,1.84c-0.082,0.043-0.264,0.109-0.418,0.148
		l-0.081,0.02l-0.07,0.051c-1.173,0.836-2.344,1.24-3.582,1.668c-0.785,0.271-1.586,0.549-2.393,0.932
		c-0.545,0.262-1.039,0.545-1.509,0.863l-0.044,0.031l-0.053,0.004c-0.785,0.062-1.402,0.621-1.997,1.16
		C68.345,51.625,68.324,51.645,68.302,51.664z"/>
</g>
<path fill="#A5BECD" d="M72.573,66.102c0,0,10.742-0.209,11.082,1.992c0.338,2.201,2.434,7.361,0,8.789
	c-2.436,1.428-9.631,0.199-11.082-0.998C71.122,74.686,72.573,66.102,72.573,66.102z"/>
<path fill="#F69A81" d="M90.471,68.788c0,0,4.863-2.576,7.414-0.934c2.551,1.645,10.945,3.26,14.34,2.35
	c3.396-0.912-11.098,1.164-10.877,3.287c0.221,2.121,1.98,2.145,1.98,2.145s-14.781,0.438-14.213-1.441
	C89.684,72.317,87.895,70.6,90.471,68.788z"/>
<path fill-rule="evenodd" clip-rule="evenodd" fill="#F69A81" d="M106.134,73.772c0,0,12.959-4.416,17.518-8.365
	c4.557-3.947-5.141-0.604-5.58,0.662C117.634,67.334,106.134,73.772,106.134,73.772z"/>
</svg>
