<?xml version="1.0" encoding="utf-8"?>
<!-- Generator: Adobe Illustrator 16.0.0, SVG Export Plug-In . SVG Version: 6.00 Build 0)  -->
<!DOCTYPE svg PUBLIC "-//W3C//DTD SVG 1.1//EN" "http://www.w3.org/Graphics/SVG/1.1/DTD/svg11.dtd">
<svg version="1.1" id="Layer_1" xmlns="http://www.w3.org/2000/svg" xmlns:xlink="http://www.w3.org/1999/xlink" x="0px" y="0px"
	 width="190.513px" height="108.333px" viewBox="0 0 190.513 108.333" enable-background="new 0 0 190.513 108.333"
	 xml:space="preserve">
<g>
	<path fill-rule="evenodd" clip-rule="evenodd" fill="#C1D9D1" d="M171.254,63.329c-0.943-3.592-4.584-3.592-8.223-5.412
		c0.91-1.818,2.729-1.818,4.549-1.818c1.82-1.82,0-4.551,1.82-6.369c-5.459-1.82-10.92-0.91-16.379,1.818
		c-0.908-1.818-2.728-1.818-2.729-4.549c0.002-0.91,1.821-0.91,2.729-0.91c0.91-1.818-1.818-3.639-0.908-5.459
		c-0.91,1.82-2.729,0-3.64,1.82c-0.91-4.551,0.91-10.008-0.91-14.559c-4.549,0-5.459,5.459-9.1,8.189c-0.909,0-1.819,0-1.819-0.91
		c0-1.82,0-3.641,0-5.459c0.91-0.91,0.91-0.91,1.819-1.82c0-1.818,0.91-3.639-1.373-5.482c-1.902-1.926-5.455-4.283-8.32-1.258
		c-1.685,1.777-2.101,3.906-4.498,2.482c-1.332-0.793-1.471-3.205-2.266-4.627c-1.245-2.227-4.008-2.889-6.289-1.777
		c-1.713,0.836-2.544,2.668-4.34,2.459c-2.823-0.326-4.193-4.141-7.946-3.682c-1.693,0.207-3.126,1.451-4.654,2.596
		c-2.374,1.781-3.73,1.275-6.167,0.18c-3.404-1.529-8.348-8.693-13.248-3.275c-1.405,1.555-1.159,4.732-2.332,5.998
		c-1.551,1.67-3.549-1.186-5.069-1.406c-3.358-0.48-6.822,2.396-4.995,6.867c0.084,0.209,0.186,0.395,0.292,0.574
		c-0.891-0.289-1.918-0.232-3.112,0.314c-1.901,0.873-6.209,7.4-8.23,4.814c-0.954-1.219-0.019-3.289-1.488-4.094
		c-1.444-0.793-2.955,0.787-4.274,0.178c-2.242-1.035,1.576-6.418-3.016-5.254c-1.715,0.434-2.981,2.545-4.475,3.725
		c-1.552,1.229-1.247,1.205-2.463-0.037c-0.535-0.547,0.108-0.625-0.662-0.924c-1.016-0.391-2.683,0.479-3.715,0.965
		c-1.868,0.881-1.793,1.158-2.291,3.305c-0.318,1.383-0.746,3.871-2.068,4.473c-0.998,0.453-1.736-0.553-2.674-0.457
		c-3.41,0.342-1.287,3.25-2.256,5.338c-1.274,2.75-2.749-0.613-4.935,0.803c-1.667,1.078-2.846,2.502-2.446,4.564
		c0.164,0.869,0.731,2.711,1.362,3.133c1.095,0.734,4.735-1.789,4.625,0.846c-0.063,1.551-1.997,2.59-2.811,3.686
		c-1.623,2.186-1.685,3.744-0.026,5.246c1.544,1.398,4.4,3.125,6.614,0.98c1.301-1.262,1.593-2.783,3.518-1.74
		c0.986,0.535,1.2,2.037,1.738,3.074c-0.648,0.865-1.413,0.918-1.906,2.297c-0.396,1.102-0.224,3.607,0.181,4.064
		c0.965,1.09,3.033-1.293,4.254-1.365c0.587-0.035,1.132,0.519,1.528,1.347s0.644,1.93,0.633,2.991
		c-0.348,2.923-1.348,7.923,1.652,9.923c5,2,5-8,10-5c3,2-1,7,0,11c0.667,1.667,1.777,2.444,3.074,2.667
		c1.296,0.222,2.777-0.111,4.186-0.667c0.623-0.667,1.281-1.167,1.946-1.514c0.664-0.348,1.335-0.542,1.982-0.598
		c2.812-0.889,5.812,2.111,4.812,5.111c8-3,15,3,22.689-1.001c1.186-0.891,2.117-1.209,3.058-1.168s1.89,0.441,3.108,0.99
		c3.403,1.527,8.346,8.689,13.246,3.271c1.407-1.553,1.16-4.732,2.332-5.994c1.553-1.674,3.549,1.182,5.07,1.402
		c3.357,0.482,6.822-2.395,4.996-6.865c-0.084-0.209-0.188-0.396-0.292-0.574c0.889,0.289,1.915,0.232,3.095-0.309
		c1.855-0.854,5.718-7.367,7.502-4.676c0.848,1.289,0.098,3.359,1.352,4.229c3.871-1.723,4.072,3.039,5.102,5.855
		c0.774,0.098,1.563,0.197,2.274-0.604c0.64-1.781,2.353-2.557,3.113-4.529c3.099-0.771,2.523,4.307,5.88,3.744
		c2.491-0.281,4.044-1.438,5.017-3.266c0.975-1.826,1.273-4.398,1.203-7.199c2.516-2.291,6.662,0.721,8.861-1.476
		c1.811-1.865,0.404-4.002-0.039-6.102c2.066-0.523,3.48,2.793,5.35,1.525C170.896,67.009,171.861,65.606,171.254,63.329z"/>
	<g>
		<path fill-rule="evenodd" clip-rule="evenodd" fill="#CFCECD" d="M88.679,71.153c0.396-0.17,0.792-0.328,1.181-0.484
			c0.646-0.26,1.257-0.506,1.857-0.791c1.3-0.621,2.221-1.293,2.986-2.182l0.098-0.111l0.119-0.088
			c0.792-0.59,1.536-1.117,2.299-1.658l0.287-0.203c0.633-0.523,1.299-1.051,1.889-1.516l0.328-0.26l0.33-0.061
			c0.027-0.006,0.053-0.014,0.08-0.025c0.229-0.109,0.519-0.502,0.775-0.848c0.415-0.559,0.887-1.193,1.639-1.553
			c0.204-0.098,0.413-0.166,0.629-0.209c1.032-0.928,1.284-2.197,1.598-3.771c0.241-1.211,0.515-2.586,1.216-3.926l0.208-0.398
			l0.405-0.193c0.373-0.178,0.752-0.359,1.133-0.52c-0.059-0.195-0.1-0.373-0.133-0.518c-0.026-0.117-0.047-0.227-0.078-0.312
			c-0.281-0.865-0.728-1.553-1.389-2.162c-1.153-1.062-2.835-1.746-4.46-2.408c-1.05-0.43-2.13-0.869-3.109-1.424
			c-2.712,1.4-4.603,3.066-6.243,4.67l-0.062,0.059c-0.718,0.617-1.675,1.422-2.709,2.164c-1.072,0.77-2.104,1.389-3.155,1.891
			c-0.243,0.141-0.933,0.963-1.161,1.609L85.05,56.45c0,0-1.855,0.887-2.494,1.193c0.271,1.348-0.015,2.74-0.826,3.816
			c-0.548,1.121-1.472,2.037-2.756,2.73c0.849,1.408,1.523,2.781,2.324,4.484c0.667,0.33,1.514,0.49,2.473,0.672
			c0.228,0.045,0.457,0.086,0.688,0.133C85.773,69.745,87.262,70.116,88.679,71.153z"/>
		<path fill-rule="evenodd" clip-rule="evenodd" fill="#FFFFFF" d="M94.548,65.479c-1.424,1.15-3.326,0.059-4.453,0.598
			c-2.985-1.91-4.54-5.168-3.523-8.773c0.158-0.793,0.407-1.576,0.742-2.326c0.334-0.748,0.751-1.459,1.241-2.105
			c0.653-0.865,1.437-1.613,2.325-2.182c1.699-1.135,3.085-1.127,4.471-1.123c3.289,1.096,4.281,4.623,4.45,7.875
			c-0.304,0.812-0.499,1.529-0.73,2.307c0.293,2.57-1.655,2.834-2.328,4.254C96.096,64.599,95.359,65.101,94.548,65.479z"/>
		<path fill-rule="evenodd" clip-rule="evenodd" fill="#FFFFFF" d="M90.601,76.049c-3.904,1.863-7.65,2.421-10.833,1.609
			l-1.189-0.303l0.176-1.214c0.105-0.745-0.062-1.564-0.545-2.655c-0.843-1.625-1.771-3.178-2.669-4.68
			c-2.082-3.483-4.236-7.088-5.266-11.555l-0.246-1.065l0.987-0.471c1.758-0.84,3.5-1.216,4.972-1.473
			c0.596-0.103,1.188-0.194,1.774-0.283c0.878-0.135,1.712-0.261,2.477-0.422c1.987-0.964,3.53-2.479,5.163-4.081
			c1.312-1.287,2.669-2.62,4.339-3.746c0.677-0.456,1.377-0.859,2.082-1.194c0.174-0.085,0.352-0.165,0.53-0.242l0.088-0.038
			l0.094-0.026c0.158-0.043,0.311-0.101,0.467-0.174c0.616-0.295,1.178-0.824,1.772-1.382c0.714-0.673,1.523-1.436,2.599-1.948
			c0.452-0.216,0.929-0.376,1.414-0.473l0.104-0.018c0.985-0.123,1.767-0.319,2.591-0.529c0.869-0.22,1.768-0.448,2.924-0.592
			l0.4-0.049l0.362,0.176c3.415,1.651,4.762,5.051,5.847,8.391l0.29,0.907c0.176,0.552,0.348,1.091,0.523,1.602
			c2.685,2.309,3.966,5.552,5.003,8.177c0.206,0.519,0.402,1.022,0.604,1.491l0.029,0.067l0.021,0.069
			c0.094,0.313,0.077,0.58,0.06,0.861c-0.006,0.097-0.012,0.22-0.021,0.38l-0.035,0.938l-0.891,0.303
			c-1.366,0.461-2.774,0.784-4.136,1.099c-2.128,0.489-4.33,0.998-6.549,2.057l-0.134,0.063c-0.4,0.176-0.745,0.331-1.088,0.495
			c-0.511,0.244-1.014,0.503-1.491,0.769c-0.856,0.475-1.684,0.998-2.456,1.552c-0.686,0.532-1.405,1.13-2.097,1.742
			c-0.709,0.625-1.406,1.287-2.075,1.962l-0.043,0.046l-0.048,0.04C94.687,73.75,92.651,75.068,90.601,76.049z M88.683,71.362
			c0.396-0.172,0.792-0.33,1.181-0.484c0.646-0.262,1.258-0.506,1.857-0.793c1.3-0.621,2.221-1.293,2.986-2.18l0.097-0.113
			l0.12-0.088c0.793-0.588,1.536-1.115,2.3-1.658l0.287-0.203c0.633-0.523,1.299-1.049,1.889-1.516l0.328-0.26l0.33-0.061
			c0.026-0.004,0.052-0.012,0.079-0.025c0.229-0.109,0.52-0.5,0.775-0.846c0.416-0.561,0.888-1.193,1.639-1.553
			c0.203-0.098,0.414-0.166,0.63-0.211c1.031-0.928,1.284-2.195,1.598-3.77c0.24-1.213,0.514-2.588,1.215-3.926l0.207-0.398
			l0.405-0.193c0.376-0.18,0.754-0.359,1.134-0.521c-0.058-0.193-0.098-0.371-0.133-0.516c-0.025-0.117-0.047-0.227-0.078-0.312
			c-0.279-0.867-0.728-1.553-1.389-2.162c-1.153-1.062-2.835-1.748-4.46-2.408c-1.049-0.43-2.129-0.869-3.109-1.424
			c-2.712,1.4-4.602,3.066-6.243,4.67l-0.062,0.057c-0.719,0.617-1.674,1.424-2.708,2.166c-1.073,0.77-2.105,1.389-3.156,1.889
			c-0.243,0.141-0.932,0.965-1.16,1.609l-0.187,0.527c0,0-1.854,0.885-2.494,1.191c0.271,1.35-0.015,2.742-0.826,3.818
			c-0.547,1.121-1.472,2.037-2.755,2.729c0.849,1.41,1.522,2.783,2.323,4.486c0.667,0.328,1.514,0.488,2.474,0.672
			c0.227,0.043,0.457,0.086,0.688,0.133C85.777,69.952,87.267,70.325,88.683,71.362z"/>
		<path fill-rule="evenodd" clip-rule="evenodd" fill="#FFFFFF" d="M115.679,60.716c-3.39,1.146-7.009,1.383-10.831,3.244
			c-0.876,0.379-1.745,0.799-2.607,1.277c-0.86,0.479-1.713,1.012-2.555,1.615c-0.735,0.57-1.461,1.172-2.175,1.805
			c-0.716,0.631-1.42,1.297-2.113,1.998c-4.114,3.472-10.19,6.375-15.287,5.076c0.172-1.201-0.183-2.338-0.655-3.394
			c-2.799-5.402-6.334-9.684-7.729-15.732c1.519-0.727,3.031-1.074,4.556-1.34c1.523-0.266,3.051-0.445,4.398-0.74
			c3.897-1.824,6.072-5.447,9.688-7.887c0.724-0.486,1.505-0.928,2.357-1.297c2.408-0.658,3.36-3.35,6.082-3.904
			c2.113-0.262,3.328-0.842,5.441-1.104c2.91,1.408,4.096,4.479,5.072,7.48c0.324,1,0.618,1.975,0.938,2.857
			c3.092,2.477,4.225,6.412,5.438,9.268C115.731,60.054,115.698,60.216,115.679,60.716z M76.818,63.427
			c1.372,2.029,2.242,3.854,3.271,6.049c1.097,0.703,2.487,0.877,3.933,1.168c1.446,0.291,2.945,0.695,4.277,1.924
			c2.431-1.158,5.151-1.713,7.253-4.148c0.896-0.666,1.731-1.252,2.603-1.871c0.661-0.547,1.359-1.098,1.97-1.58
			c1.57-0.287,1.917-2.691,3.421-2.662c2.748-2.059,1.905-5.387,3.467-8.371c1.215-0.58,2.43-1.16,3.327-0.842
			c-1.505-0.027-1.478-1.533-1.726-2.195c-0.354-1.104-0.97-1.975-1.736-2.68c-2.301-2.119-5.962-2.752-8.415-4.377
			c-3.039,1.451-5.179,3.219-7.25,5.242c-0.842,0.723-1.7,1.434-2.616,2.092c-0.915,0.656-1.887,1.26-2.949,1.768
			c-0.608,0.291-1.534,1.479-1.851,2.377c-1.216,0.58-1.824,0.869-3.065,1.469c0.603,1.199,0.579,2.701-0.326,3.805
			C79.894,61.733,78.778,62.765,76.818,63.427z"/>
		<path fill-rule="evenodd" clip-rule="evenodd" fill="#A6D1A8" d="M115.11,61.247c-6.453-0.496-10.947,3.137-15.399,6.943
			c-2.518,2.152-5.104,4.246-7.802,6.166c-2.552,1.814-5.506,2.725-8.659,2.756c-0.557,0.006-1.422-0.318-1.631-0.742
			c-3.056-6.228-6.023-12.5-9.101-18.945c1.354-0.1,2.504-0.125,3.636-0.279c3.672-0.5,6.666-2.41,9.466-4.682
			c3.245-2.631,6.402-5.377,9.74-7.883c2.705-2.029,5.85-3.15,9.277-3.168c0.584-0.002,1.475,0.41,1.708,0.885
			c2.981,6.074,5.87,12.191,8.776,18.303C115.165,60.694,115.122,60.829,115.11,61.247z M77.396,63.595
			c1.107,2.32,2.075,4.439,3.145,6.506c0.207,0.398,0.785,0.791,1.234,0.85c2.587,0.328,4.888,1.172,6.81,3.64
			c2.533-1.857,5.002-3.648,7.447-5.464c3.589-2.668,7.169-5.348,10.729-8.053c0.328-0.25,0.729-0.752,0.686-1.084
			c-0.325-2.484,0.643-4.172,3.076-5.102c-0.999-2.092-1.871-4.129-2.946-6.051c-0.343-0.613-1.173-1.045-1.871-1.352
			c-1.392-0.609-3.241-0.695-4.189-1.684c-1.736-1.807-3.102-1.309-4.711-0.162c-0.45,0.32-0.941,0.588-1.372,0.93
			c-4.882,3.877-9.756,7.762-14.865,11.832C80.918,60.458,80.399,62.569,77.396,63.595z"/>
		<path fill="#757F92" d="M113.634,57.024c-0.072-0.152-0.146-0.307-0.218-0.459c-0.224-0.281-0.427-0.578-0.618-0.883
			c-0.434-0.416-0.801-0.91-1.068-1.48c-0.285-0.615-0.441-1.154-0.525-1.717c-0.195-0.357-0.365-0.725-0.49-1.102
			c-0.198-0.246-0.381-0.506-0.539-0.789c-0.428-0.479-0.725-1.031-0.9-1.627c-0.388-0.613-0.76-1.236-1.086-1.889
			c-0.084-0.17-0.157-0.344-0.221-0.52c-0.195-0.359-0.346-0.742-0.442-1.139c-0.549-0.998-0.854-2.074-0.835-3.129
			c-0.09-0.189-0.183-0.375-0.288-0.547c-0.463-0.766-1.112-1.332-2.279-1.41c-2.182,0.074-4.902,0.625-6.532,1.463
			c-1.024,0.477-2.01,1.07-2.945,1.773c-2.267,1.701-4.483,3.541-6.628,5.318c-0.519,0.432-1.037,0.859-1.558,1.289
			c-0.689,1.68-3.701,1.625-4.18,3.217c-0.412,0.271-0.815,0.521-1.213,0.748c-0.397,0.225-0.789,0.43-1.179,0.615
			c-0.716,0.344-1.426,0.621-2.137,0.838c-0.713,0.219-1.428,0.375-2.156,0.475c-1.054,0.402-2.56,0.373-4.064,0.346
			c0.388,0.811,0.806,1.689,1.236,2.594c0.217,0.451,0.435,0.91,0.652,1.371c0.628,1.312,1.208,2.523,1.761,3.684
			c0.276,0.578,0.547,1.146,0.813,1.705c0.592,1.238,1.159,2.426,1.728,3.611c0.896,1.551,1.911,3.109,2.755,4.691
			c0.213,0.316,0.411,0.641,0.57,0.979c0.105,0.225,1.029,1.893,0.433,1.145c0.072,0.09,0.137,0.188,0.203,0.279
			c0.363,0.152,0.76,0.234,1.057,0.232c2.354-0.023,4.573-0.523,6.598-1.49c0.781-0.373,1.541-0.82,2.255-1.328
			c0.78-0.557,1.573-1.148,2.381-1.765c0.277-0.328,0.602-0.617,0.954-0.871c1.681-2.006,4.011-3.623,5.967-5.195
			c3.261-2.621,7.016-5.711,11.438-5.428c0.172-0.057,0.37-0.037,0.58,0.012c0.359-0.041,0.709,0.068,0.979,0.285
			c0.508,0.111,0.976,0.055,1.243-0.701C115.45,59.327,114.263,58.403,113.634,57.024z M109.454,49.874
			c0.383,0.801,0.77,1.592,1.111,2.266c0.414,0.869,0.826,1.734,1.236,2.596c0.409,0.863,0.818,1.723,1.223,2.578
			c0,0,0.318,0.662,0.636,1.324c0.284,0.662,0.284,0.662,0.575,1.27c-0.608,0.291-2.113,0.264-2.517,0.312
			c-0.843,0.098-1.675,0.268-2.503,0.512c-0.827,0.244-1.649,0.562-2.472,0.955c-2.771,1.322-5.155,3.275-7.765,5.508
			c-2.905,2.484-5.377,4.438-7.779,6.146c-2.451,1.744-5.342,2.664-8.467,2.693c-0.49,0.006-1.195-0.291-1.324-0.553
			c-1.438-2.947-2.889-5.986-4.385-9.105c-0.229-0.486-0.462-0.975-0.696-1.467c-0.705-1.479-1.425-2.986-2.144-4.482
			c-0.19-0.398-0.379-0.793-0.565-1.182c-0.374-0.775-0.739-1.529-1.094-2.256c0.263-0.018,0.519-0.031,0.77-0.047
			c0.832-0.051,1.617-0.098,2.392-0.203c0.764-0.105,1.513-0.27,2.258-0.496c0.744-0.229,1.486-0.518,2.234-0.877
			c1.608-0.766,3.242-1.842,5.142-3.383c1.048-0.85,2.088-1.713,3.128-2.574c2.137-1.775,4.349-3.609,6.601-5.301
			c0.898-0.674,1.842-1.24,2.822-1.699c1.033-0.551,3.145-0.812,4.632-1.307c0.537-0.061,1.077-0.092,1.623-0.094
			c1.007,0.189,1.576,0.812,2.021,1.652c0.224,0.418,0.416,0.893,0.617,1.393c0.199,0.471,0.402,0.936,0.613,1.404
			c0.238,0.541,0.428,0.963,0.633,1.398C108.433,47.755,109.013,48.97,109.454,49.874z"/>
		<path fill="#757F92" d="M107.356,47.931c-0.396-0.711-1.293-1.172-2.029-1.494c-0.525-0.23-1.107-0.389-1.67-0.541
			c-0.963-0.26-1.871-0.506-2.411-1.068c-1.286-1.336-2.503-1.625-3.95-0.936c-0.356,0.17-0.737,0.404-1.2,0.732
			c-0.181,0.129-0.368,0.25-0.556,0.367c-0.276,0.178-0.563,0.361-0.83,0.574c-3.756,2.982-7.507,5.971-11.364,9.043l-3.656,2.912
			l0.033,0.195c0.413,2.424-0.559,4.006-2.947,4.818l-0.357,0.123l0.162,0.342c0.836,1.055,1.126,1.664,1.425,3.008
			c0.19,0.4,0.38,0.797,0.57,1.188c0.188,0.393,0.378,0.781,0.569,1.168c0.192,0.385,0.387,0.77,0.584,1.15
			c0.257,0.496,0.926,0.957,1.492,1.029c2.994,0.381,4.965,1.432,6.585,3.513l0.201,0.26l2.529-1.851
			c1.748-1.277,3.472-2.537,5.185-3.809c4.134-3.074,7.543-5.633,10.731-8.055c0.364-0.279,0.882-0.881,0.814-1.396
			c-0.311-2.381,0.604-3.879,2.863-4.744l0.34-0.129l-0.156-0.33c-0.281-0.59-0.554-1.174-0.822-1.754
			C108.794,50.743,108.134,49.321,107.356,47.931z M108.881,52.53c0.222,0.477,0.442,0.955,0.671,1.439
			c-2.299,1-3.283,2.783-2.953,5.32c0.017,0.127-0.226,0.523-0.555,0.773c-3.186,2.42-6.593,4.979-10.725,8.051
			c-1.711,1.271-3.433,2.529-5.181,3.807l-2.007,1.466c-0.32-0.387-0.652-0.718-0.989-1.025c-0.629-0.484-1.446-0.561-2.151-0.902
			c-0.823-0.404-1.697-0.67-2.562-0.971c-0.153-0.053-0.281-0.125-0.39-0.209c-0.132-0.033-0.266-0.057-0.395-0.098
			c-0.609-0.191-1.212-0.521-1.51-1.111c-0.103-0.201-0.155-0.4-0.17-0.594c-0.649-1.287-1.276-2.596-1.927-3.975
			c-0.226-0.48-0.456-0.967-0.691-1.461c2.381-0.938,3.425-2.748,3.07-5.24l0.934-0.744c1.263-2.166,4.255-3.76,5.937-5.273
			c3.176-2.861,6.492-5.434,10.333-7.336c0.144-0.072,0.283-0.107,0.418-0.127c0.751-0.244,1.611-0.182,2.721,0.973
			c0.67,0.697,1.713,0.98,2.721,1.252c0.54,0.146,1.098,0.297,1.577,0.506c0.59,0.26,1.409,0.666,1.711,1.207
			C107.534,49.628,108.188,51.038,108.881,52.53z"/>
		<path fill-rule="evenodd" clip-rule="evenodd" fill="#EA9B95" d="M94.829,65.284c-2.863,1.363-5.925-0.027-7.078-3.215
			c-1.312-3.621,0.343-8.486,3.604-10.59c2.604-1.682,5.752-0.74,7.313,2.184C100.691,57.456,98.716,63.437,94.829,65.284z
			 M92.478,55.573c0.687-0.137,1.184-0.184,1.627-0.363c0.109-0.045,0.139-0.719,0.049-0.76c-0.469-0.211-1.004-0.471-1.484-0.42
			c-1.706,0.18-2.89,3.051-1.823,4.414c0.263,0.334,0.898,0.725,1.203,0.619c1.616-0.547,1.806,0.48,2.062,1.512
			c-0.702,0.105-1.306,0.18-1.892,0.322c-0.045,0.012-0.029,0.75,0.065,0.777c0.635,0.182,1.298,0.266,1.953,0.377
			c0.363,0.062,0.728,0.115,1.092,0.174c0.289-1.174,0.869-2.438,0.85-3.689c-0.031-1.959-1.543-1.818-2.977-1.443
			C92.936,56.534,92.704,56.048,92.478,55.573z"/>
		<path fill="#757F92" d="M94.961,65.048c-0.623,1.162-2.101-0.371-3.026,0.816c-3.591-1.271-5.938-4.627-4.951-8.557
			c0.212-1.297,0.667-2.617,1.437-3.797c0.727-1.195,1.823-2.248,3.099-2.93c1.401-0.701,3.05-0.77,4.43-0.164
			c1.384,0.584,2.398,1.711,2.988,2.91l0.059,0.109c0.044,0.092,0.038,0.088,0.059,0.139l0.087,0.217l0.172,0.432
			c0.087,0.326,0.188,0.652,0.247,0.967c0.109,0.629,0.155,1.246,0.131,1.842c-0.042,1.193-0.307,2.289-0.667,3.244
			c-1.592,1.471-1.938,3.875-3.637,4.564C95.108,64.976,94.961,65.048,94.961,65.048z M94.961,65.048
			c2.125-0.896,2.471-3.301,3.777-4.867c0.263-0.955,0.414-2.027,0.349-3.141c-0.029-0.557-0.127-1.119-0.276-1.674
			c-0.078-0.271-0.188-0.523-0.278-0.787l-0.212-0.416l-0.105-0.209c-0.013-0.021-0.048-0.098-0.041-0.076l-0.062-0.092
			c-0.621-0.992-1.538-1.818-2.621-2.217c-0.542-0.193-1.117-0.283-1.69-0.252c-0.562,0.025-1.168,0.205-1.637,0.445
			c-1.11,0.553-1.998,1.43-2.722,2.434c-0.718,1.004-1.234,2.146-1.543,3.305c-0.343,0.754-0.343,0.754-0.661,1.65
			c-0.372,3.91,3.481,7.293,7.261,6.057C94.801,65.103,94.961,65.048,94.961,65.048z"/>
	</g>
	<g>
		<path fill-rule="evenodd" clip-rule="evenodd" fill="#CFCECD" d="M92.066,61.331c0.396-0.17,0.792-0.328,1.181-0.484
			c0.646-0.26,1.257-0.506,1.858-0.793c1.299-0.621,2.22-1.293,2.985-2.18l0.098-0.111l0.119-0.09c0.793-0.59,1.536-1.117,2.3-1.656
			l0.287-0.205c0.633-0.521,1.299-1.049,1.889-1.516l0.327-0.26l0.331-0.061c0.026-0.004,0.052-0.012,0.079-0.025
			c0.229-0.109,0.519-0.5,0.775-0.846c0.416-0.561,0.887-1.193,1.639-1.555c0.203-0.096,0.414-0.166,0.629-0.207
			c1.033-0.93,1.285-2.197,1.598-3.771c0.242-1.213,0.514-2.588,1.216-3.926l0.208-0.398l0.404-0.193
			c0.375-0.178,0.754-0.359,1.135-0.52c-0.059-0.195-0.1-0.373-0.133-0.518c-0.027-0.117-0.047-0.227-0.08-0.312
			c-0.279-0.865-0.727-1.553-1.388-2.162c-1.153-1.062-2.834-1.748-4.46-2.41c-1.05-0.428-2.13-0.867-3.109-1.422
			c-2.711,1.4-4.602,3.066-6.242,4.67l-0.063,0.057c-0.718,0.619-1.674,1.422-2.708,2.166c-1.073,0.77-2.104,1.387-3.156,1.889
			c-0.242,0.141-0.933,0.965-1.16,1.609l-0.187,0.525c0,0-1.855,0.887-2.494,1.193c0.271,1.35-0.015,2.742-0.826,3.818
			c-0.547,1.121-1.472,2.037-2.755,2.73c0.85,1.406,1.522,2.781,2.323,4.484c0.667,0.33,1.514,0.488,2.474,0.672
			c0.227,0.043,0.456,0.086,0.688,0.133C89.161,59.923,90.65,60.294,92.066,61.331z"/>
		<path fill-rule="evenodd" clip-rule="evenodd" fill="#FFFFFF" d="M97.936,55.655c-1.423,1.152-3.326,0.061-4.452,0.598
			c-2.986-1.908-4.54-5.166-3.524-8.773c0.158-0.791,0.408-1.578,0.743-2.324c0.335-0.748,0.751-1.461,1.24-2.107
			c0.654-0.863,1.438-1.613,2.326-2.182c1.699-1.133,3.084-1.127,4.47-1.121c3.289,1.096,4.282,4.623,4.45,7.875
			c-0.303,0.812-0.499,1.529-0.73,2.305c0.293,2.57-1.656,2.834-2.328,4.256C99.483,54.774,98.748,55.278,97.936,55.655z"/>
		<path fill-rule="evenodd" clip-rule="evenodd" fill="#FFFFFF" d="M94.026,65.989c-3.852,1.84-7.546,2.389-10.687,1.59
			l-1.173-0.299l0.173-1.199c0.104-0.734-0.061-1.541-0.536-2.617c-0.832-1.604-1.747-3.135-2.633-4.617
			c-2.055-3.438-4.179-6.992-5.195-11.398l-0.242-1.053l0.975-0.465c1.733-0.828,3.452-1.197,4.904-1.451
			c0.586-0.102,1.172-0.191,1.749-0.279c0.867-0.133,1.689-0.258,2.444-0.418c1.96-0.951,3.481-2.445,5.092-4.023
			c1.295-1.271,2.633-2.586,4.28-3.695c0.668-0.451,1.359-0.848,2.055-1.18c0.171-0.082,0.346-0.162,0.522-0.236l0.087-0.039
			l0.093-0.025c0.156-0.041,0.306-0.098,0.46-0.172c0.608-0.289,1.162-0.811,1.749-1.363c0.703-0.664,1.503-1.414,2.562-1.92
			c0.446-0.213,0.916-0.371,1.396-0.469l0.102-0.016c0.974-0.121,1.743-0.316,2.557-0.523c0.857-0.217,1.745-0.441,2.885-0.582
			l0.396-0.051l0.357,0.174c3.369,1.631,4.695,4.984,5.768,8.277l0.285,0.895c0.174,0.547,0.343,1.078,0.517,1.582
			c2.647,2.277,3.913,5.477,4.937,8.066c0.201,0.512,0.397,1.006,0.594,1.471l0.027,0.066l0.021,0.068
			c0.095,0.309,0.078,0.57,0.061,0.848c-0.006,0.098-0.013,0.219-0.02,0.377l-0.037,0.926l-0.877,0.297
			c-1.348,0.455-2.736,0.775-4.079,1.084c-2.1,0.484-4.272,0.984-6.462,2.029l-0.131,0.064c-0.396,0.172-0.734,0.326-1.072,0.486
			c-0.505,0.242-1,0.496-1.473,0.76c-0.845,0.467-1.658,0.982-2.422,1.531c-0.678,0.525-1.386,1.113-2.068,1.717
			c-0.699,0.619-1.388,1.271-2.048,1.938l-0.042,0.043l-0.046,0.041C98.056,63.724,96.05,65.024,94.026,65.989z M92.07,61.54
			c0.396-0.172,0.793-0.33,1.181-0.484c0.647-0.262,1.257-0.508,1.857-0.795c1.3-0.619,2.222-1.291,2.987-2.178l0.096-0.113
			l0.12-0.09c0.794-0.588,1.536-1.115,2.3-1.656l0.287-0.203c0.633-0.523,1.3-1.049,1.888-1.516l0.329-0.26l0.33-0.061
			c0.027-0.006,0.052-0.014,0.079-0.025c0.229-0.109,0.52-0.5,0.775-0.846c0.416-0.561,0.887-1.195,1.64-1.555
			c0.202-0.096,0.413-0.166,0.63-0.209c1.031-0.928,1.283-2.195,1.597-3.77c0.241-1.213,0.515-2.588,1.216-3.926l0.206-0.398
			l0.405-0.193c0.375-0.18,0.754-0.359,1.135-0.521c-0.059-0.193-0.1-0.371-0.132-0.516c-0.028-0.119-0.048-0.227-0.081-0.314
			c-0.277-0.865-0.726-1.553-1.387-2.162c-1.153-1.061-2.835-1.746-4.461-2.408c-1.049-0.428-2.129-0.869-3.108-1.422
			c-2.712,1.398-4.602,3.064-6.244,4.668l-0.062,0.059c-0.719,0.617-1.675,1.422-2.708,2.164c-1.074,0.771-2.105,1.389-3.156,1.891
			c-0.242,0.141-0.933,0.965-1.161,1.609l-0.187,0.525c0,0-1.854,0.887-2.493,1.193c0.271,1.35-0.015,2.74-0.827,3.818
			c-0.546,1.119-1.472,2.037-2.754,2.729c0.849,1.408,1.521,2.781,2.322,4.484c0.667,0.33,1.514,0.49,2.475,0.672
			c0.227,0.043,0.456,0.088,0.688,0.135C89.166,60.13,90.655,60.501,92.07,61.54z"/>
		<path fill-rule="evenodd" clip-rule="evenodd" fill="#FFFFFF" d="M119.067,50.894c-3.391,1.146-7.01,1.381-10.83,3.242
			c-0.878,0.381-1.748,0.801-2.608,1.279c-0.862,0.479-1.714,1.012-2.556,1.615c-0.735,0.57-1.46,1.17-2.175,1.803
			c-0.716,0.633-1.42,1.299-2.112,2c-4.114,3.473-10.191,6.373-15.288,5.074c0.173-1.201-0.183-2.336-0.655-3.395
			c-2.798-5.402-6.333-9.682-7.729-15.73c1.52-0.727,3.032-1.076,4.557-1.342s3.051-0.443,4.398-0.738
			c3.897-1.824,6.071-5.447,9.688-7.887c0.724-0.488,1.505-0.93,2.358-1.297c2.407-0.658,3.36-3.352,6.081-3.904
			c2.113-0.264,3.328-0.844,5.44-1.105c2.912,1.408,4.098,4.48,5.074,7.48c0.324,1,0.618,1.977,0.936,2.859
			c3.094,2.477,4.227,6.412,5.438,9.266C119.119,50.231,119.087,50.392,119.067,50.894z M80.206,53.604
			c1.372,2.029,2.242,3.852,3.272,6.049c1.097,0.703,2.486,0.875,3.932,1.168c1.447,0.291,2.945,0.695,4.278,1.924
			c2.431-1.162,5.15-1.713,7.252-4.148c0.897-0.666,1.732-1.254,2.604-1.871c0.66-0.547,1.358-1.1,1.969-1.582
			c1.57-0.285,1.916-2.689,3.422-2.662c2.747-2.059,1.905-5.385,3.466-8.369c1.215-0.58,2.431-1.16,3.327-0.842
			c-1.505-0.027-1.477-1.535-1.725-2.195c-0.354-1.105-0.971-1.975-1.737-2.682c-2.301-2.119-5.96-2.75-8.415-4.375
			c-3.038,1.449-5.179,3.217-7.25,5.242c-0.841,0.723-1.701,1.434-2.616,2.09c-0.915,0.658-1.887,1.262-2.949,1.77
			c-0.608,0.289-1.534,1.479-1.851,2.375c-1.215,0.58-1.823,0.871-3.064,1.471c0.602,1.199,0.578,2.701-0.327,3.805
			C83.282,51.911,82.166,52.94,80.206,53.604z"/>
		<path fill-rule="evenodd" clip-rule="evenodd" fill="#99CE99" d="M118.499,51.425c-6.454-0.496-10.947,3.135-15.398,6.943
			c-2.52,2.152-5.104,4.246-7.804,6.164c-2.551,1.816-5.506,2.727-8.659,2.758c-0.557,0.006-1.423-0.318-1.63-0.744
			c-3.056-6.227-6.023-12.498-9.102-18.945c1.354-0.1,2.503-0.123,3.636-0.277c3.673-0.5,6.666-2.41,9.468-4.684
			c3.243-2.631,6.4-5.375,9.739-7.881c2.704-2.031,5.849-3.152,9.275-3.168c0.584-0.004,1.476,0.41,1.709,0.885
			c2.982,6.072,5.87,12.191,8.775,18.303C118.554,50.872,118.509,51.007,118.499,51.425z M80.786,53.772
			c1.106,2.318,2.074,4.438,3.143,6.504c0.207,0.398,0.785,0.793,1.234,0.852c2.587,0.328,4.889,1.172,6.81,3.641
			c2.534-1.857,5.002-3.648,7.448-5.467c3.588-2.668,7.168-5.348,10.729-8.053c0.326-0.248,0.728-0.752,0.686-1.084
			c-0.326-2.482,0.642-4.17,3.074-5.102c-0.998-2.092-1.87-4.127-2.945-6.051c-0.344-0.613-1.173-1.043-1.87-1.35
			c-1.393-0.609-3.241-0.697-4.19-1.684c-1.736-1.807-3.102-1.311-4.711-0.162c-0.45,0.32-0.94,0.588-1.371,0.93
			c-4.882,3.875-9.756,7.762-14.866,11.832C84.305,50.634,83.788,52.747,80.786,53.772z"/>
		<path fill="#505763" d="M117.021,47.2c-0.072-0.15-0.146-0.305-0.218-0.459c-0.224-0.281-0.426-0.578-0.617-0.881
			c-0.434-0.418-0.803-0.91-1.068-1.48c-0.286-0.615-0.443-1.154-0.525-1.717c-0.195-0.357-0.365-0.725-0.49-1.102
			c-0.199-0.246-0.382-0.506-0.539-0.789c-0.428-0.479-0.726-1.033-0.9-1.629c-0.387-0.613-0.76-1.236-1.086-1.889
			c-0.084-0.17-0.156-0.342-0.221-0.518c-0.197-0.361-0.348-0.742-0.443-1.139c-0.548-0.998-0.854-2.074-0.834-3.129
			c-0.09-0.189-0.184-0.375-0.288-0.549c-0.464-0.764-1.112-1.33-2.279-1.408c-2.183,0.072-4.903,0.625-6.533,1.463
			c-1.024,0.477-2.009,1.07-2.945,1.771c-2.267,1.703-4.483,3.541-6.628,5.318c-0.518,0.432-1.037,0.861-1.557,1.291
			c-0.69,1.68-3.702,1.625-4.181,3.217c-0.412,0.271-0.815,0.52-1.213,0.746c-0.396,0.227-0.789,0.432-1.178,0.617
			c-0.717,0.342-1.426,0.621-2.138,0.838c-0.713,0.217-1.428,0.375-2.156,0.475c-1.054,0.4-2.559,0.373-4.064,0.346
			c0.388,0.811,0.807,1.688,1.236,2.592c0.217,0.453,0.435,0.912,0.652,1.371c0.628,1.312,1.208,2.525,1.762,3.684
			c0.275,0.58,0.546,1.146,0.812,1.705c0.592,1.24,1.16,2.428,1.728,3.611c0.896,1.553,1.912,3.109,2.755,4.693
			c0.213,0.316,0.412,0.641,0.57,0.979c0.106,0.225,1.029,1.893,0.433,1.143c0.073,0.092,0.138,0.188,0.203,0.281
			c0.363,0.152,0.76,0.234,1.058,0.232c2.354-0.023,4.573-0.525,6.596-1.492c0.782-0.373,1.542-0.82,2.255-1.328
			c0.781-0.555,1.574-1.146,2.382-1.764c0.277-0.328,0.602-0.617,0.954-0.871c1.681-2.006,4.011-3.623,5.968-5.197
			c3.26-2.619,7.016-5.709,11.437-5.428c0.173-0.055,0.37-0.035,0.581,0.014c0.358-0.043,0.709,0.068,0.979,0.285
			c0.505,0.111,0.974,0.053,1.241-0.703C118.837,49.505,117.649,48.581,117.021,47.2z M112.843,40.052
			c0.382,0.799,0.771,1.592,1.11,2.264c0.415,0.869,0.827,1.736,1.236,2.598c0.41,0.863,0.818,1.723,1.224,2.576
			c0,0,0.317,0.662,0.635,1.324c0.285,0.664,0.285,0.664,0.574,1.271c-0.607,0.291-2.113,0.264-2.516,0.312
			c-0.842,0.098-1.675,0.268-2.503,0.512c-0.826,0.244-1.649,0.561-2.472,0.953c-2.77,1.322-5.154,3.277-7.765,5.508
			c-2.904,2.484-5.377,4.439-7.777,6.146c-2.452,1.744-5.344,2.664-8.469,2.695c-0.489,0.004-1.195-0.291-1.325-0.555
			c-1.438-2.947-2.887-5.984-4.384-9.105c-0.229-0.484-0.462-0.975-0.696-1.465c-0.704-1.479-1.426-2.986-2.143-4.482
			c-0.19-0.4-0.38-0.793-0.566-1.182c-0.374-0.777-0.738-1.529-1.094-2.256c0.264-0.018,0.519-0.033,0.77-0.049
			c0.832-0.049,1.617-0.098,2.393-0.203c0.763-0.104,1.512-0.268,2.257-0.496c0.746-0.227,1.486-0.518,2.234-0.875
			c1.608-0.768,3.241-1.844,5.143-3.385c1.048-0.85,2.088-1.713,3.127-2.574c2.138-1.773,4.348-3.607,6.602-5.299
			c0.897-0.674,1.842-1.24,2.822-1.699c1.031-0.551,3.144-0.812,4.632-1.307c0.535-0.061,1.077-0.092,1.623-0.094
			c1.006,0.189,1.576,0.812,2.021,1.652c0.224,0.418,0.415,0.893,0.616,1.393c0.2,0.469,0.403,0.936,0.614,1.402
			c0.236,0.541,0.428,0.965,0.632,1.4C111.821,37.933,112.401,39.147,112.843,40.052z"/>
		<path fill="#505763" d="M110.745,38.106c-0.398-0.709-1.293-1.172-2.029-1.492c-0.527-0.232-1.107-0.389-1.671-0.541
			c-0.962-0.26-1.871-0.506-2.411-1.068c-1.285-1.338-2.503-1.627-3.949-0.936c-0.356,0.17-0.738,0.402-1.201,0.732
			c-0.181,0.127-0.367,0.248-0.555,0.367c-0.277,0.178-0.562,0.361-0.831,0.574c-3.756,2.98-7.507,5.971-11.364,9.043l-3.656,2.91
			l0.034,0.197c0.412,2.424-0.56,4.004-2.947,4.818l-0.358,0.123l0.162,0.342c0.836,1.055,1.126,1.662,1.426,3.006
			c0.19,0.402,0.379,0.797,0.568,1.189s0.38,0.781,0.571,1.166c0.192,0.387,0.386,0.77,0.584,1.15
			c0.257,0.498,0.925,0.959,1.491,1.031c2.995,0.381,4.965,1.432,6.585,3.514l0.201,0.258l2.529-1.85
			c1.748-1.277,3.472-2.537,5.185-3.811c4.133-3.072,7.543-5.631,10.732-8.055c0.363-0.277,0.882-0.879,0.813-1.396
			c-0.312-2.379,0.604-3.877,2.862-4.742l0.342-0.131l-0.157-0.33c-0.282-0.59-0.553-1.174-0.822-1.752
			C112.183,40.919,111.522,39.499,110.745,38.106z M112.27,42.706c0.22,0.477,0.442,0.957,0.671,1.439
			c-2.301,1.002-3.285,2.785-2.953,5.322c0.016,0.127-0.227,0.521-0.555,0.773c-3.186,2.42-6.594,4.979-10.726,8.049
			c-1.711,1.273-3.434,2.531-5.18,3.807l-2.007,1.469c-0.321-0.389-0.653-0.721-0.99-1.027c-0.627-0.482-1.446-0.559-2.15-0.902
			c-0.824-0.402-1.697-0.668-2.562-0.969c-0.152-0.053-0.281-0.127-0.391-0.211c-0.131-0.033-0.265-0.057-0.393-0.096
			c-0.61-0.191-1.213-0.521-1.511-1.113c-0.103-0.199-0.155-0.398-0.17-0.592c-0.649-1.287-1.275-2.596-1.927-3.977
			c-0.226-0.479-0.456-0.965-0.691-1.459c2.381-0.938,3.426-2.748,3.07-5.242l0.934-0.742c1.263-2.166,4.256-3.76,5.937-5.273
			c3.176-2.861,6.493-5.434,10.333-7.336c0.145-0.072,0.283-0.107,0.419-0.129c0.75-0.242,1.61-0.18,2.72,0.975
			c0.67,0.697,1.713,0.979,2.721,1.252c0.54,0.145,1.098,0.295,1.577,0.506c0.589,0.26,1.409,0.666,1.712,1.205
			C110.923,39.804,111.577,41.214,112.27,42.706z"/>
		<path fill-rule="evenodd" clip-rule="evenodd" fill="#F3AD9D" d="M98.218,55.46c-2.863,1.363-5.925-0.027-7.079-3.213
			c-1.312-3.623,0.344-8.488,3.604-10.592c2.605-1.68,5.753-0.74,7.313,2.184C104.079,47.632,102.104,53.614,98.218,55.46z
			 M95.866,45.751c0.686-0.139,1.183-0.186,1.626-0.365c0.11-0.043,0.139-0.717,0.049-0.758c-0.468-0.211-1.004-0.471-1.484-0.422
			c-1.705,0.182-2.889,3.051-1.822,4.414c0.263,0.336,0.897,0.727,1.203,0.621c1.615-0.547,1.806,0.48,2.062,1.512
			c-0.702,0.104-1.306,0.178-1.892,0.32c-0.046,0.012-0.029,0.75,0.064,0.777c0.636,0.184,1.298,0.268,1.953,0.379
			c0.363,0.062,0.728,0.115,1.092,0.172c0.29-1.174,0.87-2.436,0.849-3.688c-0.03-1.959-1.542-1.818-2.976-1.445
			C96.323,46.71,96.092,46.224,95.866,45.751z"/>
		<path fill="#505763" d="M98.349,55.226c-0.623,1.16-2.101-0.371-3.025,0.816c-3.592-1.271-5.94-4.627-4.951-8.557
			c0.212-1.299,0.666-2.617,1.436-3.797c0.727-1.197,1.823-2.248,3.099-2.93c1.401-0.703,3.052-0.77,4.43-0.164
			c1.384,0.582,2.398,1.709,2.988,2.908l0.06,0.111c0.044,0.09,0.037,0.088,0.058,0.137l0.087,0.217l0.172,0.434
			c0.086,0.326,0.189,0.65,0.248,0.967c0.107,0.627,0.154,1.246,0.131,1.842c-0.043,1.193-0.309,2.289-0.667,3.244
			c-1.593,1.471-1.938,3.875-3.638,4.562C98.497,55.153,98.349,55.226,98.349,55.226z M98.349,55.226
			c2.126-0.896,2.471-3.301,3.778-4.867c0.263-0.957,0.413-2.027,0.349-3.143c-0.03-0.557-0.128-1.117-0.277-1.672
			c-0.077-0.273-0.188-0.523-0.277-0.789l-0.212-0.414l-0.106-0.209c-0.013-0.021-0.048-0.098-0.041-0.076l-0.061-0.092
			c-0.621-0.992-1.538-1.818-2.622-2.219c-0.541-0.191-1.117-0.281-1.69-0.25c-0.561,0.025-1.167,0.205-1.636,0.445
			c-1.111,0.551-1.999,1.428-2.723,2.432c-0.717,1.006-1.233,2.146-1.544,3.305c-0.342,0.756-0.342,0.756-0.659,1.652
			c-0.373,3.908,3.481,7.293,7.26,6.055C98.189,55.28,98.349,55.226,98.349,55.226z"/>
	</g>
</g>
</svg>
