<?xml version="1.0" encoding="utf-8"?>
<!-- Generator: Adobe Illustrator 16.0.0, SVG Export Plug-In . SVG Version: 6.00 Build 0)  -->
<!DOCTYPE svg PUBLIC "-//W3C//DTD SVG 1.1//EN" "http://www.w3.org/Graphics/SVG/1.1/DTD/svg11.dtd">
<svg version="1.1" id="Layer_1" xmlns="http://www.w3.org/2000/svg" xmlns:xlink="http://www.w3.org/1999/xlink" x="0px" y="0px"
	 width="122.104px" height="69.309px" viewBox="0 0 122.104 69.309" enable-background="new 0 0 122.104 69.309"
	 xml:space="preserve">
<g>
	<g enable-background="new    ">
		<path fill="#58595B" d="M19.292,35.117l-2.906,12.655h-2.06l-1.895-7.744c-0.123-0.478-0.203-0.938-0.239-1.379h-0.037
			c-0.037,0.429-0.117,0.889-0.239,1.379l-1.876,7.744h-2.06L5.073,35.117h2.336l1.563,8.277l0.221,1.435H9.23
			c0.061-0.478,0.147-0.956,0.257-1.435l1.913-8.277h1.729l1.895,8.277l0.239,1.435H15.3c0.049-0.502,0.117-0.98,0.202-1.435
			l1.637-8.277H19.292z"/>
		<path fill="#58595B" d="M29.757,47.772h-2.336v-5.721H23.43v5.721h-2.336V35.117h2.336v5.39h3.991v-5.39h2.336V47.772z"/>
		<path fill="#58595B" d="M38.531,47.772h-6.162V35.117h6.162v1.563h-3.826v3.826h3.403v1.545h-3.403v4.157h3.826V47.772z"/>
		<path fill="#58595B" d="M48.703,35.117l-3.44,7.192v5.463h-2.336v-5.463l-3.403-7.192h2.483l2.17,5.242h0.037l2.262-5.242H48.703z
			"/>
	</g>
	<g enable-background="new    ">
		<path fill="#8A8C8E" d="M63.694,47.772H61.1l-3.587-5.739h-0.037v5.739h-2.299V35.651c0.932-0.479,2.084-0.718,3.458-0.718
			c1.545,0,2.71,0.338,3.494,1.012c0.785,0.675,1.178,1.618,1.178,2.833c0,0.944-0.312,1.723-0.938,2.336
			c-0.626,0.613-1.441,0.95-2.447,1.012v0.036L63.694,47.772z M61.027,38.888c0-0.896-0.187-1.555-0.561-1.978
			s-0.984-0.635-1.83-0.635c-0.454,0-0.84,0.073-1.159,0.221v4.967c0.159,0.062,0.447,0.092,0.864,0.092
			c0.895,0,1.566-0.23,2.014-0.69C60.803,40.406,61.027,39.747,61.027,38.888z"/>
		<path fill="#8A8C8E" d="M72.89,42.383h-2.888v3.072h-1.472v-3.072h-2.888v-1.472h2.888v-3.053h1.472v3.053h2.888V42.383z"/>
		<path fill="#8A8C8E" d="M84.534,41.353c0,1.3-0.176,2.431-0.524,3.394c-0.35,0.963-0.933,1.738-1.747,2.326
			c-0.816,0.589-1.843,0.883-3.082,0.883c-1.557,0-2.752-0.239-3.586-0.717V35.651c0.932-0.479,2.084-0.718,3.458-0.718
			c1.839,0,3.212,0.573,4.12,1.72C84.08,37.8,84.534,39.366,84.534,41.353z M82.161,41.316c0-1.655-0.246-2.879-0.736-3.67
			s-1.263-1.187-2.316-1.187c-0.479,0-0.877,0.062-1.196,0.185v9.51c0.368,0.122,0.778,0.184,1.232,0.184
			c1.067,0,1.837-0.401,2.309-1.205C81.925,44.33,82.161,43.057,82.161,41.316z"/>
	</g>
	<g enable-background="new    ">
		<path fill="#58595B" d="M12.262,55.572h-1.45v6.507H9.385v-6.507H7.946v-0.918h4.316V55.572z"/>
		<path fill="#58595B" d="M18.669,62.079h-1.473l-0.596-1.91h-2.495l-0.618,1.91h-1.282l2.563-7.425h1.349L18.669,62.079z
			 M16.399,59.371l-0.798-2.611c-0.053-0.166-0.096-0.322-0.129-0.471c-0.034-0.146-0.055-0.253-0.062-0.318l-0.011-0.107h-0.022
			c-0.022,0.23-0.094,0.529-0.213,0.896l-0.832,2.611H16.399z"/>
		<path fill="#58595B" d="M24.683,62.079h-1.596l-1.292-2.741h-0.023l-1.337,2.741h-1.461l2.091-3.798l-1.877-3.627h1.54
			l1.124,2.516h0.022l1.27-2.516h1.36l-1.922,3.465L24.683,62.079z"/>
		<path fill="#58595B" d="M33.034,61.765c-0.375,0.281-0.91,0.422-1.607,0.422c-0.944,0-1.675-0.365-2.192-1.096
			s-0.775-1.639-0.775-2.725c0-1.072,0.262-1.977,0.787-2.715c0.525-0.736,1.255-1.105,2.192-1.105c0.659,0,1.191,0.141,1.596,0.421
			l-0.314,0.82c-0.3-0.173-0.633-0.259-1-0.259c-0.42,0-0.768,0.142-1.045,0.426s-0.468,0.628-0.573,1.031
			c-0.105,0.402-0.157,0.859-0.157,1.37c0,0.791,0.148,1.453,0.444,1.985s0.74,0.799,1.332,0.799c0.367,0,0.693-0.086,0.978-0.26
			L33.034,61.765z"/>
		<path fill="#58595B" d="M39.385,62.079h-1.585l-2.192-3.366h-0.022v3.366h-1.405v-7.111c0.569-0.28,1.273-0.421,2.113-0.421
			c0.944,0,1.656,0.198,2.136,0.594s0.72,0.949,0.72,1.662c0,0.554-0.191,1.01-0.573,1.37c-0.382,0.36-0.881,0.558-1.495,0.593
			v0.022L39.385,62.079z M37.756,56.867c0-0.525-0.114-0.912-0.343-1.16s-0.602-0.372-1.119-0.372c-0.277,0-0.513,0.043-0.708,0.13
			v2.913c0.097,0.036,0.273,0.054,0.528,0.054c0.547,0,0.957-0.135,1.231-0.404C37.619,57.758,37.756,57.371,37.756,56.867z"/>
		<path fill="#58595B" d="M44.286,62.079H40.52v-7.425h3.766v0.918h-2.338v2.244h2.08v0.906h-2.08v2.439h2.338V62.079z"/>
		<path fill="#58595B" d="M51.053,58.312c0,0.764-0.107,1.427-0.321,1.992c-0.213,0.564-0.569,1.02-1.068,1.364
			c-0.498,0.345-1.126,0.519-1.882,0.519c-0.952,0-1.683-0.141-2.192-0.422v-6.798c0.57-0.28,1.274-0.421,2.113-0.421
			c1.124,0,1.963,0.336,2.518,1.01C50.776,56.228,51.053,57.147,51.053,58.312z M49.603,58.291c0-0.971-0.15-1.688-0.45-2.152
			s-0.772-0.695-1.417-0.695c-0.292,0-0.536,0.035-0.73,0.107v5.578c0.225,0.072,0.476,0.108,0.753,0.108
			c0.652,0,1.123-0.235,1.411-0.706C49.458,60.059,49.603,59.312,49.603,58.291z"/>
		<path fill="#58595B" d="M53.863,62.079h-1.438v-7.425h1.438V62.079z"/>
		<path fill="#58595B" d="M59.348,55.572h-1.45v6.507H56.47v-6.507h-1.438v-0.918h4.316V55.572z"/>
		<path fill="#58595B" d="M67.542,59.921c0,0.662-0.232,1.205-0.696,1.63c-0.465,0.424-1.057,0.637-1.776,0.637
			c-0.824,0-1.461-0.141-1.91-0.422l0.348-0.96c0.359,0.23,0.791,0.345,1.293,0.345c0.383,0,0.684-0.104,0.904-0.312
			s0.332-0.485,0.332-0.83c0-0.281-0.092-0.517-0.275-0.707c-0.184-0.191-0.492-0.373-0.928-0.545
			c-1.064-0.432-1.596-1.107-1.596-2.029c0-0.611,0.211-1.127,0.635-1.549c0.424-0.42,0.984-0.631,1.681-0.631
			c0.72,0,1.285,0.141,1.697,0.421l-0.314,0.842c-0.375-0.224-0.772-0.335-1.191-0.335c-0.353,0-0.626,0.098-0.821,0.292
			c-0.194,0.194-0.292,0.456-0.292,0.788c0,0.302,0.1,0.543,0.298,0.723c0.199,0.18,0.489,0.346,0.871,0.496
			c0.473,0.194,0.846,0.421,1.119,0.68c0.273,0.26,0.445,0.498,0.517,0.718S67.542,59.64,67.542,59.921z"/>
		<path fill="#58595B" d="M73.826,56.856c0,0.733-0.272,1.321-0.815,1.765c-0.543,0.441-1.357,0.623-2.444,0.545l-0.304-0.021v2.935
			h-1.395v-7.111c0.562-0.28,1.274-0.421,2.137-0.421c0.951,0,1.66,0.211,2.124,0.631C73.594,55.599,73.826,56.158,73.826,56.856z
			 M72.454,56.845c0-0.511-0.115-0.891-0.348-1.139s-0.607-0.372-1.125-0.372c-0.284,0-0.523,0.04-0.719,0.118v2.881l0.293,0.022
			C71.821,58.457,72.454,57.953,72.454,56.845z"/>
		<path fill="#58595B" d="M78.805,62.079H75.04v-7.425h3.766v0.918h-2.338v2.244h2.079v0.906h-2.079v2.439h2.338V62.079z"/>
		<path fill="#58595B" d="M84.302,61.765c-0.375,0.281-0.91,0.422-1.607,0.422c-0.943,0-1.675-0.365-2.191-1.096
			c-0.518-0.73-0.775-1.639-0.775-2.725c0-1.072,0.262-1.977,0.786-2.715c0.524-0.736,1.255-1.105,2.192-1.105
			c0.659,0,1.191,0.141,1.596,0.421l-0.314,0.82c-0.3-0.173-0.633-0.259-1-0.259c-0.42,0-0.769,0.142-1.046,0.426
			s-0.468,0.628-0.573,1.031c-0.105,0.402-0.157,0.859-0.157,1.37c0,0.791,0.147,1.453,0.444,1.985
			c0.295,0.532,0.739,0.799,1.332,0.799c0.367,0,0.692-0.086,0.978-0.26L84.302,61.765z"/>
		<path fill="#58595B" d="M86.887,62.079h-1.439v-7.425h1.439V62.079z"/>
		<path fill="#58595B" d="M94.305,62.079h-1.473l-0.596-1.91h-2.494l-0.619,1.91h-1.281l2.562-7.425h1.35L94.305,62.079z
			 M92.036,59.371l-0.799-2.611c-0.053-0.166-0.096-0.322-0.129-0.471c-0.033-0.146-0.055-0.253-0.062-0.318l-0.011-0.107h-0.022
			c-0.022,0.23-0.094,0.529-0.213,0.896l-0.832,2.611H92.036z"/>
		<path fill="#58595B" d="M98.836,62.079h-3.574v-7.425H96.7v6.508h2.136V62.079z"/>
		<path fill="#58595B" d="M101.444,62.079h-1.439v-7.425h1.439V62.079z"/>
		<path fill="#58595B" d="M107.063,59.921c0,0.662-0.232,1.205-0.696,1.63c-0.465,0.424-1.057,0.637-1.776,0.637
			c-0.824,0-1.461-0.141-1.91-0.422l0.348-0.96c0.359,0.23,0.791,0.345,1.293,0.345c0.383,0,0.684-0.104,0.904-0.312
			s0.332-0.485,0.332-0.83c0-0.281-0.092-0.517-0.275-0.707c-0.184-0.191-0.492-0.373-0.928-0.545
			c-1.064-0.432-1.596-1.107-1.596-2.029c0-0.611,0.211-1.127,0.635-1.549c0.424-0.42,0.984-0.631,1.681-0.631
			c0.72,0,1.285,0.141,1.697,0.421l-0.314,0.842c-0.375-0.224-0.772-0.335-1.191-0.335c-0.353,0-0.626,0.098-0.821,0.292
			c-0.194,0.194-0.292,0.456-0.292,0.788c0,0.302,0.1,0.543,0.298,0.723c0.199,0.18,0.489,0.346,0.871,0.496
			c0.473,0.194,0.846,0.421,1.119,0.68c0.273,0.26,0.445,0.498,0.517,0.718S107.063,59.64,107.063,59.921z"/>
		<path fill="#58595B" d="M111.975,55.572h-1.449v6.507h-1.428v-6.507h-1.439v-0.918h4.316V55.572z"/>
		<path fill="#58595B" d="M117.034,59.921c0,0.662-0.232,1.205-0.696,1.63c-0.465,0.424-1.057,0.637-1.776,0.637
			c-0.824,0-1.461-0.141-1.91-0.422l0.348-0.96c0.359,0.23,0.791,0.345,1.293,0.345c0.383,0,0.684-0.104,0.904-0.312
			s0.332-0.485,0.332-0.83c0-0.281-0.092-0.517-0.275-0.707c-0.184-0.191-0.492-0.373-0.928-0.545
			c-1.064-0.432-1.596-1.107-1.596-2.029c0-0.611,0.211-1.127,0.635-1.549c0.424-0.42,0.984-0.631,1.681-0.631
			c0.72,0,1.285,0.141,1.697,0.421l-0.314,0.842c-0.375-0.224-0.772-0.335-1.191-0.335c-0.353,0-0.626,0.098-0.821,0.292
			c-0.194,0.194-0.292,0.456-0.292,0.788c0,0.302,0.1,0.543,0.298,0.723c0.199,0.18,0.489,0.346,0.871,0.496
			c0.473,0.194,0.846,0.421,1.119,0.68c0.273,0.26,0.445,0.498,0.517,0.718S117.034,59.64,117.034,59.921z"/>
	</g>
	<g>
		<g>
			<g>
				<g>
					<defs>
						<path id="SVGID_1_" d="M67.419,17.986C54.547,17.379,42.114,12.74,31.984,4.757l11.021,25.2l25.174-11.325L67.419,17.986z"/>
					</defs>
					<clipPath id="SVGID_2_">
						<use xlink:href="#SVGID_1_"  overflow="visible"/>
					</clipPath>
					<g clip-path="url(#SVGID_2_)">
						<g>
							<path fill="#E48D1A" d="M43.62,28.129L33.302,5.887c12.285-5.7,26.861-0.363,32.562,11.923l0,0L43.62,28.129z"/>
						</g>
					</g>
				</g>
			</g>
		</g>
	</g>
</g>
</svg>
