<?xml version="1.0" encoding="utf-8"?>
<!-- Generator: Adobe Illustrator 16.0.0, SVG Export Plug-In . SVG Version: 6.00 Build 0)  -->
<!DOCTYPE svg PUBLIC "-//W3C//DTD SVG 1.1//EN" "http://www.w3.org/Graphics/SVG/1.1/DTD/svg11.dtd">
<svg version="1.1" id="Layer_1" xmlns="http://www.w3.org/2000/svg" xmlns:xlink="http://www.w3.org/1999/xlink" x="0px" y="0px"
	 width="190.513px" height="108.333px" viewBox="0 0 190.513 108.333" enable-background="new 0 0 190.513 108.333"
	 xml:space="preserve">
<g>
	<path fill-rule="evenodd" clip-rule="evenodd" fill="#C1D9D1" d="M176.837,53.485c-0.705-1.348-1.759-1.719-2.057-3.635
		c-0.43-2.826,0.962-2.797,1.33-4.887c0.668-3.807-3.356-2.529-2.668-6.951c0.321-2.053,1.694-1.764,1.95-3.701
		c0.162-1.225-0.742-3.871-1.352-4.309c-1.45-1.039-3.238,1.764-4.667,1.994c-1.377,0.225-3.209-2.084-3.778-4.346
		c-0.746-2.975,0.179-4.061-1.286-6.775c-1.895-3.525-4.219-5.688-6.857-3.246c-1.631,1.512-4.304,11.201-6.833,7.975
		c-1.195-1.523-0.764-4.523-2.36-5.389c-1.57-0.854-2.666,1.568-4.076,0.945c-2.392-1.057,0.065-9.088-4.09-6.732
		c-1.554,0.877-2.296,3.99-3.466,5.857c-1.217,1.945-0.929,1.863-2.379,0.355c-0.642-0.666-0.039-0.879-0.847-1.16
		c-1.067-0.377-2.476,1.092-3.359,1.934c-1.599,1.52-1.464,1.887-1.457,4.922c0.004,1.955,0.156,5.447-0.98,6.494
		c-0.856,0.787-1.796-0.477-2.677-0.195c-3.208,1.031-0.503,4.684-0.963,7.715c-0.011,0.07-0.022,0.131-0.031,0.195
		c-2.789-3.205-6.105-4.928-9.831-2.521c-2.533,1.637-6.682,12.135-10.607,8.643c-1.857-1.652-1.184-4.902-3.664-5.84
		c-2.438-0.926-4.142,1.697-6.326,1.023c-3.715-1.145,0.101-9.846-6.352-7.295c-1.557,0.615-2.59,2.238-3.614,3.857
		c-0.354-0.791-0.903-1.551-1.337-1.746c-1.788-0.805-3.996,1.365-5.756,1.545c-0.847,0.088-1.836-0.316-2.701-0.961
		c-0.864-0.645-1.604-1.529-1.956-2.406c0.702-4.928-3.11-7.787-5.017-7.787c-10.484,2.859-13.344,7.625-22.696,1.344
		c-0.212-0.67-0.27-1.467-0.395-2.182c-0.253-1.43-0.776-2.527-3.34-1.615c-1.918,0.68-2.828,3.088-4.271,4.535
		c-1.502,1.506-1.144,1.441-2.937,0.275c-0.787-0.516-0.046-0.682-1.043-0.9c-1.313-0.287-3.052,0.848-4.143,1.5
		c-1.971,1.176-1.804,1.461-1.794,3.811c0.006,1.514,0.193,4.219-1.208,5.029c-1.059,0.611-2.215-0.367-3.302-0.146
		c-3.954,0.797-0.621,3.625-1.188,5.973c-0.746,3.094-3.434-0.303-5.634,1.484c-1.678,1.359-2.682,3.025-1.631,5.176
		c0.439,0.906,1.626,2.795,2.493,3.164c1.502,0.643,5.123-2.51,5.727,0.312c0.355,1.66-1.648,3.014-2.308,4.283
		c-1.317,2.537-0.957,4.205,1.433,5.594c1.111,0.648,2.636,1.34,4.135,1.551c0.75,0.104,1.494,0.088,2.178-0.113
		c1.375,0.002,2.064-1.189,2.765-2.26c0.702-1.072,1.417-2.025,2.847-1.549c0.357,0.953,0.789,1.727,1.283,2.352
		c0.493,0.625,1.05,1.1,1.656,1.453c1.409,0.717,2.884,1.016,4.392,1.076s3.049-0.117,4.593-0.355
		c3.326-0.713,6.186-0.713,9.045-0.713c-0.953,1.906-0.953,2.859-0.953,4.766c0.953,4.766,6.672,3.812,9.531,5.719
		c3.812,2.859-3.812,5.719-2.44,10.713c0.282,1.27,1.148,2.338,2.653,3.311c2.796,1.812,7.672,3.873,10.227,0.283
		c1.503-2.107,1.404-4.428,4.648-3.217c1.802,0.678,2.641,3.227,3.981,4.645c2.1,2.213,5.567,2.566,7.961,1.092
		c1.801-1.109,2.276-3.162,4.467-3.17c3.441-0.012,6.133,3.877,10.46,2.912c1.953-0.434,3.306-1.945,4.8-3.357
		c2.322-2.199,4.076-1.832,7.272-0.975c4.467,1.197,12.335,8.201,16.639,1.805c1.238-1.834,0.057-5.191,1.096-6.684
		c1.377-1.98,4.543,0.811,6.41,0.852c4.123,0.086,7.433-3.422,4.016-7.953c-1.098-1.457-2.729-1.863-3.19-3.941
		c-0.671-3.061,1.487-3.025,2.06-5.293c0.131-0.521,0.146-0.957,0.072-1.328c0.282-0.281,0.61-0.461,1.045-0.463
		c2.219-0.008,3.951,3.58,6.74,2.688c1.257-0.402,2.129-1.795,3.092-3.1c1.494-2.027,2.623-1.689,4.685-0.898
		c2.878,1.105,7.945,7.568,10.719,1.668c0.795-1.695,0.035-4.789,0.704-6.17c0.887-1.828,2.929,0.75,4.13,0.785
		C176.904,60.903,179.037,57.668,176.837,53.485z"/>
	<path fill-rule="evenodd" clip-rule="evenodd" fill="#FFFFFF" d="M100.789,32.653c0.64-1.283,1.524-3.301,0.829-4.619
		c-0.701-1.32-2.662-2.352-4.112-2.434c-2.063-0.117-3.62-0.014-5.107,1.371c-1.821,1.697-1.839,4.08-0.879,6.395
		c0.812,1.965,3.346,3.689,5.6,2.635c0.349-0.166,1.421,2.541,1.491,2.801c0.417,1.545-0.192,1.941-0.792,3.281
		c-0.464,1.049-0.334,2.18-1.169,3.059c-0.836,0.881-2.606,2.107-3.729,2.57c-2.812-1.008-5.285-1.943-7.88-0.119
		c-0.271-0.783-1.36-1.287-1.561-2.006c-0.263-0.963,1.207-1.596,1.207-2.689c2.615-0.418,5.564,0.471,8.246,0.279
		c0.793-0.053,2.871-0.049,3.397-0.723c1.21-1.539-3.923-1.512-5.06-1.578c-2.076-0.117-4.487,0.438-6.464-0.365
		c0.035-1.762-0.44-2.801-2.226-3.486c-1.761-0.678-3.109-0.758-4.814,0.143c-1.742,0.92-2.351,2.436-2.584,4.162
		c-0.297,2.16,0.572,4.812,2.757,5.246c0.696,0.141,1.594-0.09,2.145,0.113c0.514,0.184,0.889,0.689,1.284,1.035
		c0.262,0.223,1.234,0.779,1.394,1.104c0.414,0.83-0.732,2.551-0.843,3.486c-0.133,1.156-0.147,2.398,0.036,3.549
		c0.183,1.146,1.034,2.438-0.173,3.227c-0.818,0.535-2.144,0.254-3.064,0.291c-1.775,0.084-2.88,0.709-3.346,2.453
		c-0.476,1.773-0.39,3.715,0.913,5.031c1.34,1.352,2.6,1.689,4.549,1.383c1.48-0.232,3.297-1.578,3.646-3.203
		c0.334-1.553-1.328-2.426-1.157-3.641c0.23-1.662,1.729-1.08,2.836-0.781c1.477,0.402,3.139,0.52,4.636,0.02
		c1.17-0.393,2.081-1.707,3.169-2.312c0.108,1.861,3.048,3.604,4.118,4.762c0.241,0.264,1.09,0.98,1.121,1.324
		c0.05,0.59-0.845,1.418-0.936,2.16c-0.436,3.557,6.02,9.818,8.878,5.643c0.983-1.434,1.218-3.73,0.153-5.09
		c-0.634-0.809-0.905-0.451-0.774-1.477c0.11-0.859,1.098-2.035,1.567-2.723c1.189-1.742,2.64-3.467,3.834-5.086
		c0.444-0.598,1.774-1.613,1.333-2.404c-0.373-0.652-1.399-0.562-1.844-0.234c-1.195,0.871-1.896,3.027-2.79,4.174
		c-1.007,1.295-1.975,3.355-3.244,4.273c-1.115-1.502-3.355-1.188-4.823-0.492c-0.307-0.746-1.573-2.1-2.156-2.67
		c-0.449-0.438-3.158-1.863-3.323-2.48c-0.21-0.76,1.173-1.963,1.204-2.971c0.049-1.457-0.366-2.725-1.017-3.951
		c-0.268-0.502-0.722-0.178-0.633-0.877c0.063-0.508,0.824-0.668,1.148-0.947c0.576-0.492,1.175-1.107,1.688-1.689
		c0.576-0.658,0.713-1.193,1.604-1.078c0.808,0.105,1.454,0.99,2.229,1.279c0.776,0.297,1.705,0.359,2.522,0.262
		c0.441-0.053,4.674-2.074,3.607-2.814c1.154,0.803,2.105,1.287,2.305,2.686c0.232,1.623-0.345,2.893,0.634,4.312
		c2.021,2.924,5.974,3.924,8.618,1.133c0.97-1.027,1.133-3.246,1.312-4.576c0.188-1.387-0.282-2.211-1.379-2.996
		c-1.712-1.223-7.616-2.84-8.314,0.461c-1.29-0.395-1.887-1.951-3.297-2.172c-0.164-0.912,0.24-1.775,0.099-2.732
		c-0.146-1.008-0.664-1.514-1.279-2.287c0.536-0.727,1.394-2.502,2.39-2.604c0.295-0.029,0.863,0.391,1.172,0.473
		c0.631,0.166,1.474,0.195,2.128,0.287c1.369,0.199,3.618,0.828,4.919-0.129c1.599-1.178,2.735-4.291,1.73-6.232
		c-1.219-2.348-4.901-5.543-7.543-4.25c-1.552,0.76-3.007,2.143-3.72,3.625c-0.654,1.371,0.12,2.812-0.251,4.092
		c-0.312,1.062-1.877,2.701-2.756,2.785c-0.546,0.057-1.174-0.242-1.792-0.184c-0.823,0.076-1.49,0.471-2.294,0.594
		c-0.179-0.994-1.41-1.078-1.443-2.322C99.55,34.866,100.358,33.518,100.789,32.653z"/>
	<path fill-rule="evenodd" clip-rule="evenodd" fill="#A6D1A8" d="M93.575,29.44c-0.706,0.701-0.706,2.234-0.739,3.16
		c-0.063,1.994,1.486,4.129,3.519,4.393c1.284,0.168,2.297-0.404,3.152-1.361c1.023-1.145,1.246-2.193,1.415-3.627
		c0.073-0.652-0.024-1.465-0.432-1.998c-0.128-0.176-0.487-0.443-0.667-0.656c-0.135-0.162-0.344-0.461-0.527-0.572
		C97.719,27.801,94.938,28.09,93.575,29.44z"/>
	<path fill-rule="evenodd" clip-rule="evenodd" fill="#A6D1A8" d="M115.731,34.569c1.467-5.006-7.061-5.9-8.637-1.725
		c-0.832,2.199,0.788,3.875,2.912,4.291C112.507,37.624,114.998,37.079,115.731,34.569z"/>
	<path fill-rule="evenodd" clip-rule="evenodd" fill="#A6D1A8" d="M102.913,47.995c2.112-0.129,4.228-1.631,4.313-3.805
		c0.133-3.314-5.13-6.787-7.832-4.064c-1.062,1.07-0.713,2.996-0.576,4.334C99.05,46.729,100.463,48.143,102.913,47.995z"/>
	<path fill-rule="evenodd" clip-rule="evenodd" fill="#B0A8D3" d="M110.607,50.797c-0.093,1.434,0.641,2.791,2.718,3.354
		c0.658,0.178,1.979,0.094,2.613-0.148c0.702-0.271,2.084-1.617,2.477-2.23c0.83-1.297-0.088-3.008-0.891-4.086
		C114.899,44.168,110.804,47.668,110.607,50.797z"/>
	<path fill-rule="evenodd" clip-rule="evenodd" fill="#A4D2EB" d="M95.13,53.659c-0.664-5.449-9.874-5.875-11.122-0.695
		c-0.666,2.771,1.942,6.514,4.678,6.973C92.924,60.649,95.601,57.487,95.13,53.659z"/>
	<path fill-rule="evenodd" clip-rule="evenodd" fill="#F79B83" d="M80.325,45.901c4.41,0.855,7.018-5.143,2.891-7.459
		c-1.987-1.113-4.492,0.199-5.289,2.225C77.079,42.825,78.009,45.452,80.325,45.901z"/>
	<path fill-rule="evenodd" clip-rule="evenodd" fill="#A4D2EB" d="M100.3,70.348c1.682,1.029,4.388,0.176,5.437-1.48
		c1.153-1.834,0.726-5.074-1.25-5.99C99.825,60.719,95.949,67.686,100.3,70.348z"/>
	<path fill-rule="evenodd" clip-rule="evenodd" fill="#A4D2EB" d="M81.709,69.672c4.472-0.982,3.418-8.822-0.917-8.877
		C75.66,60.731,75.972,70.93,81.709,69.672z"/>
	<path fill-rule="evenodd" clip-rule="evenodd" fill="#757F92" d="M85.382,42.276c-0.027-0.426,2.322-0.234,2.632-0.285
		c1.094-0.18,2.279-0.191,3.384-0.154c1.174,0.037,2.35,0.043,3.518,0.062c0.505,0.006,2.378-0.312,2.668,0.455
		c-0.992,0.066-2.034,0.018-3.033-0.051c-1.038-0.07-2.058-0.006-3.096-0.027c-1.026-0.02-2.064,0.01-3.086,0.107
		c-0.544,0.057-1.077,0.068-1.628,0.035C86.485,42.405,85.526,42.661,85.382,42.276C85.381,42.249,85.405,42.338,85.382,42.276z"/>
	<path fill-rule="evenodd" clip-rule="evenodd" fill="#757F92" d="M104.751,64.594c-0.362-0.389,0.545-1.348,0.753-1.631
		c0.52-0.723,0.991-1.477,1.462-2.229c1.067-1.688,2.151-3.379,3.516-4.848c0.3,0.355-0.521,1.236-0.715,1.537
		c-0.554,0.857-1.133,1.703-1.7,2.553C107.739,60.458,105.015,64.795,104.751,64.594C104.488,64.315,104.766,64.604,104.751,64.594z
		"/>
	<path fill-rule="evenodd" clip-rule="evenodd" fill="#757F92" d="M96.453,35.999c-0.415,0.363-1.417,0.145-1.766-0.111
		c-0.413-0.299-0.781-0.453-1.151-0.811c-0.383-0.371-0.723-0.723-0.947-1.168c-1.13-2.221-0.584-4.787,1.306-6.199
		c1.1-0.826,2.368-0.705,3.631-0.355c0.674,0.188,1.273,0.525,1.698,1.094c0.047,0.066,0.495,0.605,0.522,0.602
		c0.112-0.021,0.549,1.029,0.602,1.184c0.207,0.652,0.173,1.387,0.052,2.051c-0.127,0.689-0.409,1.361-0.812,1.936
		c-0.26,0.373-0.835,1.312-1.357,1.1c0.068,0.207-0.127,0.117-0.209,0.207c0.212,0.688,0.866,1.215,1.045,1.881
		c0.074,0.281,0.66,1.383,0.984,1.219c0.53-0.26,0.97-0.457,1.579-0.541c0.546-0.07,1.771-0.07,2.221,0.266
		c0.099,0.07,0.298,0.113,0.388,0.154c0.528,0.25,0.982-0.307,1.337-0.656c0.474-0.459,0.927-0.938,1.382-1.412
		c0.312-0.318,0.662-0.887,1.043-1.066c0.327-0.148,0.329,0.324,0.205,0.527c-0.26,0.418-0.704,0.799-1.046,1.148
		c-0.279,0.291-0.59,0.562-0.89,0.846c-0.294,0.279-0.867,0.656-1.037,1.031c0.837,0.592,1.27,1.393,1.526,2.418
		c0.143,0.59-0.086,1.387-0.27,1.852c-0.154,0.395,0,0.928-0.37,1.268c0.383,0.646,1.238,0.783,1.71,1.219
		c0.433,0.404,2.9,1.418,2.471,2.127c-0.004-0.012-0.556-0.311-0.562-0.312c-0.228-0.146-0.453-0.229-0.588-0.369
		c-0.339-0.336-1.014-0.717-1.478-0.98c-0.359-0.203-0.654-0.475-1.003-0.68c-0.417-0.246-0.61-0.557-0.969-0.271
		c-0.071,0.07-0.126,0.154-0.166,0.246c-0.101,0.236-0.215,0.227-0.401,0.428c-0.046,0.045-0.386,0.424-0.374,0.213
		c0.048-0.006-0.313,0.264-0.272,0.246c-0.219,0.105-0.416,0.232-0.652,0.293c-0.005,0.002-0.828,0.357-0.746,0.088
		c-0.354,0.418-0.831,0.037-1.202,0c-0.064-0.006-0.022,0.23-0.153,0.105c-0.156-0.133-0.46-0.191-0.647-0.275
		c-0.334-0.146-0.516-0.176-0.812-0.375c-0.168-0.113-0.822-0.852-0.206-0.676c0.424,0.113,0.899,0.502,1.301,0.697
		c1.471,0.725,3.564-0.215,4.279-1.566c0.456-0.859,0.779-1.975,0.622-2.957c-0.086-0.51-0.282-1.018-0.551-1.461
		c-0.322-0.521-0.715-0.691-1.19-0.973c-1.076-0.631-2.737-0.777-3.842-0.248c-1.363,0.641-2.195,1.932-2.298,3.496
		c-0.045,0.658,0.177,1.217,0.415,1.725c0.207,0.434-0.328,0.305-0.333,0.275c-0.015-0.125-0.132-0.049-0.189-0.117
		c-0.132-0.164-0.211-0.535-0.302-0.729c-0.585-1.25,0.17-3.139,0.982-4.078c0.142-0.162,0.379-0.268,0.468-0.471
		c-0.086-0.252-0.19-0.494-0.312-0.73c-0.173-0.35-0.391-0.688-0.586-1.035c-0.238-0.432-1.741-2.328-1.243-2.779
		c0.258-0.021,0.323,0.361,0.419,0.523c0.251,0.428,0.725-0.18,0.938-0.469c0.319-0.426,0.702-0.828,0.931-1.33
		c0.638-1.396,0.561-3.182-0.589-4.297c-0.562-0.543-1.01-0.855-1.699-1.217c-0.118-0.041-0.654,0.131-0.53-0.135
		c0.123-0.277-0.941-0.188-1.105-0.168c-1.314,0.152-3.031,1.248-2.906,2.758c-0.035-0.027-0.065-0.059-0.087-0.096
		c-0.136-0.037-0.041,0.174,0.033,0.199c-0.015,0.1-0.157,0.039-0.157,0.209c0.057,0.016,0.086-0.012,0.081-0.08
		c0.095,0.027-0.235,0.881-0.235,0.811c0.024,0.074,0.074,0.109,0.154,0.104c-0.022,0.074-0.077,0.109-0.154,0.105
		c0.211,0.158-0.031,0.527,0.088,0.664c0.104,0.125-0.047,0.328,0.121,0.484c0.009,0.398,0.177,0.76,0.365,1.098
		c0.338,0.613,0.782,1.037,1.296,1.492C94.902,35.756,95.701,35.678,96.453,35.999C96.375,36.067,95.836,35.737,96.453,35.999z"/>
	<path fill-rule="evenodd" clip-rule="evenodd" fill="#757F92" d="M84.122,57.208c-0.472,0-0.897-1.006-1.043-1.305
		c-0.515-1.062-0.676-1.975-0.472-3.137c0.322-1.834,1.296-3.025,2.822-4.074c-0.054-0.102-0.143-0.156-0.264-0.156
		c-0.247-0.051-0.362-0.348-0.521-0.527c-0.268-0.311-0.528-0.613-0.779-0.938c-0.349-0.436-0.755-1.053-1.153-1.512
		c-0.229-0.264-1.53-1.799-1.202-2.197c0.319-0.389,1.152,1.355,1.362,1.619c0.843,1.09,1.839,2.068,2.557,3.189
		c0.277,0.43,0.297,0.367,0.718,0.088c0.106-0.07,0.362-0.199,0.485-0.246c0.444-0.168,1.046-0.162,1.449-0.352
		c0.645-0.307,1.388,0.027,2.035-0.135c0.28-0.072,1.963,0.494,2,0.904c0.463,0.053,1.114,0.602,1.458,0.906
		c0.292,0.252,0.666-0.316,0.905-0.561c0.322-0.328,0.695-0.527,1.019-0.865c0.577-0.6,1.379-1.16,2.051-1.674
		c0.49-0.371,0.925-0.869,1.516-1.15c0.149,0.504-0.642,0.992-0.992,1.15c-0.093,0.068-0.156,0.158-0.21,0.262
		c-0.264,0.027-0.432,0.27-0.626,0.418c-0.19,0.146-0.38,0.271-0.573,0.418c-0.374,0.281-0.691,0.523-1.07,0.877
		c-0.174,0.162-1.053,0.697-1.018,0.9c0.002,0.018-0.401,0.395-0.445,0.443c-0.223,0.064-0.245,0.18-0.074,0.342
		c0.123,0.24,0.242,0.484,0.36,0.729c0.152,0.324,0.232,0.533,0.313,0.836c0.174,0.662,0.171,1.328,0.174,1.996
		c0.003,0.566-0.255,1.924-0.85,2.107c-0.601,0.188-0.122-0.332-0.057-0.5c0.111-0.467,0.296-0.916,0.382-1.389
		c0.155-0.867-0.044-1.799-0.382-2.58c-0.257-0.598-0.57-1.135-1.149-1.566c-0.319-0.242-0.853-0.75-1.312-0.861
		c-0.555-0.139-1.018-0.463-1.626-0.555c-0.863-0.133-1.695,0.125-2.541,0.268c-0.894,0.154-1.548,0.881-2.322,1.15
		c-0.229,0.078-1.133,0.842-1.082,1.094c-0.099,0.004-0.12-0.074-0.206,0c0.063,0.033,0.097,0.084,0.107,0.158
		c-0.082,0.014-0.146,0.053-0.192,0.117c0.026-0.023,0.042-0.02,0.05,0.012c-0.036,0.102-0.097,0.109-0.173,0.025
		c0.123,0.104-0.167,0.17,0,0.314c-0.265-0.045-0.352,1.023-0.522,1.148c0.01,0.068,0.102-0.027,0.083,0.029
		c-0.223,0.701-0.32,1.699-0.064,2.424C83.205,55.299,84.417,56.874,84.122,57.208C83.805,57.208,84.379,56.915,84.122,57.208z"/>
	<path fill-rule="evenodd" clip-rule="evenodd" fill="#757F92" d="M81.93,60.393c-0.306-0.068-0.692-0.16-0.943-0.207
		c-0.296-0.061-0.682-0.053-1.02-0.076c-0.42-0.031-1.225,0.242-1.641,0.441c-0.719,0.34-1.315,0.848-1.621,1.658
		c-0.192,0.504-0.252,0.869-0.255,1.416c-0.002,0.229,0.079,0.5-0.048,0.615c-0.122,0.107,0.317,1.111,0.405,1.273
		c0.173,0.32,0.48,0.873,0.814,1.041c0.135,0.072,0.239,0.27,0.389,0.369c0.374,0.248,0.698,0.49,1.104,0.678
		c0.815,0.379,2.183,0.65,2.985,0.121c0.932-0.613,1.478-1.352,2.077-2.312c0.509-0.818,0.347-2.221-0.086-3.021
		c-0.168-0.314-0.468-0.625-0.604-0.939c-0.075-0.186-0.012-0.441,0.233-0.377c0.237,0.066,0.36,0.342,0.467,0.531
		c0.465,0.809,0.749,1.537,0.681,2.537c-0.053,0.848-0.247,1.666-0.746,2.312c-1.089,1.424-2.554,2.471-4.464,1.857
		c-0.913-0.295-1.641-0.623-2.363-1.301c-0.298-0.273-1.021-1.02-1.031-1.432c-0.003-0.215-0.207-0.699-0.295-0.914
		c-0.136-0.324,0.003-0.959,0.029-1.311c0.05-0.676,0.259-1.652,0.787-2.102c1.273-1.078,2.885-1.857,4.706-1.475
		c0.142,0.025,0.648,0.205,0.648,0.408C82.14,60.233,81.877,60.379,81.93,60.393C81.597,60.321,82.002,60.415,81.93,60.393z"/>
	<path fill-rule="evenodd" clip-rule="evenodd" fill="#757F92" d="M110.771,37.2c0.004-0.004-0.205-0.141-0.201-0.094
		c0.006,0.137-1.312,0.139-1.526,0.094c-0.044-0.014-0.525-0.135-0.55-0.213c-0.047-0.143-0.607-0.707,0.045-0.51
		c1.418,0.428,2.622,0.248,3.904-0.506c1.157-0.682,1.521-2.527,1.201-3.684c-0.233-0.826-0.613-1.654-1.382-2.061
		c-0.139-0.086-0.269-0.178-0.395-0.277c-0.264-0.189-0.546-0.127-0.836-0.221c-0.145-0.045-0.309-0.107-0.261-0.262
		c-0.074-0.01-0.587-0.078-0.577,0.051c-0.3-0.283-0.269,0.141-0.521,0.104c0.037-0.049,0.071-0.1,0.104-0.154
		c-0.173-0.025-0.3,0.086-0.472,0.051c0.151,0.303-0.994,0.344-1.147,0.785c-0.043-0.023-0.061-0.057-0.053-0.104
		c-0.172,0.145-0.294,0.268-0.386,0.396c-0.058,0.094-0.1,0.256-0.19,0.332c-0.037-0.021-0.054-0.057-0.05-0.104
		c-0.204-0.059-0.259,0.658-0.472,0.625c-0.263-0.039-0.585,1.352-0.592,1.543c-0.011,0.75,0.18,1.559,0.567,2.197
		c0.131,0.225-0.051,0.736-0.158,0.469c-0.109-0.264-0.208-0.25-0.337-0.496c-0.322-0.641-0.426-1.301-0.431-2.012
		c-0.004-0.346-0.013-0.688,0.192-0.969c0.134-0.182,0.282-0.789,0.497-0.863c0.109-0.033,0.013-0.18,0.155-0.26
		c0.293-0.164,0.447-0.641,0.733-0.861c0.365-0.289,0.77-0.684,1.177-0.816c0.066-0.021,0.293-0.098,0.309-0.115
		c0.237-0.227,1.242-0.189,1.544-0.164c0.539,0.047,1.22,0.307,1.672,0.572c0.618,0.365,1.437,1.186,1.671,2.039
		c0.306,1.082,0.242,2.486-0.358,3.402c-0.139,0.219-0.336,0.871-0.619,0.928c-0.13,0.029-0.444,0.348-0.601,0.424
		c-0.052,0.023-0.616,0.348-0.646,0.293c0.037,0.059-0.053-0.229-0.104-0.107c-0.104,0.25-0.147,0.25-0.4,0.389
		c-0.116,0.076-0.235,0.076-0.351,0C110.832,37.118,110.93,37.17,110.771,37.2C110.537,37.239,110.938,37.167,110.771,37.2z"/>
	<path fill-rule="evenodd" clip-rule="evenodd" fill="#757F92" d="M83.498,44.149c-0.387-0.354,0.079-0.604,0.285-0.83
		c0.325-0.359,0.611-0.695,0.774-1.156c0.176-0.496,0.253-1.051,0.221-1.574c-0.031-0.514-0.395-0.957-0.419-1.41
		c-0.022-0.408-0.901-1.273-1.215-1.348c-0.699-0.17-1.297-0.391-1.993-0.451c-1.567-0.133-3.149,0.689-3.674,2.305
		c-0.192,0.594-0.401,1.047-0.369,1.672c0.023,0.396,0.039,0.785,0.151,1.166c0.04,0.137,0.291,0.621,0.271,0.717
		c-0.102,0.457,0.739,0.793,0.987,1.023c0.544,0.508,1.921,0.477,2.63,0.605c0.421,0.074,0.37,0.477-0.057,0.469
		c-0.543-0.008-1.103-0.129-1.626-0.262c-1.677-0.41-2.785-1.582-2.869-3.465c-0.076-1.697,0.739-3.445,2.251-4.307
		c1.374-0.781,3.304-0.566,4.704,0.156c1.038,0.531,1.642,1.986,1.721,3.137c0.055,0.699-0.105,1.551-0.449,2.189
		C84.612,43.176,84.04,44.2,83.498,44.149C83.308,43.971,83.849,44.182,83.498,44.149z"/>
	<path fill-rule="evenodd" clip-rule="evenodd" fill="#757F92" d="M109.825,48.377c0.201-0.086-0.043,1.035-0.05,1.203
		c-0.026,1.068,0.588,2.555,1.316,3.33c1.436,1.527,4.321,1.99,5.796,0.299c1.697-1.941,1.635-4.674-0.18-6.529
		c-0.938-0.953-2.703-1.059-3.955-0.652c-0.581,0.189-1.191,0.508-1.513,0.939c-0.115,0.152-0.479,0.189-0.338-0.154
		c0.089-0.236,0.341-0.52,0.562-0.631c0.46-0.225,0.974-0.447,1.462-0.592c0.545-0.16,1.014-0.064,1.562-0.098
		c0.523-0.027,0.961,0.014,1.454,0.172c0.481,0.15,0.731,0.568,1.149,0.756c0.085,0.039,0.262,0.408,0.363,0.391
		c0.119-0.023,0.438,0.688,0.5,0.791c0.341,0.533,0.518,1.15,0.602,1.779c0.26,1.887-0.656,4.195-2.476,5.041
		c-1.144,0.533-2.293,0.426-3.455,0.029c-0.876-0.299-1.438-0.824-2.016-1.395c-0.472-0.465-0.973-1.529-1.147-2.273
		C109.404,50.534,109.302,48.094,109.825,48.377C110.024,48.292,109.625,48.27,109.825,48.377z"/>
	<path fill-rule="evenodd" clip-rule="evenodd" fill="#757F92" d="M92.38,55.483c0.282,0.041,0.861,0.928,1.061,1.15
		c0.417,0.465,0.862,0.953,1.315,1.385c0.305,0.289,0.617,0.637,0.861,0.914c-0.023,0.031-0.039,0.066-0.052,0.105
		c0.275,0.225,0.597,0.564,0.896,0.844c0.155,0.148,0.721,0.834,0.879,0.879c0.456,0.131,0.997,0.896,1.487,1.27
		c0.451,0.344,0.865,0.797,1.281,1.186c0.261,0.242,1.228,0.945,1.099,1.357c-0.158-0.016-0.205-0.064-0.263,0.105
		c-0.253-0.086-0.329-0.363-0.522-0.523c-0.386,0.385-0.946,1.348-0.875,1.84c0.037,0.238-0.14,0.395-0.17,0.619
		c-0.031,0.27-0.005,0.555,0.024,0.826c0.033,0.293,0.167,0.645,0.295,0.938c0.833,1.891,3.13,3.283,5.177,2.428
		c0.948-0.396,1.686-1.426,2.026-2.367c0.384-1.043-0.049-2.275-0.573-3.186c-0.407-0.703-0.932-1.191-1.66-1.604
		c-0.482-0.277-1.175-0.467-1.733-0.35c-0.621,0.133-1.468,0.469-2.091,0.283c-0.005-0.496,1.141-0.621,1.461-0.682
		c0.715-0.133,1.35-0.068,2.06,0.027c0.378,0.051,0.944,0.523,1.284,0.758c0.495,0.338,0.81,0.844,1.108,1.342
		c0.812,1.357,0.979,2.854,0.285,4.27c-0.125,0.252-0.985,1.615-1.341,1.545c-0.052-0.01-0.795,0.479-1.024,0.525
		c-0.728,0.148-1.416,0.08-2.142,0.027c-0.914-0.066-1.504-0.775-2.111-1.18c-0.994-0.658-1.539-2.252-1.419-3.398
		c0.052-0.496,0.062-0.725,0.22-1.248c0.086-0.295,0.478-1.719,0.886-1.674c-0.046-0.309-0.71-0.787-0.921-1.021
		c-0.413-0.457-0.914-0.873-1.377-1.277c-0.7-0.609-1.513-1.312-2.141-1.934c-0.769-0.756-1.512-1.83-2.299-2.455
		C93.083,56.979,91.601,55.444,92.38,55.483C92.548,55.506,92.25,55.477,92.38,55.483z"/>
	<path fill-rule="evenodd" clip-rule="evenodd" fill="#757F92" d="M92.485,57.366c0.16,0.715-0.568,1.051-0.949,1.477
		c-0.511,0.574-1.48,0.662-2.226,0.664c-0.89,0.004-1.6-0.184-2.455-0.363c-0.289-0.061-0.554-0.184-0.844-0.256
		c-0.541-0.133-0.501-0.24-0.475-0.686c0.438-0.053,0.901,0.283,1.321,0.379c0.417,0.09,0.789,0.268,1.217,0.324
		c0.733,0.102,1.447,0.047,2.165-0.041c0.542-0.066,1.061-0.473,1.472-0.82C91.965,57.827,92.021,57.366,92.485,57.366
		C92.538,57.604,92.448,57.366,92.485,57.366z"/>
	<path fill-rule="evenodd" clip-rule="evenodd" fill="#757F92" d="M81.563,61.858c-0.095-0.262,0.698-1.061,0.837-1.254
		c0.364-0.502,0.872-1.52,1.466-1.777c0.023-0.443,0.616-0.939,0.808-1.264c0.156-0.262,0.408-0.43,0.513-0.689
		c0.135-0.324,0.645-0.434,0.507,0.043c-0.084,0.285-0.387,0.445-0.52,0.701c-0.081,0.158-0.199,0.307-0.37,0.584
		c-0.098,0.15-0.182,0.268-0.365,0.311c-0.028,0.039-0.235,0.375-0.237,0.393c-0.016,0.137-0.445,0.568-0.546,0.654
		c-0.144,0.119-0.255,0.299-0.416,0.508c-0.299,0.381-0.53,0.744-0.81,1.131C82.252,61.442,81.95,61.991,81.563,61.858
		C81.498,61.682,81.881,61.967,81.563,61.858z"/>
	<path fill-rule="evenodd" clip-rule="evenodd" fill="#FFFFFF" d="M95.009,76.256c4.639,1.604,3.273,9.779-1.491,9.904
		c-2.55,0.062-5.329-2.93-5.214-5.42C88.478,76.883,91.749,75.124,95.009,76.256z"/>
	<path fill-rule="evenodd" clip-rule="evenodd" fill="#FFFFFF" d="M105.1,79.729c2.83,1.082,1.701,7.455-1.265,7.717
		c-1.588,0.135-3.213-2.086-3.057-4.018C101.019,80.438,103.113,78.963,105.1,79.729z"/>
	<path fill-rule="evenodd" clip-rule="evenodd" fill="#FFFFFF" d="M110.614,73.471c3.903,1.312,2.858,7.703-1.129,7.746
		c-2.135,0.018-4.497-2.361-4.431-4.312C105.153,73.883,107.873,72.543,110.614,73.471z"/>
	<path fill-rule="evenodd" clip-rule="evenodd" fill="#FFFFFF" d="M118.247,81.956c2.933,1.002,2.107,5.992-0.897,6.051
		c-1.608,0.027-3.374-1.816-3.312-3.338C114.13,82.311,116.188,81.249,118.247,81.956z"/>
	<path fill-rule="evenodd" clip-rule="evenodd" fill="#FFFFFF" d="M77.446,78.987c2.933,1.002,2.107,5.992-0.897,6.051
		c-1.608,0.027-3.374-1.816-3.312-3.338C73.329,79.342,75.387,78.28,77.446,78.987z"/>
	<path fill-rule="evenodd" clip-rule="evenodd" fill="#FFFFFF" d="M72.558,71.739c3.636,1.24,2.612,7.428-1.112,7.5
		c-1.994,0.033-4.183-2.252-4.106-4.139C67.453,72.178,70.004,70.86,72.558,71.739z"/>
	<path fill-rule="evenodd" clip-rule="evenodd" fill="#FFFFFF" d="M63.91,79.891c2.913,1.043,1.952,6.662-1.062,6.807
		c-1.613,0.074-3.334-1.945-3.231-3.654C59.772,80.399,61.864,79.151,63.91,79.891z"/>
	<path fill-rule="evenodd" clip-rule="evenodd" fill="#FFFFFF" d="M88.57,68.204c2.719,1.004,1.735,6.656-1.095,6.846
		c-1.515,0.098-3.1-1.904-2.979-3.619C84.682,68.774,86.662,67.493,88.57,68.204z"/>
	<path fill-rule="evenodd" clip-rule="evenodd" fill="#FFFFFF" d="M86.998,82.155c3.291,1.066,2.529,5.895-0.809,5.857
		c-1.786-0.025-3.807-1.871-3.786-3.35C82.434,82.372,84.686,81.403,86.998,82.155z"/>
	<g>
		<path fill-rule="evenodd" clip-rule="evenodd" fill="#A6D1A8" d="M94.381,77.645c3.132,1.082,2.21,6.6-1.005,6.686
			c-1.722,0.041-3.598-1.979-3.521-3.66C89.974,78.069,92.182,76.879,94.381,77.645z"/>
		<path fill-rule="evenodd" clip-rule="evenodd" fill="#A6D1A8" d="M85.188,72.463c-0.393-1.127,0.454-2.623,1.564-3.035
			c1.23-0.451,3.088,0.211,3.377,1.5C90.81,73.965,86.207,75.383,85.188,72.463z"/>
		<path fill-rule="evenodd" clip-rule="evenodd" fill="#F79B83" d="M83.22,83.579c1.15-2.529,5.643-0.912,5.124,1.666
			C87.729,88.297,81.747,86.821,83.22,83.579z"/>
		<path fill-rule="evenodd" clip-rule="evenodd" fill="#757F92" d="M90.886,83.723c-0.06,0.281,0.479,0.66,0.637,0.785
			c0.562,0.438,1.079,0.65,1.791,0.676c1.123,0.043,2.893-1.312,3.112-1.527c0.054-0.055,0.163-0.189,0.205-0.258
			c0.156-0.242,0.229-0.6,0.393-0.814c0.264-0.344,0.16-0.828,0.339-1.189c0.079-0.158-0.042-1.229-0.279-1.301
			c0.028-0.283-0.213-0.738-0.351-0.98c-0.111-0.205-0.194-0.234-0.269-0.357c-0.125-0.102-0.256-0.203-0.384-0.305
			c-0.172-0.131-0.284-0.207-0.454-0.293c-0.369-0.188-0.762-0.268-1.156-0.355c-0.334-0.074-1.167-0.092-1.351,0.238
			c-0.188,0.332,0.181,0.113,0.285,0.096c0.292-0.006,0.581-0.059,0.87-0.051c0.532,0.018,1.057,0.254,1.474,0.553
			c0.321,0.23,0.599,0.484,0.779,0.881c0.102,0.221,0.333,0.602,0.342,0.887c0.011,0.35,0.145,0.664,0.119,1.035
			c-0.031,0.529-0.289,0.992-0.481,1.473c-0.203,0.512-0.717,0.807-0.974,1.232c-0.075,0.127-0.642,0.564-0.784,0.504
			c-0.015,0.057,0.028,0.08-0.026,0.123c-0.01-0.043-0.036-0.07-0.079-0.086c-0.018,0.049-0.05,0.08-0.094,0.1
			c0.017-0.012,0.017-0.021-0.001-0.031c-0.063,0.008-0.076,0.043-0.037,0.102c-0.045-0.088-0.121,0.076-0.185-0.041
			c-0.009,0.164-0.648,0.078-0.743,0.164c-0.04-0.016,0.028-0.057-0.009-0.053c-0.44,0.043-1.043-0.025-1.438-0.268
			C91.895,84.508,91.119,83.592,90.886,83.723C90.845,83.913,91.091,83.608,90.886,83.723z"/>
		<path fill-rule="evenodd" clip-rule="evenodd" fill="#757F92" d="M88.726,84.622c0.001,0.189,0.007,0.43,0.004,0.586
			c-0.004,0.182-0.058,0.41-0.086,0.613c-0.036,0.254-0.3,0.695-0.47,0.918c-0.293,0.383-0.668,0.674-1.186,0.752
			c-0.322,0.049-0.545,0.039-0.868-0.029c-0.135-0.027-0.284-0.109-0.368-0.049c-0.078,0.059-0.615-0.33-0.701-0.402
			c-0.167-0.143-0.453-0.395-0.512-0.613c-0.024-0.09-0.126-0.178-0.167-0.277c-0.099-0.254-0.201-0.479-0.26-0.742
			c-0.119-0.531-0.107-1.375,0.308-1.785c0.479-0.475,0.987-0.705,1.63-0.939c0.549-0.197,1.355,0.076,1.774,0.434
			c0.163,0.139,0.307,0.355,0.478,0.477c0.099,0.07,0.258,0.064,0.251-0.09c-0.009-0.148-0.156-0.256-0.254-0.346
			c-0.419-0.377-0.813-0.639-1.412-0.723c-0.506-0.078-1.015-0.064-1.459,0.148c-0.979,0.465-1.784,1.201-1.664,2.412
			c0.058,0.58,0.159,1.053,0.466,1.566c0.125,0.213,0.472,0.736,0.714,0.793c0.128,0.029,0.387,0.213,0.503,0.291
			c0.173,0.123,0.565,0.121,0.777,0.148c0.405,0.055,1.008,0.057,1.341-0.199c0.799-0.621,1.463-1.477,1.47-2.605
			c0.001-0.086-0.04-0.41-0.159-0.436C88.846,84.516,88.727,84.655,88.726,84.622C88.726,84.829,88.723,84.575,88.726,84.622z"/>
		<path fill-rule="evenodd" clip-rule="evenodd" fill="#757F92" d="M92.954,79.043c0.012-0.17-0.439-0.627-0.544-0.773
			c-0.223-0.307-0.454-0.631-0.651-0.957c-0.132-0.217-0.298-0.443-0.43-0.627c-0.021,0.012-0.044,0.016-0.066,0.02
			c-0.1-0.193-0.26-0.426-0.386-0.639c-0.067-0.111-0.401-0.533-0.407-0.633c-0.02-0.287-0.401-0.705-0.56-1.043
			c-0.146-0.312-0.359-0.615-0.536-0.91c-0.108-0.186-0.402-0.848-0.663-0.824c-0.01,0.096,0.012,0.131-0.094,0.143
			c0.019,0.162,0.172,0.24,0.24,0.377c-0.275,0.18-0.916,0.391-1.196,0.285c-0.134-0.053-0.251,0.033-0.386,0.023
			c-0.163-0.016-0.328-0.068-0.486-0.119c-0.167-0.057-0.357-0.182-0.515-0.295c-1.012-0.732-1.541-2.271-0.774-3.377
			c0.355-0.514,1.056-0.818,1.654-0.902c0.665-0.096,1.337,0.318,1.809,0.742c0.363,0.332,0.585,0.705,0.735,1.189
			c0.102,0.32,0.124,0.756-0.016,1.07c-0.156,0.354-0.464,0.812-0.434,1.205c0.292,0.066,0.514-0.598,0.589-0.781
			c0.169-0.404,0.213-0.791,0.246-1.225c0.018-0.229-0.188-0.625-0.282-0.857c-0.138-0.336-0.396-0.586-0.651-0.826
			c-0.7-0.654-1.561-0.941-2.485-0.709c-0.163,0.041-1.077,0.379-1.083,0.6c0,0.031-0.383,0.41-0.439,0.541
			c-0.18,0.412-0.228,0.828-0.288,1.266c-0.077,0.551,0.265,0.99,0.426,1.402c0.264,0.672,1.136,1.197,1.826,1.271
			c0.3,0.033,0.436,0.055,0.766,0.027c0.186-0.014,1.075-0.066,1.1-0.312c0.177,0.066,0.374,0.521,0.485,0.676
			c0.218,0.303,0.4,0.652,0.579,0.979c0.271,0.492,0.583,1.062,0.868,1.514c0.35,0.553,0.888,1.129,1.158,1.676
			C92.161,78.438,92.878,79.512,92.954,79.043C92.961,78.942,92.94,79.122,92.954,79.043z"/>
	</g>
	<path fill-rule="evenodd" clip-rule="evenodd" fill="#757F92" d="M84.423,82.249c-0.42-0.094,0.275-1.623,0.295-1.844
		c0.062-0.783,0.311-1.584,0.585-2.316c0.29-0.779,0.552-1.568,0.823-2.35c0.116-0.336,0.216-1.68,1.02-1.674
		c-0.152,0.686-0.427,1.371-0.71,2.027c-0.292,0.678-0.45,1.379-0.695,2.072c-0.244,0.686-0.439,1.391-0.566,2.104
		c-0.066,0.381-0.171,0.742-0.321,1.104C84.785,81.54,84.822,82.25,84.423,82.249C84.395,82.243,84.485,82.249,84.423,82.249z"/>
	<g>
		<path fill-rule="evenodd" clip-rule="evenodd" fill="#A4D2EB" d="M112.676,77.055c-0.402-3.291-5.962-3.545-6.716-0.42
			c-0.401,1.676,1.172,3.934,2.824,4.211C111.342,81.276,112.959,79.366,112.676,77.055z"/>
		<path fill-rule="evenodd" clip-rule="evenodd" fill="#A4D2EB" d="M115.794,87.131c1.016,0.621,2.649,0.105,3.283-0.893
			c0.696-1.109,0.438-3.064-0.755-3.619C115.509,81.319,113.168,85.522,115.794,87.131z"/>
		<path fill-rule="evenodd" clip-rule="evenodd" fill="#A4D2EB" d="M104.572,86.723c2.701-0.594,2.064-5.326-0.554-5.359
			C100.922,81.327,101.108,87.483,104.572,86.723z"/>
		<path fill-rule="evenodd" clip-rule="evenodd" fill="#757F92" d="M106.029,79.198c-0.283,0-0.541-0.607-0.63-0.787
			c-0.31-0.643-0.407-1.191-0.283-1.895c0.194-1.105,0.78-1.826,1.702-2.459c-0.032-0.061-0.085-0.094-0.158-0.094
			c-0.149-0.029-0.22-0.209-0.315-0.318c-0.16-0.188-0.318-0.371-0.469-0.566c-0.212-0.262-0.456-0.635-0.697-0.912
			c-0.138-0.16-0.924-1.084-0.726-1.326c0.193-0.234,0.695,0.816,0.821,0.979c0.51,0.656,1.112,1.246,1.544,1.924
			c0.168,0.26,0.179,0.221,0.433,0.053c0.065-0.041,0.22-0.119,0.293-0.146c0.27-0.104,0.632-0.1,0.876-0.215
			c0.389-0.186,0.838,0.018,1.228-0.08c0.17-0.045,1.187,0.297,1.209,0.547c0.278,0.029,0.672,0.361,0.88,0.547
			c0.176,0.15,0.188,0.24,0.29,0.338c0.075,0.145,0.146,0.293,0.218,0.439c0.092,0.195,0.141,0.32,0.189,0.506
			c0.105,0.398,0.102,0.799,0.105,1.203c0.001,0.342-0.154,1.162-0.515,1.273c-0.362,0.111-0.071-0.201-0.033-0.301
			c0.066-0.285,0.179-0.557,0.229-0.84c0.095-0.523-0.025-1.086-0.229-1.557c-0.156-0.363-0.346-0.688-0.694-0.947
			c-0.192-0.146-0.516-0.453-0.791-0.52c-0.336-0.086-0.615-0.281-0.982-0.336c-0.521-0.078-1.024,0.076-1.533,0.164
			c-0.539,0.092-0.936,0.529-1.402,0.691c-0.139,0.049-0.683,0.51-0.652,0.662c-0.06,0.002-0.073-0.045-0.125,0
			c0.039,0.02,0.059,0.049,0.065,0.096c-0.051,0.008-0.089,0.031-0.117,0.07c0.016-0.014,0.025-0.012,0.03,0.008
			c-0.021,0.061-0.059,0.064-0.104,0.016c0.074,0.062-0.101,0.102,0,0.189c-0.159-0.027-0.212,0.615-0.315,0.691
			c0.007,0.043,0.062-0.016,0.051,0.02c-0.135,0.422-0.194,1.025-0.039,1.463C105.476,78.045,106.207,78.997,106.029,79.198
			C105.838,79.198,106.185,79.022,106.029,79.198z"/>
		<path fill-rule="evenodd" clip-rule="evenodd" fill="#757F92" d="M104.706,81.12c-0.185-0.039-0.418-0.094-0.569-0.125
			c-0.179-0.035-0.411-0.029-0.615-0.045c-0.254-0.02-0.739,0.146-0.991,0.266c-0.434,0.207-0.793,0.514-0.979,1.002
			c-0.116,0.305-0.151,0.525-0.152,0.855c-0.002,0.137,0.047,0.301-0.03,0.369c-0.073,0.064,0.191,0.672,0.245,0.771
			c0.104,0.191,0.29,0.525,0.491,0.629c0.081,0.043,0.145,0.16,0.235,0.221c0.225,0.15,0.421,0.297,0.665,0.41
			c0.493,0.229,1.318,0.395,1.804,0.074c0.562-0.371,0.891-0.818,1.252-1.396c0.308-0.496,0.211-1.342-0.051-1.826
			c-0.102-0.188-0.282-0.377-0.364-0.566c-0.046-0.113-0.008-0.266,0.141-0.227c0.144,0.039,0.217,0.205,0.281,0.32
			c0.28,0.488,0.453,0.928,0.412,1.533c-0.032,0.51-0.15,1.004-0.451,1.395c-0.657,0.859-1.541,1.492-2.694,1.121
			c-0.552-0.178-0.99-0.377-1.428-0.785c-0.18-0.166-0.615-0.615-0.621-0.865c-0.003-0.129-0.126-0.42-0.179-0.551
			c-0.082-0.195,0.001-0.58,0.018-0.791c0.032-0.408,0.156-0.998,0.476-1.27c0.768-0.65,1.74-1.121,2.84-0.891
			c0.086,0.018,0.392,0.125,0.392,0.246C104.832,81.026,104.674,81.112,104.706,81.12C104.504,81.077,104.75,81.133,104.706,81.12z"
			/>
		<path fill-rule="evenodd" clip-rule="evenodd" fill="#757F92" d="M111.015,78.157c0.17,0.023,0.521,0.561,0.641,0.695
			c0.25,0.279,0.521,0.574,0.794,0.836c0.184,0.174,0.372,0.385,0.521,0.551c-0.016,0.02-0.024,0.041-0.033,0.062
			c0.167,0.139,0.361,0.344,0.542,0.51c0.093,0.09,0.435,0.506,0.53,0.533c0.275,0.078,0.602,0.539,0.898,0.766
			c0.272,0.207,0.522,0.48,0.773,0.713c0.158,0.146,0.74,0.572,0.663,0.822c-0.095-0.01-0.123-0.039-0.158,0.062
			c-0.153-0.053-0.198-0.219-0.316-0.314c-0.232,0.23-0.571,0.812-0.527,1.109c0.022,0.143-0.086,0.238-0.103,0.373
			c-0.021,0.164-0.004,0.336,0.015,0.5c0.02,0.176,0.101,0.389,0.177,0.564c0.504,1.143,1.891,1.984,3.126,1.467
			c0.573-0.24,1.017-0.861,1.224-1.428c0.231-0.631-0.029-1.375-0.347-1.926c-0.246-0.424-0.562-0.719-1.001-0.967
			c-0.293-0.166-0.71-0.281-1.047-0.211c-0.377,0.08-0.887,0.283-1.262,0.172c-0.004-0.301,0.688-0.377,0.881-0.412
			c0.432-0.08,0.816-0.041,1.244,0.018c0.227,0.029,0.568,0.314,0.775,0.455c0.298,0.203,0.488,0.512,0.668,0.811
			c0.489,0.82,0.592,1.723,0.172,2.578c-0.075,0.15-0.595,0.975-0.809,0.934c-0.031-0.008-0.48,0.287-0.619,0.316
			c-0.439,0.09-0.854,0.049-1.293,0.016c-0.551-0.041-0.907-0.467-1.274-0.711c-0.599-0.398-0.929-1.361-0.856-2.053
			c0.031-0.299,0.038-0.438,0.133-0.754c0.051-0.178,0.289-1.037,0.535-1.01c-0.028-0.186-0.43-0.475-0.557-0.615
			c-0.249-0.277-0.551-0.529-0.831-0.773c-0.423-0.367-0.912-0.791-1.291-1.166c-0.465-0.457-0.913-1.104-1.39-1.482
			C111.438,79.059,110.544,78.133,111.015,78.157C111.116,78.172,110.937,78.153,111.015,78.157z"/>
	</g>
	<g>
		<path fill-rule="evenodd" clip-rule="evenodd" fill="#B0A8D3" d="M67.688,74.739c0.402-3.289,5.989-3.545,6.747-0.42
			c0.403,1.674-1.179,3.932-2.839,4.211C69.025,78.959,67.401,77.049,67.688,74.739z"/>
		<path fill-rule="evenodd" clip-rule="evenodd" fill="#F79B83" d="M64.552,84.815c-1.021,0.621-2.662,0.105-3.298-0.895
			c-0.7-1.107-0.44-3.062,0.758-3.617C64.84,79.002,67.19,83.206,64.552,84.815z"/>
		<path fill-rule="evenodd" clip-rule="evenodd" fill="#B0A8D3" d="M75.829,84.407c-2.713-0.594-2.073-5.326,0.556-5.359
			C79.498,79.008,79.31,85.167,75.829,84.407z"/>
		<path fill-rule="evenodd" clip-rule="evenodd" fill="#505763" d="M74.365,76.881c0.286,0,0.546-0.607,0.633-0.787
			c0.312-0.643,0.41-1.191,0.286-1.893c-0.196-1.107-0.785-1.828-1.712-2.461c0.031-0.061,0.086-0.094,0.16-0.094
			c0.15-0.031,0.219-0.209,0.315-0.318c0.163-0.188,0.32-0.371,0.473-0.564c0.212-0.264,0.457-0.637,0.7-0.914
			c0.139-0.16,0.929-1.086,0.729-1.326c-0.192-0.234-0.698,0.818-0.825,0.979c-0.512,0.656-1.116,1.246-1.552,1.924
			c-0.168,0.26-0.179,0.221-0.435,0.053c-0.065-0.041-0.22-0.121-0.296-0.146c-0.27-0.104-0.634-0.1-0.879-0.215
			c-0.392-0.186-0.842,0.018-1.233-0.08c-0.171-0.045-1.192,0.297-1.215,0.547c-0.28,0.031-0.675,0.361-0.884,0.547
			c-0.178,0.15-0.189,0.24-0.292,0.338c-0.075,0.145-0.146,0.293-0.219,0.439c-0.093,0.195-0.141,0.32-0.191,0.506
			c-0.104,0.398-0.102,0.799-0.104,1.203c-0.001,0.342,0.155,1.162,0.516,1.273c0.364,0.111,0.074-0.201,0.034-0.303
			c-0.066-0.281-0.18-0.555-0.231-0.838c-0.095-0.523,0.026-1.086,0.231-1.557c0.156-0.363,0.347-0.688,0.698-0.947
			c0.193-0.146,0.517-0.453,0.795-0.52c0.337-0.084,0.618-0.279,0.987-0.334c0.523-0.08,1.028,0.074,1.541,0.162
			c0.542,0.092,0.94,0.529,1.408,0.691c0.141,0.049,0.688,0.512,0.656,0.662c0.061,0.002,0.074-0.043,0.126,0
			c-0.038,0.02-0.06,0.051-0.065,0.096c0.05,0.008,0.089,0.031,0.117,0.07c-0.017-0.014-0.025-0.012-0.03,0.008
			c0.021,0.061,0.06,0.064,0.105,0.016c-0.075,0.061,0.101,0.102,0,0.189c0.159-0.027,0.212,0.615,0.315,0.691
			c-0.005,0.041-0.062-0.016-0.051,0.02c0.135,0.422,0.194,1.025,0.04,1.463C74.922,75.731,74.187,76.68,74.365,76.881
			C74.559,76.881,74.209,76.706,74.365,76.881z"/>
		<path fill-rule="evenodd" clip-rule="evenodd" fill="#757F92" d="M75.695,78.805c0.186-0.041,0.421-0.098,0.573-0.125
			c0.179-0.037,0.413-0.033,0.618-0.045c0.254-0.021,0.741,0.145,0.995,0.266c0.435,0.205,0.797,0.512,0.982,1
			c0.118,0.305,0.153,0.525,0.155,0.855c0.002,0.137-0.048,0.303,0.029,0.369c0.074,0.066-0.191,0.672-0.247,0.77
			c-0.104,0.195-0.29,0.527-0.493,0.631c-0.082,0.041-0.146,0.16-0.235,0.221c-0.228,0.152-0.425,0.297-0.67,0.41
			c-0.494,0.229-1.324,0.393-1.811,0.074c-0.566-0.371-0.896-0.818-1.261-1.396c-0.308-0.496-0.211-1.342,0.053-1.826
			c0.102-0.189,0.284-0.375,0.365-0.566c0.047-0.113,0.008-0.266-0.141-0.227c-0.145,0.039-0.219,0.207-0.283,0.32
			c-0.282,0.488-0.455,0.928-0.413,1.533c0.032,0.51,0.15,1.004,0.452,1.395c0.66,0.861,1.549,1.492,2.708,1.121
			c0.554-0.178,0.995-0.377,1.434-0.785c0.181-0.166,0.62-0.613,0.625-0.863c0.003-0.131,0.126-0.422,0.181-0.553
			c0.082-0.195-0.003-0.578-0.02-0.791c-0.029-0.408-0.156-0.998-0.477-1.27c-0.771-0.65-1.749-1.121-2.854-0.891
			c-0.086,0.018-0.394,0.125-0.394,0.248C75.568,78.708,75.727,78.795,75.695,78.805C75.898,78.76,75.651,78.817,75.695,78.805z"/>
		<path fill-rule="evenodd" clip-rule="evenodd" fill="#505763" d="M69.356,75.84c-0.172,0.023-0.522,0.561-0.644,0.695
			c-0.253,0.281-0.522,0.574-0.798,0.836c-0.186,0.174-0.374,0.385-0.523,0.551c0.015,0.02,0.023,0.041,0.032,0.062
			c-0.167,0.139-0.363,0.344-0.544,0.512c-0.095,0.088-0.437,0.504-0.533,0.529c-0.277,0.08-0.605,0.541-0.902,0.768
			c-0.275,0.207-0.525,0.48-0.776,0.715c-0.16,0.146-0.746,0.57-0.667,0.82c0.095-0.01,0.123-0.039,0.159,0.062
			c0.153-0.053,0.198-0.219,0.316-0.314c0.235,0.232,0.575,0.812,0.531,1.109c-0.022,0.143,0.084,0.238,0.102,0.373
			c0.021,0.164,0.004,0.336-0.014,0.5c-0.021,0.176-0.101,0.389-0.179,0.564c-0.506,1.143-1.898,1.984-3.141,1.467
			c-0.575-0.24-1.021-0.859-1.229-1.428c-0.232-0.631,0.031-1.375,0.349-1.926c0.247-0.424,0.564-0.719,1.006-0.967
			c0.293-0.166,0.713-0.281,1.052-0.211c0.378,0.08,0.891,0.283,1.269,0.172c0.003-0.301-0.69-0.377-0.886-0.412
			c-0.434-0.08-0.819-0.041-1.249,0.018c-0.229,0.029-0.573,0.314-0.779,0.457c-0.301,0.203-0.492,0.51-0.672,0.809
			c-0.493,0.818-0.594,1.723-0.173,2.578c0.075,0.15,0.596,0.975,0.812,0.934c0.031-0.006,0.482,0.287,0.621,0.314
			c0.443,0.092,0.859,0.051,1.301,0.018c0.553-0.039,0.911-0.467,1.279-0.711c0.604-0.398,0.934-1.361,0.86-2.053
			c-0.03-0.299-0.037-0.436-0.133-0.754c-0.052-0.178-0.29-1.037-0.536-1.01c0.027-0.186,0.431-0.475,0.559-0.617
			c0.25-0.275,0.554-0.527,0.836-0.771c0.424-0.367,0.916-0.791,1.296-1.166c0.467-0.457,0.918-1.104,1.395-1.482
			C68.929,76.743,69.829,75.817,69.356,75.84C69.253,75.856,69.435,75.838,69.356,75.84z"/>
	</g>
</g>
</svg>
